SplineFontDB: 3.0
FontName: GUJPatel-Italic
FullName: GUJ Patel Italic
FamilyName: GUJ Patel
Weight: Light
Copyright: Copyright (c) 2009-2015, NLCI (http://www.nlci.in/fonts/)
Version: 1.0 Tue May 09 11:51:43 1995
ItalicAngle: 12
UnderlinePosition: -290
UnderlineWidth: 20
Ascent: 800
Descent: 200
LayerCount: 2
Layer: 0 0 "Back"  1
Layer: 1 0 "Fore"  0
NeedsXUIDChange: 1
XUID: [1021 296 1311619685 12944996]
FSType: 0
OS2Version: 3
OS2_WeightWidthSlopeOnly: 0
OS2_UseTypoMetrics: 1
CreationTime: 1258107729
ModificationTime: 1258110949
PfmFamily: 81
TTFWeight: 250
TTFWidth: 5
LineGap: 0
VLineGap: 0
Panose: 5 0 0 0 0 0 0 0 0 0
OS2TypoAscent: 0
OS2TypoAOffset: 1
OS2TypoDescent: -150
OS2TypoDOffset: 1
OS2TypoLinegap: 0
OS2WinAscent: -1
OS2WinAOffset: 1
OS2WinDescent: -52
OS2WinDOffset: 1
HheadAscent: -1
HheadAOffset: 1
HheadDescent: 52
HheadDOffset: 1
OS2SubXSize: 700
OS2SubYSize: 650
OS2SubXOff: 0
OS2SubYOff: 143
OS2SupXSize: 700
OS2SupYSize: 650
OS2SupXOff: 0
OS2SupYOff: 453
OS2StrikeYSize: 50
OS2StrikeYPos: 259
OS2Vendor: 'Alts'
OS2CodePages: 80000000.00000000
OS2UnicodeRanges: 00000000.00000000.00000000.00000000
MarkAttachClasses: 1
DEI: 91125
TtTable: prep
PUSHW_1
 10
CALL
PUSHW_1
 0
CALL
EndTTInstrs
TtTable: fpgm
PUSHW_1
 0
FDEF
MPPEM
PUSHW_1
 6
LT
IF
PUSHB_2
 1
 1
INSTCTRL
EIF
PUSHW_1
 511
SCANCTRL
PUSHW_1
 68
SCVTCI
PUSHW_2
 6
 3
SDS
SDB
ENDF
PUSHW_1
 1
FDEF
DUP
DUP
RCVT
ROUND[Black]
WCVTP
PUSHB_1
 1
ADD
ENDF
PUSHW_1
 2
FDEF
PUSHW_1
 1
LOOPCALL
POP
ENDF
PUSHW_1
 3
FDEF
DUP
GC[cur]
PUSHB_1
 3
CINDEX
GC[cur]
GT
IF
SWAP
EIF
DUP
ROLL
DUP
ROLL
MD[grid]
ABS
ROLL
DUP
GC[cur]
DUP
ROUND[Grey]
SUB
ABS
PUSHB_1
 4
CINDEX
GC[cur]
DUP
ROUND[Grey]
SUB
ABS
GT
IF
SWAP
NEG
ROLL
EIF
MDAP[rnd]
DUP
PUSHB_1
 0
GTEQ
IF
ROUND[Black]
DUP
PUSHB_1
 0
EQ
IF
POP
PUSHB_1
 64
EIF
ELSE
ROUND[Black]
DUP
PUSHB_1
 0
EQ
IF
POP
PUSHB_1
 64
NEG
EIF
EIF
MSIRP[no-rp0]
ENDF
PUSHW_1
 4
FDEF
DUP
GC[cur]
PUSHB_1
 4
CINDEX
GC[cur]
GT
IF
SWAP
ROLL
EIF
DUP
GC[cur]
DUP
ROUND[White]
SUB
ABS
PUSHB_1
 4
CINDEX

StartChar: exclam
Encoding: 33 33 4
Width: 337
Flags: HW
LayerCount: 2
Fore
SplineSet
131 106 m 256
 163.997 106 195 86.1123 195 48 c 0
 195 22.35 176.4 -8 130 -8 c 0
 101.824 -8 69 11.0563 69 48 c 0
 69 82.8 95.25 106 131 106 c 256
296 631 m 1
 182 170 l 1
 120 170 l 1
 170 602 l 2
 173.919 639.232 185.6 683 248 683 c 0
 280.667 683 296.667 665.667 296 631 c 1
EndSplineSet
EndChar

StartChar: quotedbl
Encoding: 34 34 5
Width: 331
Flags: HW
LayerCount: 2
Fore
SplineSet
172 714 m 256
 196.573 714 211.543 699.566 214 675 c 0
 214 668.438 204.248 633.759 195.5 607 c 130
 133 424 l 1
 102 424 l 1
 114 647 l 1
 114 696.612 137.2 714 172 714 c 256
330 716 m 0
 355.528 716 370.502 701.982 373 677 c 0
 373 670.469 362.287 635.877 353.5 609 c 130
 290 426 l 1
 258 426 l 1
 270 649 l 1
 270 680.933 282 716 330 716 c 0
EndSplineSet
EndChar

StartChar: numbersign
Encoding: 35 35 6
Width: 743
Flags: HW
LayerCount: 2
Fore
SplineSet
337 420 m 1
 290 277 l 1
 435 277 l 1
 482 420 l 1
 337 420 l 1
538 420 m 1
 491 277 l 1
 651 277 l 1
 651 228 l 1
 474 228 l 1
 390 -22 l 1
 340 -6 l 1
 419 228 l 1
 274 228 l 1
 190 -22 l 1
 141 -5 l 1
 220 228 l 1
 79 228 l 1
 79 277 l 1
 236 277 l 1
 285 420 l 1
 124 420 l 1
 124 471 l 1
 301 471 l 1
 381 706 l 1
 432 690 l 1
 356 471 l 1
 501 471 l 1
 580 706 l 1
 631 690 l 1
 556 471 l 1
 695 471 l 1
 695 420 l 1
 538 420 l 1
EndSplineSet
EndChar

StartChar: dollar
Encoding: 36 36 7
Width: 556
Flags: HW
LayerCount: 2
Fore
SplineSet
258 55 m 1
 277.848 59.6076 374.059 82.1429 372 181 c 1
 372 240.4 329.232 267.028 301 280 c 1
 258 55 l 1
308 617 m 1
 232.58 594.046 204 546.2 204 499 c 0
 204 468.779 214.2 431.4 267 405 c 1
 308 617 l 1
252 312 m 1
 150.806 354.436 108 409.8 108 475 c 0
 108 601.311 227.595 662.257 322 669 c 1
 336 744 l 1
 393 744 l 1
 381 672 l 1
 442.652 672 499.381 651.924 524 647 c 1
 491 496 l 1
 433 496 l 1
 437 593 l 2
 437 610.009 390.281 621 370 621 c 1
 324 373 l 1
 385.968 354.222 482 307.532 482 208 c 0
 482 44.8 300.875 4 254 4 c 1
 235 -99 l 1
 176 -99 l 1
 195 3 l 1
 126.471 5.63575 79.136 18.3567 25 44 c 1
 56 201 l 1
 122 201 l 1
 114 86 l 2
 114 81.2 118.2 80 120 80 c 0
 123.948 80 160.517 59.8322 203 57 c 1
 252 312 l 1
EndSplineSet
EndChar

StartChar: percent
Encoding: 37 37 8
Width: 859
Flags: HW
LayerCount: 2
Fore
SplineSet
196 307 m 0
 290.4 307 316.625 521.376 314 566 c 1
 314 606.653 305.443 646 264 646 c 0
 167.2 646 143 438.313 143 391 c 0
 143 352.649 152.193 307 196 307 c 0
629 23 m 0
 700.116 23 740.035 155.565 748 283 c 1
 748 324.184 738.932 363 697 363 c 0
 601 363 577 153.094 577 108 c 0
 577 65.6925 585.69 23 629 23 c 0
273 685 m 0
 365.8 685 389 611.625 389 547 c 0
 389 415.893 316.807 270 189 270 c 0
 95.4 270 72 344.756 72 408 c 0
 72 509.567 126.591 685 273 685 c 0
196 1 m 1
 134 1 l 1
 694 671 l 1
 756 671 l 1
 196 1 l 1
705 404 m 0
 797.8 404 818.744 333.689 821 266 c 1
 821 134.246 749.754 -12 621 -12 c 0
 528.2 -12 505 63.3688 505 126 c 0
 505 259.235 577.681 404 705 404 c 0
EndSplineSet
EndChar

StartChar: ampersand
Encoding: 38 38 9
Width: 704
Flags: HW
LayerCount: 2
Fore
SplineSet
119 186 m 0
 119 104.595 179.74 55 241 55 c 0
 293.8 55 333.969 79.2401 373 108 c 1
 210 328 l 1
 149.449 289.074 119 242.8 119 186 c 0
273 397 m 1
 369.189 433.486 401.836 483.406 404 544 c 1
 404 597.075 374.4 634 330 634 c 256
 286.383 634 219 603.441 219 525 c 0
 219 473.8 247.789 427.253 273 397 c 1
447 178 m 1
 483.934 219.366 510.947 270.889 523 296 c 1
 519.4 303.2 517.849 304.151 515 307 c 1
 464 315 l 1
 464 360 l 1
 676 360 l 1
 676 315 l 1
 595 310 l 1
 568.577 251.869 523.823 186.836 473 132 c 1
 516.033 73.7791 553.282 51 632 51 c 1
 632 8 l 1
 588.8 8 588.8 7 560 7 c 2
 530.5 7 l 130
 482.3 7 453.263 19.7536 410 73 c 1
 359.151 34.2579 290.159 -3 194 -3 c 0
 98.2651 -3 18 54.2378 18 161 c 0
 18 279.815 125.934 340.595 187 372 c 1
 158.955 410.244 134 448.8 134 500 c 0
 134 611 234.83 685 355 685 c 0
 475.483 685 507 607.475 507 555 c 0
 507 478.6 456.286 414.893 307 364 c 1
 447 178 l 1
EndSplineSet
EndChar

StartChar: quotesingle
Encoding: 39 39 10
Width: 169
Flags: HW
LayerCount: 2
Fore
SplineSet
178 714 m 0
 199.515 714 221.472 704.446 220 675 c 0
 220 668.469 209.287 633.877 200.5 607 c 130
 162.5 496 l 129
 145.5 450 l 130
 140.5 436.667 137.333 428 136 424 c 1
 104 424 l 1
 116 647 l 2
 119.571 700.562 146.102 714 178 714 c 0
EndSplineSet
EndChar

StartChar: parenleft
Encoding: 40 40 11
Width: 418
Flags: HW
LayerCount: 2
Fore
SplineSet
303 -136 m 1
 167.262 -130.571 74 -15.0113 74 144 c 0
 74 390.393 206.2 698.318 466 718 c 1
 458 671 l 1
 249.996 645.634 173 301.819 173 123 c 0
 173 10.304 206.548 -69.1825 312 -91 c 1
 303 -136 l 1
EndSplineSet
EndChar

StartChar: parenright
Encoding: 41 41 12
Width: 417
Flags: HW
LayerCount: 2
Fore
SplineSet
247 456 m 0
 247 559.674 207.817 650.824 109 664 c 1
 118 709 l 1
 264.91 695.141 333.703 584.735 343 475.5 c 128
 344.333 459.833 345.667 449 347 443 c 1
 347 181.801 239.412 -32.5397 61 -113 c 128
 27 -128.333 -8.33333 -138 -45 -142 c 1
 -37 -95 l 1
 89.6596 -80.2721 194.615 60.462 235.5 321.5 c 128
 239.667 348.108 247 402.2 247 456 c 0
EndSplineSet
EndChar

StartChar: asterisk
Encoding: 42 42 13
Width: 500
Flags: HW
LayerCount: 2
Fore
SplineSet
262 362 m 1
 192 337 l 1
 193 411 l 1
 294 492 l 1
 307 483 l 1
 262 362 l 1
291 505 m 1
 162 512 l 1
 118 568 l 1
 187 588 l 1
 294 518 l 1
 291 505 l 1
364 361 m 1
 318 481 l 1
 331 490 l 1
 432 409 l 1
 433 335 l 1
 364 361 l 1
318 527 m 1
 306 527 l 1
 271 652 l 1
 312 713 l 1
 353 652 l 1
 318 527 l 1
462 511 m 1
 334 504 l 1
 331 518 l 1
 437 588 l 1
 507 568 l 1
 462 511 l 1
EndSplineSet
EndChar

StartChar: plus
Encoding: 43 43 14
Width: 1000
Flags: HW
LayerCount: 2
Fore
SplineSet
530 269 m 1
 530 0 l 1
 469 0 l 1
 469 269 l 1
 200 269 l 1
 200 331 l 1
 469 331 l 1
 469 600 l 1
 530 600 l 1
 530 331 l 1
 799 331 l 1
 799 269 l 1
 530 269 l 1
EndSplineSet
EndChar

StartChar: comma
Encoding: 44 44 15
Width: 279
Flags: HW
LayerCount: 2
Fore
SplineSet
90 116 m 0
 147.299 116 146.137 71.7256 159 46 c 1
 159 -64.8809 53.9615 -161.027 -55 -169 c 1
 -48 -133 l 1
 32.9319 -116.814 73.7726 -75.3643 87 4 c 1
 25 4 l 1
 17.4262 13.0885 16 25.8423 16 35 c 0
 16 76.8217 51.7292 116 90 116 c 0
EndSplineSet
EndChar

StartChar: hyphen
Encoding: 45 45 16
Width: 318
Flags: HW
LayerCount: 2
Fore
SplineSet
270 207 m 1
 30 207 l 1
 43 274 l 1
 283 274 l 1
 270 207 l 1
EndSplineSet
EndChar

StartChar: period
Encoding: 46 46 17
Width: 279
Flags: HW
LayerCount: 2
Fore
SplineSet
86 120 m 0
 124.769 120 151 88.0768 151 55 c 0
 151 15.4 120.05 -11 86 -11 c 0
 47.6 -11 22 20.2 22 55 c 0
 22 86 45.1625 120 86 120 c 0
EndSplineSet
EndChar

StartChar: slash
Encoding: 47 47 18
Width: 490
Flags: HW
LayerCount: 2
Fore
SplineSet
63 -92 m 1
 0 -92 l 1
 425 671 l 1
 489 671 l 1
 63 -92 l 1
EndSplineSet
EndChar

StartChar: zero
Encoding: 48 48 19
Width: 556
Flags: HW
LayerCount: 2
Fore
SplineSet
239 39 m 0
 355.732 39 437.823 282.658 442 479 c 1
 442 609.55 386.8 635 350 635 c 0
 227.6 635 146 379.522 146 193 c 0
 146 82.8418 183.2 39 239 39 c 0
359 686 m 0
 492.394 686 548 588.006 548 461 c 0
 548 217.398 416.356 -13 228 -13 c 0
 140.05 -13 36 31.6 36 210 c 0
 36 422.273 146.265 686 359 686 c 0
EndSplineSet
EndChar

StartChar: one
Encoding: 49 49 20
Width: 556
Flags: HW
LayerCount: 2
Fore
SplineSet
304 71 m 2
 302.462 58.6923 309.35 53 323 53 c 2
 397 49 l 1
 397 3 l 1
 84 3 l 1
 84 49 l 1
 185 53 l 2
 199.4 53 202.424 66.968 203 71 c 2
 305 594 l 1
 148 574 l 1
 148 618 l 1
 385 684 l 1
 421 684 l 1
 304 71 l 2
EndSplineSet
EndChar

StartChar: two
Encoding: 50 50 21
Width: 556
Flags: HW
LayerCount: 2
Fore
SplineSet
357 689 m 0
 455.037 689 547.836 650.953 535 538 c 1
 535 402.794 390.949 285.429 320 230 c 129
 254.5 181 l 129
 120 88 l 1
 399 88 l 1
 433 172 l 1
 493 172 l 1
 462 5 l 1
 -17 5 l 1
 -4 69 l 1
 127.5 164 l 129
 297.94 290.039 421 395.489 421 527 c 0
 421 610.2 370.1 631 321 631 c 0
 294 631 272.386 624.277 253.5 616.5 c 130
 240 611 l 1
 220 506 l 1
 213.918 502.959 192.978 491 166 491 c 0
 136.573 491 112 502.141 112 533 c 0
 112 605.033 221.611 689 357 689 c 0
EndSplineSet
EndChar

StartChar: three
Encoding: 51 51 22
Width: 556
Flags: HW
LayerCount: 2
Fore
SplineSet
356 690 m 0
 448.146 690 536.552 658.844 535 544 c 0
 535 507.2 516.802 408.494 354 360 c 1
 440.352 349.206 495 309.6 495 234 c 0
 495 104.46 361.351 -9 196 -9 c 0
 59.7656 -9 14 55.8 14 99 c 0
 14 113.95 26 155 74 155 c 0
 89.3411 155 105.132 152.076 116 148 c 1
 131 64 l 1
 143.046 55.9692 174.8 43 204 43 c 0
 299.975 43 380 120.137 380 219 c 0
 380 303.8 318.182 325 270 325 c 0
 256.2 325 242.183 324.845 201 320 c 1
 209 382 l 1
 333.918 376.684 419 443.2 419 535 c 0
 419 616.6 353.285 637 320 637 c 0
 285.2 637 253.784 624.588 233 609 c 1
 218 514 l 1
 213.211 514 190.186 504 166 504 c 0
 138.19 504 115 520.428 115 551 c 0
 115 627.604 233.857 690 356 690 c 0
EndSplineSet
EndChar

StartChar: four
Encoding: 52 52 23
Width: 556
Flags: HW
LayerCount: 2
Fore
SplineSet
132 270 m 1
 336 270 l 1
 389 535 l 1
 132 270 l 1
507 202 m 1
 415 202 l 1
 372 -27 l 1
 278 -27 l 1
 323 202 l 1
 21 202 l 1
 34 268 l 1
 436 685 l 1
 510 685 l 1
 430 269 l 1
 520 269 l 1
 507 202 l 1
EndSplineSet
EndChar

StartChar: five
Encoding: 53 53 24
Width: 556
Flags: HW
LayerCount: 2
Fore
SplineSet
374 225 m 256
 374 324.2 291.681 349 210 349 c 0
 193.937 349 173.795 348.12 157 347 c 130
 128 345 l 130
 118.667 344.333 110.667 343.667 104 343 c 1
 170 672 l 1
 536 672 l 1
 526 589 l 1
 235 589 l 1
 196 396 l 1
 235.321 406.923 267.397 410 298 410 c 0
 400.106 410 485 361.639 485 250 c 0
 485 108.005 349.965 -14 176 -14 c 0
 40.5766 -14 10 41.2 10 78 c 0
 10 113.4 37.475 137 75 137 c 0
 86.6 137 98.3077 135.138 104 134 c 1
 130 50 l 1
 166.9 37.7 181.2 37 194 37 c 0
 288.97 37 374 121.077 374 225 c 256
EndSplineSet
EndChar

StartChar: six
Encoding: 54 54 25
Width: 556
Flags: HW
LayerCount: 2
Fore
SplineSet
254 38 m 0
 337.093 38 415.747 137.855 413 245 c 1
 413 313.3 389.2 386 294 386 c 0
 267.8 386 226.303 384.976 163 335 c 1
 163 327.093 146 259.727 146 206 c 0
 146 129.395 167.996 38 254 38 c 0
337 452 m 0
 442.049 452 519 387.897 519 273 c 0
 519 112.2 393.345 -13 247 -13 c 0
 151.324 -13 38 32.8 38 216 c 0
 38 474.788 234.221 687.577 506 714 c 1
 506 660 l 1
 294.202 636.835 200.679 491.253 177 402 c 1
 217.335 428.89 269.678 452 337 452 c 0
EndSplineSet
EndChar

StartChar: seven
Encoding: 55 55 26
Width: 556
Flags: HW
LayerCount: 2
Fore
SplineSet
596 627 m 1
 141 -15 l 1
 135 -37 l 1
 37 -37 l 1
 481 589 l 1
 190 589 l 1
 159 500 l 1
 96 500 l 1
 129 670 l 1
 605 670 l 1
 596 627 l 1
EndSplineSet
EndChar

StartChar: eight
Encoding: 56 56 27
Width: 556
Flags: HW
LayerCount: 2
Fore
SplineSet
247 39 m 256
 325.151 39 397 102.873 397 182 c 0
 397 245.966 313.062 287.488 230 325 c 1
 184.504 300.356 118 250.321 118 165 c 0
 118 91.0125 168.812 39 247 39 c 256
334 378 m 1
 373.41 398.562 443.063 451.41 434 536 c 1
 434 593.912 400.747 635 339 635 c 0
 268.503 635 207 578.106 207 498 c 0
 207 429.474 295.068 394.11 334 378 c 1
348 685 m 0
 454.451 685 521.597 641.161 531 544 c 1
 531 469.6 500.609 408.964 383 358 c 1
 422.672 341.296 506 300 506 213 c 0
 506 94.1715 391.679 -10 231 -10 c 0
 119.08 -10 20 35.6367 20 152 c 0
 20 233.2 79.6564 309.747 186 355 c 1
 142.585 377.576 107 411.888 107 477 c 0
 107 579.499 190.056 685 348 685 c 0
EndSplineSet
EndChar

StartChar: nine
Encoding: 57 57 28
Width: 556
Flags: HW
LayerCount: 2
Fore
SplineSet
177 423 m 0
 177 321.434 246.6 288 293 288 c 0
 347.8 288 403.134 320.134 430 347 c 1
 440.83 411.982 446.514 424.665 451 477 c 1
 451 609.009 382.6 636 337 636 c 0
 252.283 636 177 539.593 177 423 c 0
352 683 m 0
 452.565 683 553 641.2 553 474 c 0
 553 180.001 288.413 13.7458 66 -55 c 1
 46 -8 l 1
 206.067 52.4026 312.918 124.529 399 268 c 1
 367.819 252.409 307.2 227 246 227 c 0
 179.059 227 66 262 66 402 c 0
 66 558.3 188.62 683 352 683 c 0
EndSplineSet
EndChar

StartChar: colon
Encoding: 58 58 29
Width: 279
Flags: HW
LayerCount: 2
Fore
SplineSet
86 120 m 0
 124.769 120 151 88.0768 151 55 c 0
 151 15.4 120.05 -11 86 -11 c 0
 47 -11 21 20.275 21 55 c 0
 21 87.1773 46.602 120 86 120 c 0
159 490 m 0
 197.769 490 224 458.077 224 425 c 256
 224 386.231 192.077 360 159 360 c 0
 119.4 360 93 390.95 93 425 c 256
 93 459.05 119.4 490 159 490 c 0
EndSplineSet
EndChar

StartChar: semicolon
Encoding: 59 59 30
Width: 279
Flags: HW
LayerCount: 2
Fore
SplineSet
91 117 m 0
 147.527 117 148.013 73.3689 159 47 c 1
 159 -72.5728 45.184 -161.669 -55 -169 c 1
 -48 -133 l 1
 45.8077 -114.238 76.3186 -61.2245 87 5 c 1
 25 5 l 1
 17.0328 14.5607 16 31.4 16 38 c 0
 16 72.8812 48.4688 117 91 117 c 0
154 487 m 0
 192.769 487 219 455.077 219 422 c 256
 219 383.231 187.077 357 154 357 c 0
 114.4 357 88 387.95 88 422 c 256
 88 456.05 114.4 487 154 487 c 0
EndSplineSet
EndChar

StartChar: less
Encoding: 60 60 31
Width: 1000
Flags: HW
LayerCount: 2
Fore
SplineSet
200 269 m 1
 200 331 l 1
 799 560 l 1
 799 498 l 1
 264 299 l 1
 799 101 l 1
 799 39 l 1
 200 269 l 1
EndSplineSet
EndChar

StartChar: equal
Encoding: 61 61 32
Width: 1000
Flags: HW
LayerCount: 2
Fore
SplineSet
200 178 m 1
 200 240 l 1
 799 240 l 1
 799 178 l 1
 200 178 l 1
200 359 m 1
 200 421 l 1
 799 421 l 1
 799 359 l 1
 200 359 l 1
EndSplineSet
EndChar

StartChar: greater
Encoding: 62 62 33
Width: 1000
Flags: HW
LayerCount: 2
Fore
SplineSet
200 39 m 1
 200 101 l 1
 735 299 l 1
 200 498 l 1
 200 560 l 1
 799 331 l 1
 799 269 l 1
 200 39 l 1
EndSplineSet
EndChar

StartChar: question
Encoding: 63 63 34
Width: 485
Flags: HW
LayerCount: 2
Fore
SplineSet
165 100 m 256
 214.6 100 227 61.15 227 43 c 0
 227 11.3 202.2 -15 165 -15 c 256
 120 -15 100 16.1625 100 41 c 256
 100 70.8984 125.225 100 165 100 c 256
282 677 m 0
 430.07 677 463.928 592.062 462 540 c 1
 462 438.8 393.304 348.387 236 287 c 1
 214 168 l 1
 148 168 l 1
 174 316 l 1
 249.901 338.324 355 408.231 355 528 c 0
 355 595.85 316.772 631 252 631 c 1
 191 532 l 1
 163 532 l 2
 132.879 532 109 544.324 109 572 c 0
 109 613.73 155.043 677 282 677 c 0
EndSplineSet
EndChar

StartChar: at
Encoding: 64 64 35
Width: 936
Flags: HW
LayerCount: 2
Fore
SplineSet
377 230 m 0
 377 175.55 392.6 123 455 123 c 0
 494.6 123 529.9 155.015 554 186 c 1
 594 393 l 2
 596.529 408.172 571.943 449 536 449 c 0
 440.6 449 377 355.624 377 230 c 0
533 688 m 0
 726.18 688 873 580.663 873 373 c 0
 873 175.715 735.231 59 632 59 c 0
 587.85 59 555 75.4 555 141 c 1
 482.744 68.7442 440.6 60 412 60 c 0
 338.2 60 289 122.863 289 221 c 0
 289 375.771 409.738 491 534 491 c 0
 543.385 491 577.4 491.8 629 466 c 1
 647 488 l 1
 704 488 l 1
 704 483.016 695.416 447.148 693 437 c 130
 638 195 l 2
 636 183.667 635 173.333 635 164 c 128
 635 135.771 646.898 119 675 119 c 256
 731.7 119 826 214.617 826 375 c 0
 826 556.89 695.663 646 547 646 c 0
 303.958 646 159 466.404 159 259 c 0
 159 58.9573 284.344 -99 507 -99 c 0
 611.4 -99 689.753 -69.6804 768 -27 c 1
 782 -63 l 1
 715.088 -99.4975 607.434 -149 482 -149 c 0
 273.256 -149 87 -6.60407 87 239 c 0
 87 528.784 302.407 688 533 688 c 0
EndSplineSet
EndChar

StartChar: A
Encoding: 65 65 36
Width: 672
Flags: HW
LayerCount: 2
Fore
SplineSet
374 563 m 1
 227 304 l 1
 417 304 l 1
 374 563 l 1
392 0 m 1
 392 41 l 1
 437 45 l 2
 451 46.3333 457.333 52.3333 456 63 c 2
 426 253 l 1
 200 253 l 1
 98 63 l 2
 91.104 50.5872 99.5414 47.247 117 46 c 2
 162 42 l 1
 162 1 l 1
 -53 1 l 1
 -53 42 l 1
 3 47 l 1
 372 686 l 1
 452 686 l 1
 559 65 l 2
 560.347 52.8749 563.309 48 577 48 c 1
 622 44 l 1
 622 3 l 1
 392 0 l 1
EndSplineSet
EndChar

StartChar: B
Encoding: 66 66 37
Width: 606
Flags: HW
LayerCount: 2
Fore
SplineSet
378 668 m 2
 523.627 668 574 617.6 574 542 c 0
 574 431.6 486.176 383.292 408 358 c 1
 531.864 342.517 553 279.4 553 227 c 0
 553 49.4 406.33 5 261 5 c 2
 -12 5 l 1
 -12 46 l 1
 50 50 l 2
 57.2 50 66.1046 51.8369 68 67 c 1
 172 605 l 2
 173.624 617.996 167.36 623 153 623 c 1
 98 627 l 1
 98 668 l 1
 378 668 l 2
228 47 m 2
 412.945 47 445.848 147.738 445 213 c 0
 445 300.2 377.873 322 294 322 c 0
 270.526 322 240.804 320.601 220 318 c 1
 168 47 l 1
 228 47 l 2
276 374 m 2
 385.841 374 457.279 432.832 464 537 c 1
 464 606.317 402.847 628 330 628 c 0
 308.806 628 293.955 627 280 627 c 1
 232 374 l 1
 276 374 l 2
EndSplineSet
EndChar

StartChar: C
Encoding: 67 67 38
Width: 629
Flags: HW
LayerCount: 2
Fore
SplineSet
53 261 m 0
 53 477.701 217.9 678 452 678 c 0
 507 678 549.949 667.607 589.5 655.5 c 130
 642 639 l 1
 617 491 l 1
 558 491 l 1
 558 583 l 2
 558 595.597 545.56 606.48 541 608 c 0
 539.112 608 507.428 631 459 631 c 0
 302.238 631 161 478.838 161 254 c 0
 161 85.5859 271.763 35 363 35 c 0
 389.6 35 417.611 41.0959 429.5 46.5 c 128
 433.167 48.1667 435.333 49 436 49 c 0
 443.26 49 454.278 58.8344 457 67 c 2
 499 181 l 1
 558 181 l 1
 532 19 l 1
 522.713 17.1426 426.079 -19 328 -19 c 0
 148.534 -19 53 99.102 53 261 c 0
EndSplineSet
EndChar

StartChar: D
Encoding: 68 68 39
Width: 670
Flags: HW
LayerCount: 2
Fore
SplineSet
239 49 m 2
 441.878 49 546.547 229.469 544 423 c 1
 544 570.375 461.056 614.76 312 618 c 1
 276 618 l 1
 167 49 l 1
 239 49 l 2
336 659 m 2
 563.508 659 654.196 556.137 652 409 c 1
 652 161.2 475.237 -4 223 -4 c 2
 -12 -4 l 1
 -12 37 l 1
 50 41 l 2
 60.8 41 64.9647 45.8588 68 58 c 2
 172 596 l 2
 173.624 608.996 167.36 614 153 614 c 1
 98 618 l 1
 98 659 l 1
 336 659 l 2
EndSplineSet
EndChar

StartChar: E
Encoding: 69 69 40
Width: 558
Flags: HW
LayerCount: 2
Fore
SplineSet
486 601 m 2
 486 617.2 478.8 619 468 619 c 2
 277 619 l 1
 232 373 l 1
 365 373 l 2
 379.86 373 385.281 378.604 389 391 c 2
 408 457 l 1
 463 457 l 1
 420 228 l 1
 363 228 l 1
 373 299 l 2
 374.333 312.333 368 319 354 319 c 2
 219 319 l 1
 168 46 l 1
 402 46 l 2
 415.421 46 422.391 54.565 425 65 c 2
 456 161 l 1
 517 161 l 1
 484 -5 l 1
 -16 -5 l 1
 -16 36 l 1
 42 40 l 2
 55.3333 40.6667 62.6667 46.6667 64 58 c 2
 168 596 l 2
 169.498 607.984 164.4 614 150 614 c 1
 95 618 l 1
 95 659 l 1
 578 659 l 1
 549 520 l 1
 486 520 l 1
 486 601 l 2
EndSplineSet
EndChar

StartChar: F
Encoding: 70 70 41
Width: 514
Flags: HW
LayerCount: 2
Fore
SplineSet
475 601 m 2
 475 615.4 469.2 619 456 619 c 2
 277 619 l 1
 229 362 l 1
 356 362 l 2
 369.2 362 375.415 367.077 378 380 c 2
 397 448 l 1
 454 448 l 1
 411 220 l 1
 354 220 l 1
 363 289 l 2
 364.473 302.259 355 308 343 308 c 2
 217 308 l 1
 170 61 l 2
 168.533 50.7341 173.243 44 188 44 c 2
 252 40 l 1
 252 -1 l 1
 -15 -1 l 1
 -15 40 l 1
 42 44 l 2
 55.3333 44.6667 63.3333 50.6667 66 62 c 2
 170 600 l 2
 171.624 612.996 165.36 618 151 618 c 1
 96 622 l 1
 96 663 l 1
 569 663 l 1
 538 509 l 1
 475 509 l 1
 475 601 l 2
EndSplineSet
EndChar

StartChar: G
Encoding: 71 71 42
Width: 687
Flags: HW
LayerCount: 2
Fore
SplineSet
169 252 m 0
 169 93.5004 286.809 41 360 41 c 0
 406.062 41 429.228 49.2457 458 55 c 1
 497 258 l 2
 498.551 270.411 493.2 275 478 275 c 1
 423 280 l 1
 423 321 l 1
 680 321 l 1
 680 280 l 1
 618 276 l 2
 605.253 276 596.503 270.263 594 259 c 2
 550 25 l 1
 467.5 5.5 l 130
 428.778 -2.99991 384.495 -11 338 -11 c 0
 113.2 -11 57 156.393 57 270 c 0
 57 516.528 264.468 685 486 685 c 0
 538.6 685 566.84 681.512 617.5 667.5 c 130
 669 653 l 1
 638 493 l 1
 571 493 l 1
 573 584 l 2
 573 605.6 558.765 609.941 554 611 c 0
 549.825 611 526.7 629 474 629 c 0
 327.72 629 169 486.139 169 252 c 0
EndSplineSet
EndChar

StartChar: H
Encoding: 72 72 43
Width: 725
Flags: HW
LayerCount: 2
Fore
SplineSet
708 624 m 1
 695.198 624 687.483 617.172 685 606 c 2
 581 68 l 2
 579.278 55.9478 585.932 51 600 51 c 1
 656 47 l 1
 656 6 l 1
 395 6 l 1
 395 47 l 1
 455 51 l 2
 465.77 51 475.734 57.8723 477 68 c 2
 526 328 l 1
 214 328 l 1
 165 68 l 2
 163.533 57.7341 168.243 51 183 51 c 1
 241 47 l 1
 241 6 l 1
 -19 6 l 1
 -19 47 l 1
 38 51 l 2
 51.3333 51.6667 59.3333 57.6667 62 69 c 2
 166 607 l 2
 167.624 619.996 161.36 625 147 625 c 1
 92 629 l 1
 92 670 l 1
 351 670 l 1
 351 629 l 1
 292 625 l 2
 287.6 625 271.795 623.156 270 607 c 1
 227 379 l 1
 539 379 l 1
 582 607 l 2
 583.625 619.996 577.36 625 563 625 c 1
 506 629 l 1
 506 670 l 1
 766 670 l 1
 766 629 l 1
 708 624 l 1
EndSplineSet
EndChar

StartChar: I
Encoding: 73 73 44
Width: 313
Flags: HW
LayerCount: 2
Fore
SplineSet
291 624 m 2
 283.8 624 276.727 622.772 273 606 c 2
 169 68 l 2
 167.278 55.9477 173.932 51 188 51 c 2
 246 47 l 1
 246 6 l 1
 -15 6 l 1
 -15 47 l 1
 47 51 l 2
 54.2 51 63.1046 52.8369 65 68 c 1
 169 606 l 2
 170.498 617.984 165.4 624 151 624 c 1
 96 628 l 1
 96 669 l 1
 355 669 l 1
 355 628 l 1
 291 624 l 2
EndSplineSet
EndChar

StartChar: J
Encoding: 74 74 45
Width: 467
Flags: HW
LayerCount: 2
Fore
SplineSet
85 63 m 2
 85 47.4 103.2 37 124 37 c 0
 205 37 237.115 109.219 259 246 c 1
 325 602 l 2
 326.498 613.984 321.4 620 307 620 c 2
 249 624 l 1
 249 665 l 1
 508 665 l 1
 508 624 l 1
 450 624 l 2
 436.667 623.333 428.667 617 426 605 c 2
 363 257 l 2
 334.984 99.0912 292.458 -13 116 -13 c 0
 31.042 -13 -5.83541 12.6118 -13 15 c 1
 20 185 l 1
 85 185 l 1
 85 63 l 2
EndSplineSet
EndChar

StartChar: K
Encoding: 75 75 46
Width: 655
Flags: HW
LayerCount: 2
Fore
SplineSet
602 2 m 1
 557.177 -9.69292 528.4 -13 510 -13 c 0
 451.54 -13 426.358 2.95263 397 59 c 2
 274 295 l 1
 213 295 l 1
 169 66 l 2
 167.8 57.6 171.386 49 188 49 c 1
 246 45 l 1
 246 4 l 1
 -15 4 l 1
 -15 45 l 1
 43 49 l 2
 56.3333 49.6667 63.6667 55.6667 65 67 c 2
 169 605 l 2
 170.498 616.984 165.4 623 151 623 c 1
 96 627 l 1
 96 668 l 1
 355 668 l 1
 355 627 l 1
 296 623 l 2
 283.198 623 275.483 616.172 273 605 c 2
 223 343 l 1
 239 343 l 1
 505 605 l 2
 512.68 611.4 513.048 623 499 623 c 2
 436 627 l 1
 436 668 l 1
 694 668 l 1
 694 627 l 1
 607 621 l 1
 346 369 l 1
 484 100 l 2
 507.941 52.1178 527.161 43 561 43 c 2
 602 43 l 1
 602 2 l 1
EndSplineSet
EndChar

StartChar: L
Encoding: 76 76 47
Width: 518
Flags: HW
LayerCount: 2
Fore
SplineSet
446 0 m 1
 -15 0 l 1
 -15 41 l 1
 43 45 l 2
 56.3333 45.6667 63.6667 51.6667 65 63 c 2
 169 601 l 2
 170.498 612.984 165.4 619 151 619 c 1
 96 623 l 1
 96 664 l 1
 355 664 l 1
 355 623 l 1
 296 619 l 1
 276.8 619 272.6 605.2 272 601 c 2
 167 47 l 1
 363 47 l 2
 377.4 47 384.16 58.428 387 66 c 2
 422 181 l 1
 481 181 l 1
 446 0 l 1
EndSplineSet
EndChar

StartChar: M
Encoding: 77 77 48
Width: 861
Flags: HW
LayerCount: 2
Fore
SplineSet
846 624 m 2
 832.667 623.333 824.667 617 822 605 c 2
 719 67 l 2
 717.529 56.7042 723 50 739 50 c 1
 795 46 l 1
 795 5 l 1
 536 5 l 1
 536 46 l 1
 594 50 l 2
 598.6 50 615.043 51.3446 617 67 c 2
 713 574 l 1
 393 1 l 1
 333 1 l 1
 233 568 l 1
 141 67 l 2
 139.533 56.7341 144.243 50 159 50 c 1
 214 46 l 1
 214 5 l 1
 -15 5 l 1
 -15 46 l 1
 42 50 l 2
 55.3333 50.6667 63.3333 56.6667 66 68 c 2
 169 606 l 2
 170.624 618.996 164.36 624 150 624 c 1
 95 628 l 1
 95 669 l 1
 318 669 l 1
 318 642 l 1
 403 159 l 1
 670 638 l 1
 670 670 l 1
 900 670 l 1
 900 629 l 1
 846 624 l 2
EndSplineSet
EndChar

StartChar: N
Encoding: 78 78 49
Width: 710
Flags: HW
LayerCount: 2
Fore
SplineSet
698 624 m 2
 685.276 624 676.481 617.165 674 606 c 2
 557 2 l 1
 485 2 l 1
 234 532 l 1
 146 68 l 2
 144.278 55.9477 150.932 51 165 51 c 1
 220 47 l 1
 220 6 l 1
 -11 6 l 1
 -11 47 l 1
 46 51 l 2
 59.3333 51.6667 67.3333 57.6667 70 69 c 2
 173 607 l 2
 174.498 618.984 169.4 625 155 625 c 1
 100 629 l 1
 100 670 l 1
 292 670 l 1
 292 645 l 1
 517 168 l 1
 601 604 l 2
 602.498 615.984 597.4 622 583 622 c 1
 526 626 l 1
 526 667 l 1
 757 667 l 1
 757 626 l 1
 698 624 l 2
EndSplineSet
EndChar

StartChar: O
Encoding: 79 79 50
Width: 709
Flags: HW
LayerCount: 2
Fore
SplineSet
330 39 m 0
 471.757 39 577 240.174 577 416 c 0
 577 544.902 511.4 635 413 635 c 0
 274.648 635 166 442.758 166 255 c 0
 166 127.898 231.6 39 330 39 c 0
420 685 m 0
 588.725 685 690 562.002 690 416 c 0
 690 206.911 557.781 -13 322 -13 c 0
 157.891 -13 51 101.529 51 263 c 0
 51 481.189 205.368 685 420 685 c 0
EndSplineSet
EndChar

StartChar: P
Encoding: 80 80 51
Width: 565
Flags: HW
LayerCount: 2
Fore
SplineSet
466 494 m 0
 466 596.4 391.2 622 313 622 c 0
 301 622 289 622 277 622 c 1
 215 305 l 1
 259.825 302.866 420.774 297.011 459.5 440 c 128
 463.833 456 466 474 466 494 c 0
346 667 m 2
 515.666 667 575.059 595.997 570 510 c 1
 570 351.297 444.141 251 268 251 c 0
 248 251 228 251 208 251 c 1
 171 65 l 2
 169.278 52.9477 175.932 48 190 48 c 2
 247 44 l 1
 247 3 l 1
 -13 3 l 1
 -13 44 l 1
 45 48 l 2
 57.6667 48.6667 65.3333 54.6667 68 66 c 2
 172 604 l 2
 173.624 616.996 167.36 622 153 622 c 1
 98 626 l 1
 98 667 l 1
 346 667 l 2
EndSplineSet
EndChar

StartChar: Q
Encoding: 81 81 52
Width: 709
Flags: HW
LayerCount: 2
Fore
SplineSet
328 42 m 0
 464.337 42 572.454 235.176 577 417 c 1
 577 543.2 513 634 417 634 c 0
 271.891 634 161 447.9 161 256 c 256
 161 128.905 226.546 42 328 42 c 0
480 25 m 1
 515.422 -38.7599 545.286 -95 614 -95 c 0
 658.8 -95 715.296 -68.8654 726 -64 c 1
 721 -108 l 1
 717.555 -109.378 627.834 -155 555 -155 c 0
 481.479 -155 420.907 -125.624 372 -9 c 1
 352.4 -9 342.6 -11 323 -11 c 0
 170.131 -11 54 93.3664 54 262 c 0
 54 470.698 205.942 687 427 687 c 0
 587.8 687 695 573.048 695 419 c 0
 695 222.507 599.95 94.3042 480 25 c 1
EndSplineSet
EndChar

StartChar: R
Encoding: 82 82 53
Width: 641
Flags: HW
LayerCount: 2
Fore
SplineSet
467 508 m 1
 467 598.858 388.274 619 299 619 c 2
 279 619 l 1
 229 347 l 1
 250 347 l 2
 413.081 347 472.507 419.882 467 508 c 1
589 520 m 0
 589 395.481 466.442 337.314 387 316 c 1
 439.733 293.149 467.525 260.899 481 207 c 130
 494 155 l 2
 513.341 80.3991 535.458 44 620 44 c 1
 617 0 l 1
 603.902 -5.89398 581.019 -15 545 -15 c 0
 344.662 -15 435.133 214.298 329 280 c 128
 315 288.667 296.333 293 273 293 c 2
 223 293 l 1
 181 64 l 2
 179.533 53.7341 184.243 47 199 47 c 1
 257 43 l 1
 257 2 l 1
 -3 2 l 1
 -3 43 l 1
 54 47 l 2
 67.3333 47.6667 75.3333 53.6667 78 65 c 2
 180 603 l 2
 181.498 614.984 176.4 621 162 621 c 1
 107 625 l 1
 107 666 l 1
 374 666 l 2
 561.341 666 589 578.4 589 520 c 0
EndSplineSet
EndChar

StartChar: S
Encoding: 83 83 54
Width: 520
Flags: HW
LayerCount: 2
Fore
SplineSet
89 469 m 0
 89 599.8 196.688 687 348 687 c 0
 422.139 687 487.569 665.715 513 653 c 1
 480 498 l 1
 421 498 l 1
 424 599 l 2
 424 610.941 383.32 636 336 636 c 0
 265.407 636 189 585.318 189 501 c 0
 189 450.669 236.875 415.08 284 392.5 c 130
 328 372 l 1
 378.983 346.509 466 305.012 466 210 c 0
 466 122.4 402.673 -9 190 -9 c 0
 84.6564 -9 11.7334 37.3066 0 42 c 1
 33 202 l 1
 101 202 l 1
 90 88 l 1
 90 66.7391 183.331 45 203 45 c 0
 283.697 45 363 95.9967 363 190 c 0
 363 236.047 320.269 270.975 267 296.5 c 130
 225 317 l 2
 176.529 341.236 89 382.985 89 469 c 0
EndSplineSet
EndChar

StartChar: T
Encoding: 84 84 55
Width: 585
Flags: HW
LayerCount: 2
Fore
SplineSet
618 518 m 1
 556 518 l 1
 559 605 l 2
 559.667 618.333 553.333 625 540 625 c 2
 412 625 l 1
 308 65 l 2
 306.279 52.955 312.927 48 327 48 c 1
 383 44 l 1
 383 3 l 1
 124 3 l 1
 124 44 l 1
 182 48 l 2
 192.77 48 202.734 54.8723 204 65 c 2
 308 625 l 1
 183 625 l 2
 170.333 625 162.333 618.333 159 605 c 1
 128 518 l 1
 66 518 l 1
 95 670 l 1
 648 670 l 1
 618 518 l 1
EndSplineSet
EndChar

StartChar: U
Encoding: 85 85 56
Width: 707
Flags: HW
LayerCount: 2
Fore
SplineSet
205 176 m 0
 205 112.8 239.15 53 345 53 c 0
 480.586 53 516.882 158.898 533 251 c 1
 603 605 l 2
 604.625 617.996 598.36 623 584 623 c 1
 528 627 l 1
 528 668 l 1
 754 668 l 1
 754 627 l 1
 690 624 l 2
 685.6 624 669.795 622.156 668 606 c 1
 591 216 l 1
 550.878 -0.658989 380.529 -13 315 -13 c 0
 212.049 -13 98 21.6 98 160 c 0
 98 170.347 99.4027 202.182 110 264 c 1
 179 603 l 1
 180.624 615.996 174.36 621 160 621 c 1
 105 625 l 1
 105 666 l 1
 364 666 l 1
 364 625 l 1
 305 621 l 2
 300.6 621 284.795 619.156 283 603 c 1
 215 264 l 1
 205.986 211.72 205 184.758 205 176 c 0
EndSplineSet
EndChar

StartChar: V
Encoding: 86 86 57
Width: 643
Flags: HW
LayerCount: 2
Fore
SplineSet
663 623 m 1
 318 -16 l 1
 243 -16 l 1
 146 607 l 2
 144.205 623.156 130.432 625 124 625 c 2
 86 626 l 1
 86 667 l 1
 313 667 l 1
 313 626 l 1
 271 625 l 2
 257.003 625 249.589 621.114 251 607 c 2
 325 124 l 1
 579 607 l 1
 585.059 621.138 576.291 625 564 625 c 2
 516 626 l 1
 516 667 l 1
 719 667 l 1
 719 626 l 1
 663 623 l 1
EndSplineSet
EndChar

StartChar: W
Encoding: 87 87 58
Width: 926
Flags: HW
LayerCount: 2
Fore
SplineSet
275 625 m 2
 263.6 625 256 621.4 256 607 c 1
 291 173 l 1
 525 671 l 1
 606 671 l 1
 656 167 l 1
 859 607 l 2
 864.333 619 858 625.333 840 626 c 2
 796 627 l 1
 796 668 l 1
 1004 668 l 1
 1004 627 l 1
 940 623 l 1
 641 -16 l 1
 578 -16 l 1
 520 518 l 1
 270 -16 l 1
 201 -16 l 1
 151 607 l 1
 151 621.4 142.2 625 129 625 c 2
 88 626 l 1
 88 667 l 1
 318 667 l 1
 318 626 l 1
 275 625 l 2
EndSplineSet
EndChar

StartChar: X
Encoding: 88 88 59
Width: 632
Flags: HW
LayerCount: 2
Fore
SplineSet
618 625 m 2
 609.2 625 599.774 617.661 596 612 c 2
 376 362 l 1
 506 64 l 2
 509.556 55.9988 513.662 51 524 51 c 2
 578 48 l 1
 578 7 l 1
 320 7 l 1
 320 48 l 1
 383 51 l 2
 394.2 51 401.027 59.6029 397 69 c 2
 308 278 l 1
 120 69 l 1
 112.144 62.4531 111.114 51 128 51 c 2
 188 48 l 1
 188 7 l 1
 -44 7 l 1
 -44 48 l 1
 3 51 l 2
 12.2558 51 20.7589 57.6384 25 64 c 1
 274 342 l 1
 155 612 l 2
 153.88 615.36 151.6 625 138 625 c 2
 83 628 l 1
 83 669 l 1
 342 669 l 1
 342 628 l 1
 278 625 l 2
 266.8 625 259.973 616.397 264 607 c 2
 346 420 l 1
 509 607 l 2
 513 611 520.128 625 501 625 c 1
 454 628 l 1
 454 669 l 1
 680 669 l 1
 680 628 l 1
 618 625 l 2
EndSplineSet
EndChar

StartChar: Y
Encoding: 89 89 60
Width: 639
Flags: HW
LayerCount: 2
Fore
SplineSet
544 618.5 m 128
 544 621.8 541.25 624 533 624 c 2
 471 627 l 1
 471 668 l 1
 711 668 l 1
 711 627 l 1
 654 625 l 2
 644.4 625 633.7 615.7 630 612 c 2
 377 283 l 1
 336 69 l 2
 333 58.4995 339.885 52 354 52 c 1
 410 48 l 1
 410 7 l 1
 150 7 l 1
 150 48 l 1
 208 52 l 2
 219.384 52 227.56 59.2403 230 69 c 2
 271 275 l 1
 160 612 l 2
 158.86 615.42 156.4 625 142 625 c 2
 86 628 l 1
 86 669 l 1
 344 669 l 1
 344 628 l 1
 281 625 l 2
 270.816 625 264.286 617.857 267 607 c 2
 349 348 l 1
 541 607 l 1
 544 616 544 616.2 544 618.5 c 128
EndSplineSet
EndChar

StartChar: Z
Encoding: 90 90 61
Width: 562
Flags: HW
LayerCount: 2
Fore
SplineSet
585 625 m 1
 115 53 l 1
 386 53 l 2
 398.667 53 406.667 59.6667 410 73 c 2
 439 184 l 1
 506 184 l 1
 472 -1 l 1
 -23 -1 l 1
 -15 42 l 1
 454 617 l 1
 221 617 l 2
 207.048 617 201.583 610.624 199 599 c 2
 172 512 l 1
 104 512 l 1
 136 670 l 1
 594 670 l 1
 585 625 l 1
EndSplineSet
EndChar

StartChar: bracketleft
Encoding: 91 91 62
Width: 420
Flags: HW
LayerCount: 2
Fore
SplineSet
308 661 m 1
 160 -85 l 1
 312 -85 l 1
 312 -131 l 1
 55 -131 l 1
 222 708 l 1
 471 708 l 1
 471 662 l 1
 308 661 l 1
EndSplineSet
EndChar

StartChar: backslash
Encoding: 92 92 63
Width: 488
Flags: HW
LayerCount: 2
Fore
SplineSet
424 -92 m 1
 0 671 l 1
 63 671 l 1
 487 -92 l 1
 424 -92 l 1
EndSplineSet
EndChar

StartChar: bracketright
Encoding: 93 93 64
Width: 420
Flags: HW
LayerCount: 2
Fore
SplineSet
208 -131 m 1
 -41 -131 l 1
 -41 -84 l 1
 123 -84 l 1
 270 662 l 1
 118 662 l 1
 118 707 l 1
 375 707 l 1
 208 -131 l 1
EndSplineSet
EndChar

StartChar: asciicircum
Encoding: 94 94 65
Width: 342
Flags: HW
LayerCount: 2
Fore
SplineSet
330 550 m 1
 248 642 l 1
 128 550 l 1
 59 550 l 1
 224 719 l 1
 302 719 l 1
 400 550 l 1
 330 550 l 1
EndSplineSet
EndChar

StartChar: glyph66
Encoding: 95 95 66
Width: 303
Flags: HW
LayerCount: 2
Fore
SplineSet
225 -153 m 1
 -78 -153 l 1
 -64 -88 l 1
 238 -88 l 1
 225 -153 l 1
EndSplineSet
EndChar

StartChar: grave
Encoding: 96 96 67
Width: 393
Flags: HW
LayerCount: 2
Fore
SplineSet
89 686 m 0
 89 703.9 97.8 728 133 728 c 0
 162.4 728 172.924 716.344 182 705 c 2
 315 549 l 1
 256 550 l 1
 111 645 l 2
 98.0659 652.76 89 665.451 89 686 c 0
EndSplineSet
EndChar

StartChar: a
Encoding: 97 97 68
Width: 520
Flags: HW
LayerCount: 2
Fore
SplineSet
135 175 m 0
 135 119.776 149.443 59 210 59 c 0
 231.8 59 272.154 72.1538 319 119 c 1
 371 392 l 1
 371 398.505 346.931 444 335 444 c 0
 175 444 135 274.241 135 175 c 0
417 97 m 0
 417 70 425.4 52 459 52 c 0
 465.6 52 485.482 56.8706 492 58.5 c 130
 510.5 63 l 130
 516.167 64.3333 520 65 522 65 c 1
 518 30 l 1
 497.5 21.5 l 130
 468.047 9.14895 418.048 -8 391 -8 c 0
 356.054 -8 327.496 2.06853 324 58 c 1
 290.558 27.5984 240 -8 184 -8 c 0
 81.1832 -8 43 70.8976 43 168 c 0
 43 319.409 138.193 491 326 491 c 0
 360.8 491 397.824 472.176 413 457 c 1
 427 480 l 1
 495 480 l 1
 493.667 476.667 492.167 472.333 490.5 467 c 130
 481 436 l 130
 479.667 431.333 479 428 479 426 c 2
 442.5 258 l 130
 425.934 178.481 417 112.918 417 97 c 0
EndSplineSet
EndChar

StartChar: b
Encoding: 98 98 69
Width: 492
Flags: HW
LayerCount: 2
Fore
SplineSet
202 38 m 0
 290.848 38 360 186.675 360 306 c 0
 360 393.154 315.395 426 291 426 c 0
 245.8 426 191.817 388.514 178 377 c 1
 123 75 l 1
 130.077 62.6154 158.166 38 202 38 c 0
324 492 m 0
 431.931 492 461.237 379.35 459 310 c 1
 459 193.423 388.696 -9 181 -9 c 0
 117.4 -9 62.3106 10.6619 22 36 c 1
 140 669 l 1
 51 677 l 1
 51 707 l 1
 207 736 l 1
 246 736 l 1
 189 434 l 1
 216.8 459.661 270 492 324 492 c 0
EndSplineSet
EndChar

StartChar: c
Encoding: 99 99 70
Width: 435
Flags: HW
LayerCount: 2
Fore
SplineSet
303 498 m 0
 349.79 498 405.125 479.247 402 423 c 1
 402 384.096 371.224 364.759 328 361 c 1
 271 438 l 1
 173.008 434.231 134 292.604 134 192 c 0
 134 137.45 151.2 61 220 61 c 0
 279.248 61 333.861 107.249 384 155 c 1
 384 93 l 1
 297.557 6.55737 231.372 -4 190 -4 c 0
 83.1924 -4 38 76.4185 38 180 c 256
 38 363.078 171.742 498 303 498 c 0
EndSplineSet
EndChar

StartChar: d
Encoding: 100 100 71
Width: 525
Flags: HW
LayerCount: 2
Fore
SplineSet
315 490 m 0
 347.105 490 376.274 475.954 388 474 c 1
 421 666 l 1
 331 674 l 1
 331 704 l 1
 485 733 l 1
 526 733 l 1
 415 85 l 2
 412.528 67.6945 416.033 41 450 41 c 256
 452 41 456.333 41.8333 463 43.5 c 130
 484.5 49 l 130
 492.167 51 499.333 52.6667 506 54 c 2
 519 57 l 1
 519 20 l 1
 494.552 10.2206 428.966 -12 390 -12 c 0
 331.6 -12 317 17.6 317 62 c 1
 260.174 0.802885 205 -11 177 -11 c 0
 64.2 -11 36 87.0484 36 166 c 0
 36 327.193 143.393 490 315 490 c 0
130 169 m 0
 130 76.8922 172.645 47 206 47 c 0
 254 47 311.815 109.633 326 126 c 1
 374 391 l 2
 374 395.4 337.794 444 312 444 c 0
 212.021 444 130 319.229 130 169 c 0
EndSplineSet
EndChar

StartChar: e
Encoding: 101 101 72
Width: 434
Flags: HW
LayerCount: 2
Fore
SplineSet
143 259 m 1
 220.579 264.005 335.791 321.287 328 394 c 1
 328 419.376 308.857 445 276 445 c 0
 214.947 445 159.882 339.188 143 259 c 1
299 494 m 0
 372.651 494 415.134 448.997 419 391 c 1
 419 275.247 233.87 224.306 138 221 c 1
 137.005 212.044 135 189.494 135 176 c 0
 135 103.925 172.2 52 228 52 c 0
 280.614 52 341.898 99.9109 397 148 c 1
 397 86 l 1
 304.393 0.00770927 224.869 -6 195 -6 c 0
 87.5697 -6 39 68.9718 39 174 c 0
 39 328.888 155.716 494 299 494 c 0
EndSplineSet
EndChar

StartChar: f
Encoding: 102 102 73
Width: 321
Flags: HW
LayerCount: 2
Fore
SplineSet
354 739 m 0
 407.62 739 451.31 710.757 440 674 c 1
 440 640.473 410.054 626.562 378 623 c 1
 300 685 l 1
 267.399 658.919 234.395 538.734 228 462 c 1
 350 462 l 1
 350 413 l 1
 219 413 l 1
 218.333 405.667 216.833 392.833 214.5 374.5 c 130
 195 232.5 l 129
 171.5 81.5 l 129
 158.375 3.94536 140.481 -60.3956 81.5 -134.5 c 128
 48.6204 -175.81 0.2 -217 -54 -217 c 0
 -110.938 -217 -115 -170.26 -115 -169 c 0
 -115 -143.053 -104.789 -132.756 -90 -122 c 1
 12 -148 l 1
 45.0272 -107.351 69.8161 -21.6507 83 68 c 1
 101.239 174.395 107.976 259.577 131 410 c 1
 54 403 l 1
 54 442 l 1
 140 470 l 1
 152.054 548.354 208.593 739 354 739 c 0
EndSplineSet
EndChar

StartChar: g
Encoding: 103 103 74
Width: 439
Flags: HW
LayerCount: 2
Fore
SplineSet
187 -180 m 0
 287.849 -180 317.639 -115.336 320 -87 c 1
 320 -50.4 290.195 -35.0529 270 -26 c 2
 145 30 l 1
 98.9079 19.98 66 -8.12501 66 -64 c 0
 66 -111.007 103.389 -180 187 -180 c 0
201 203 m 0
 262.605 203 305.978 287.463 309 360 c 1
 309 434.309 275.4 451 253 451 c 0
 206.547 451 146 379.519 146 284 c 0
 146 219.2 179 203 201 203 c 0
248 494 m 0
 287.115 494 323.956 480.522 345 470 c 1
 480 470 l 1
 480 424 l 1
 391 421 l 1
 400.039 396.142 403 374.813 403 355 c 0
 403 228.398 302.742 167 188 167 c 1
 180.49 149.476 179 128.6 179 119 c 128
 179 114.333 179.333 111 180 109 c 1
 313 48 l 2
 357.419 27.8095 412 5.18128 412 -58 c 256
 412 -139.187 294.563 -216 161 -216 c 0
 43.1188 -216 -29 -158.4 -29 -72 c 0
 -29 9.6424 55.3488 48.4496 102 64 c 1
 97.2691 90.0201 111.463 149.463 140 178 c 1
 100.08 193.968 48 226 48 298 c 0
 48 393.153 121.509 494 248 494 c 0
EndSplineSet
EndChar

StartChar: h
Encoding: 104 104 75
Width: 523
Flags: HW
LayerCount: 2
Fore
SplineSet
460 40 m 0
 478.344 40 484.838 47.0701 522 58 c 1
 521 24 l 1
 464.5 4.5 l 130
 450.355 -0.214842 413.791 -11 389 -11 c 0
 354.284 -11 309.626 3.83891 317 53 c 1
 378 347 l 2
 388.127 395.104 348.955 426 324 426 c 0
 297 426 234.163 397.986 189 350 c 1
 116 0 l 1
 25 0 l 1
 162 667 l 1
 74 675 l 1
 74 705 l 1
 230 734 l 1
 270 734 l 1
 203 412 l 1
 251.873 464.131 325.302 490 381 490 c 0
 452.43 490 492.923 446.209 474 357 c 2
 419 88 l 1
 413.58 50.061 445.113 40 460 40 c 0
EndSplineSet
EndChar

StartChar: i
Encoding: 105 105 76
Width: 266
Flags: HW
LayerCount: 2
Fore
SplineSet
263 28 m 1
 242.5 19.5 l 130
 230.786 14.5875 169 -11 120 -11 c 0
 57.5274 -11 43.5666 32.5439 53 86 c 2
 116 424 l 1
 31 433 l 1
 31 461 l 1
 181 492 l 1
 222 492 l 1
 147 93 l 1
 143.873 61.7332 162.6 43 186 43 c 0
 194.5 43 208.079 45.8972 228.5 53 c 130
 250 60.5 l 130
 256.667 62.8333 261.333 64.3333 264 65 c 1
 263 28 l 1
202 693 m 0
 233.7 693 256.439 674.609 260 639 c 1
 260 606 235.025 584 201 584 c 0
 152.2 584 140 617 140 639 c 0
 140 660.6 159.4 693 202 693 c 0
EndSplineSet
EndChar

StartChar: j
Encoding: 106 106 77
Width: 272
Flags: HW
LayerCount: 2
Fore
SplineSet
-58 -225 m 0
 -97.6 -225 -124 -204.2 -124 -173 c 0
 -124 -150.979 -111.818 -139.545 -99 -131 c 1
 1 -158 l 1
 20.3 -138.7 43.5477 -64.6819 51 -15 c 1
 126 422 l 1
 43 431 l 1
 43 459 l 1
 193 490 l 1
 230 490 l 1
 160 80 l 2
 146.91 1.46103 100.137 -155.728 3 -209.5 c 128
 -15.6667 -219.833 -36 -225 -58 -225 c 0
205 693 m 256
 251.842 693 265 657.886 265 636 c 0
 265 611.45 241.4 582 206 582 c 0
 170.775 582 145 604 145 637 c 0
 145 670.6 167.6 693 205 693 c 256
EndSplineSet
EndChar

StartChar: k
Encoding: 107 107 78
Width: 508
Flags: HW
LayerCount: 2
Fore
SplineSet
424 486 m 0
 471.8 486 487 455.587 487 434 c 0
 487 410.218 466.118 384.469 421 369 c 1
 387 405 l 1
 296.5 329 l 129
 271 306 l 1
 275 298 279.5 287.667 284.5 275 c 130
 300.5 234.5 l 130
 326.402 168.984 384.8 44 441 44 c 0
 453 44 477.96 48.32 501 56 c 1
 497 22 l 1
 458.411 2.70564 400.2 -11 376 -11 c 0
 316.44 -11 287.82 54.7502 284.5 61 c 130
 212.5 214 l 130
 207.5 225.333 203.333 234.333 200 241 c 1
 155 200 l 1
 114 -3 l 1
 23 -3 l 1
 155 664 l 1
 68 672 l 1
 68 702 l 1
 222 731 l 1
 262 731 l 1
 170 267 l 1
 331 433 l 1
 377.631 479.631 397.827 486 424 486 c 0
EndSplineSet
EndChar

StartChar: l
Encoding: 108 108 79
Width: 265
Flags: HW
LayerCount: 2
Fore
SplineSet
183 41 m 0
 203.089 41 253.342 58 261 58 c 1
 263 25 l 1
 242 17 l 130
 186.645 -3.75796 149.2 -12 126 -12 c 0
 65.8125 -12 43 16.4 43 59 c 0
 43 69 43.6667 80.6667 45 94 c 1
 154 665 l 1
 66 673 l 1
 66 703 l 1
 222 732 l 1
 260 732 l 1
 139 95 l 1
 135.944 64.4401 156.6 41 183 41 c 0
EndSplineSet
EndChar

StartChar: m
Encoding: 109 109 80
Width: 775
Flags: HW
LayerCount: 2
Fore
SplineSet
459 403 m 1
 506.667 450.667 576.703 494 638 494 c 0
 688.4 494 738.215 459.804 722 369 c 1
 666 99 l 1
 661.074 69.4426 679.434 45 707 45 c 0
 715 45 724.333 46.8333 735 50.5 c 130
 769 62 l 1
 772 25 l 1
 744.5 13.5 l 130
 699.711 -5.28247 668.1 -11 649 -11 c 0
 591.9 -11 562.462 15.2832 570 58 c 1
 625 325 l 1
 637.088 397.528 610.2 422 588 422 c 0
 531.438 422 468.595 362.19 457 339 c 1
 387 2 l 1
 295 2 l 1
 361 328 l 2
 363 338.667 364 349.667 364 361 c 128
 364 387.3 355.2 424 320 424 c 0
 272.274 424 206.345 356.444 192 338 c 1
 122 3 l 1
 31 3 l 1
 116 427 l 1
 33 436 l 1
 33 464 l 1
 182 495 l 1
 223 495 l 1
 204 403 l 1
 236.993 434.161 305.4 493 373 493 c 0
 429.597 493 455.41 449.667 459 403 c 1
EndSplineSet
EndChar

StartChar: n
Encoding: 110 110 81
Width: 529
Flags: HW
LayerCount: 2
Fore
SplineSet
465 43 m 0
 486.286 43 514.065 51.1955 527 55 c 1
 526 20 l 1
 504.5 13 l 130
 451.145 -4.2114 416.1 -11 394 -11 c 0
 339.755 -11 307.273 8.36535 315 47 c 2
 376 354 l 1
 383.622 404.814 358.8 422 333 422 c 0
 304.6 422 237.082 385.962 191 337 c 1
 123 2 l 1
 30 2 l 1
 116 426 l 1
 33 435 l 1
 33 463 l 1
 183 494 l 1
 223 494 l 1
 205 401 l 1
 279.008 475.007 350.6 492 387 492 c 0
 469.29 492 488.673 442.19 476 365 c 1
 423 83 l 1
 419.192 56.3441 436.434 43 465 43 c 0
EndSplineSet
EndChar

StartChar: o
Encoding: 111 111 82
Width: 505
Flags: HW
LayerCount: 2
Fore
SplineSet
223 35 m 0
 311.868 35 369.436 167.081 374 304 c 1
 374 419.388 321.8 449 287 449 c 0
 202.884 449 135 315.998 135 182 c 0
 135 61.6844 187.8 35 223 35 c 0
296 491 m 0
 370.883 491 470.919 455.132 474 298 c 1
 474 140.209 365.974 -11 210 -11 c 0
 94.3308 -11 34 66.4108 34 176 c 0
 34 336.485 138.313 491 296 491 c 0
EndSplineSet
EndChar

StartChar: p
Encoding: 112 112 83
Width: 494
Flags: HW
LayerCount: 2
Fore
SplineSet
197 36 m 0
 293.986 36 357.077 162.229 362 305 c 1
 362 351.269 344.019 431 285 431 c 0
 234.66 431 184.722 378.482 178 374 c 1
 119 64 l 1
 126.101 60.4494 160.346 36 197 36 c 0
329 492 m 0
 433.8 492 454.844 397.231 460 307 c 1
 460 137.642 336.304 -11 177 -11 c 0
 163 -11 146.408 -10.4201 107 6 c 1
 76 -154 l 2
 74.3754 -166.997 81.5664 -171.89 96 -173 c 2
 158 -178 l 1
 158 -215 l 1
 -93 -215 l 1
 -93 -178 l 1
 -41 -173 l 2
 -27.6667 -172.333 -20.3333 -166 -19 -154 c 2
 93 425 l 1
 10 434 l 1
 10 462 l 1
 161 493 l 1
 200 493 l 1
 188 431 l 1
 216 449.5 l 130
 235.696 462.425 283.8 492 329 492 c 0
EndSplineSet
EndChar

StartChar: q
Encoding: 113 113 84
Width: 521
Flags: HW
LayerCount: 2
Fore
SplineSet
130 174 m 0
 130 118.961 148.27 52 209 52 c 0
 242.8 52 272.875 75.1944 293.5 92 c 130
 320 114 l 1
 376 388 l 1
 376 405.151 338.537 447 325 447 c 0
 208 447 130 319.823 130 174 c 0
308 490 m 0
 353.799 490 385.734 472.974 400 462 c 1
 423 491 l 1
 483 491 l 1
 359 -153 l 2
 357.375 -165.997 364.566 -170.89 379 -172 c 2
 441 -177 l 1
 441 -214 l 1
 190 -214 l 1
 190 -177 l 1
 243 -172 l 1
 255.802 -172 263.517 -165.172 266 -154 c 2
 307 54 l 1
 240.466 -0.792547 194.2 -10 166 -10 c 0
 67.7208 -10 30 73.9068 30 168 c 0
 30 323.664 142.438 490 308 490 c 0
EndSplineSet
EndChar

StartChar: r
Encoding: 114 114 85
Width: 374
Flags: HW
LayerCount: 2
Fore
SplineSet
350 496 m 0
 390.31 496 419.458 462.602 409 426 c 1
 409 382.732 379.026 376 322 376 c 1
 299 423 l 1
 256.1 406.317 180.873 318.333 169 256 c 1
 117 5 l 1
 25 5 l 1
 110 429 l 1
 27 438 l 1
 27 466 l 1
 177 497 l 1
 217 497 l 1
 197 396 l 1
 226.341 441.968 276.564 496 350 496 c 0
EndSplineSet
EndChar

StartChar: s
Encoding: 115 115 86
Width: 370
Flags: HW
LayerCount: 2
Fore
SplineSet
250 500 m 0
 295.817 500 349 483.843 349 431 c 0
 349 388.368 305.472 379 279 379 c 1
 235 440 l 2
 233.626 441.374 225.8 447 212 447 c 0
 176.511 447 155 416.592 155 381 c 0
 155 305.669 326 254.416 326 156 c 0
 326 83.5473 270.514 2 137 2 c 0
 49.8988 2 -1 41.257 -1 93 c 0
 -1 116.7 10.6 145 57 145 c 0
 77.98 145 98.1948 134.805 107 126 c 1
 88 78 l 1
 109.877 45.1846 137.513 43 154 43 c 0
 199.6 43 230 77.6859 230 124 c 0
 230 208.66 72 239.958 72 351 c 0
 72 448.844 170.545 500 250 500 c 0
EndSplineSet
EndChar

StartChar: t
Encoding: 116 116 87
Width: 299
Flags: HW
LayerCount: 2
Fore
SplineSet
137 -10 m 0
 67.85 -10 44 23.6 44 74 c 0
 44 81.8 43.9538 97.7692 47 113 c 2
 108 416 l 1
 46 411 l 1
 46 443 l 1
 121 476 l 1
 169 576 l 1
 230 576 l 1
 210 462 l 1
 348 462 l 1
 348 417 l 1
 202 418 l 1
 140 105 l 1
 135.764 77.4656 151.906 51 196 51 c 0
 239.317 51 277.757 67.5021 297 73 c 1
 297 33 l 1
 272.187 24.7291 192.731 -10 137 -10 c 0
EndSplineSet
EndChar

StartChar: u
Encoding: 117 117 88
Width: 526
Flags: HW
LayerCount: 2
Fore
SplineSet
461 42 m 0
 483.736 42 502.516 47.3094 522 59 c 1
 523 23 l 1
 493.777 6.76506 425.894 -11 389 -11 c 0
 331.45 -11 324 25.715 324 44.5 c 130
 324 62 l 1
 275.554 16.038 219 -12 149 -12 c 0
 60.6693 -12 40.0999 54.6324 49 111 c 1
 113 423 l 1
 30 432 l 1
 30 460 l 1
 180 491 l 1
 221 491 l 1
 142 110 l 1
 136.473 76.836 168.873 49 193 49 c 0
 247.8 49 304.084 86.9351 330 111 c 1
 405 479 l 1
 498 479 l 1
 418 95 l 2
 410.465 57.3232 434.986 42 461 42 c 0
EndSplineSet
EndChar

StartChar: v
Encoding: 118 118 89
Width: 461
Flags: HW
LayerCount: 2
Fore
SplineSet
410 490 m 0
 457.893 490 470.656 461.934 466 434 c 1
 466 410.183 460.099 389.783 452.5 373.5 c 130
 447 362 l 1
 376.35 231.404 280.853 112.536 232.5 56 c 130
 178 -7 l 1
 121 -7 l 1
 128.833 9.45 141 38.537 141 67 c 0
 141 74.0545 139.746 97.5551 138.5 115 c 130
 135 163 l 130
 115.6 424.902 100.927 426 84 426 c 2
 13 429 l 1
 13 457 l 1
 119 490 l 1
 170.993 490 195.874 469.132 200 421 c 2
 231 114 l 1
 277 177 l 130
 299.381 208.973 345.489 275.47 373 348 c 1
 354 469 l 1
 357.74 472.74 376.4 490 410 490 c 0
EndSplineSet
EndChar

StartChar: w
Encoding: 119 119 90
Width: 702
Flags: HW
LayerCount: 2
Fore
SplineSet
645 493 m 0
 696.446 493 699.849 445.252 706 435 c 1
 706 398.7 678.101 335.585 627.5 253.5 c 129
 581 181.5 l 129
 533.5 114 l 129
 442 -7 l 1
 380 -7 l 1
 359 334 l 1
 345 302.667 330.167 271.333 314.5 240 c 130
 267.5 149.5 l 129
 221 66.5 l 129
 178 -5 l 1
 105 -5 l 1
 114 18 l 1
 87 430 l 1
 12 438 l 1
 12 465 l 1
 133 499 l 1
 177 497 l 1
 198 123 l 1
 238 200.5 l 129
 280.5 288.5 l 129
 363 472 l 1
 438 480 l 1
 462 100 l 1
 497.575 145.629 550.101 219.832 608 353 c 1
 588 470 l 1
 600.014 482.013 619.816 493 645 493 c 0
EndSplineSet
EndChar

StartChar: x
Encoding: 120 120 91
Width: 527
Flags: HW
LayerCount: 2
Fore
SplineSet
473 493 m 0
 512.6 493 531.84 466.027 539 435 c 1
 539 411.556 525.254 384.493 485 372 c 1
 442 411 l 1
 397.502 393.885 346.478 316.59 317 245 c 1
 318.333 239 320.333 231.5 323 222.5 c 130
 332 193 l 130
 370.448 69.9663 403.2 51 421 51 c 0
 443.4 51 456.426 54.7418 477 64 c 1
 477 28 l 1
 448.031 12.4809 409.225 -4 361 -4 c 0
 290.8 -4 251.426 137.921 244 180 c 1
 212 122.5 l 130
 171.96 52.4294 119 -3 57 -3 c 0
 29.4 -3 -12 7.8 -12 51 c 0
 -12 97.4 32.3881 106.231 49 109 c 1
 90 69 l 1
 124.471 89.6824 180.473 149.657 217 248 c 1
 214.191 260.642 207.021 285.879 197.5 310 c 130
 182 349 l 130
 174.575 367.563 151.6 421 144 421 c 2
 57 432 l 1
 57 458 l 1
 59.6667 458.667 64.1667 460 70.5 462 c 130
 141.5 484.5 l 130
 147.684 486.382 166.7 492 173 492 c 0
 217 492 251.954 431.006 283 304 c 1
 325.344 388.687 393.918 493 473 493 c 0
EndSplineSet
EndChar

StartChar: y
Encoding: 121 121 92
Width: 497
Flags: HW
LayerCount: 2
Fore
SplineSet
133 485 m 0
 187 485 214.207 431.387 268 124 c 1
 420 488 l 1
 448 488 l 1
 531 461 l 1
 531 439 l 1
 474 413 l 1
 464.6 403.6 445.811 374.984 435.5 357.5 c 130
 413 317.5 l 130
 405.667 303.833 400 292 396 282 c 2
 340.5 152 l 129
 302.5 71 l 129
 238.173 -60.7929 136.645 -222 24 -222 c 0
 -47.85 -222 -68 -183.6 -68 -158 c 0
 -68 -122.747 -32.6926 -102 -1 -102 c 1
 57 -160 l 1
 88.1719 -157.922 117.819 -134.213 200 17 c 1
 200 20.3333 198.833 28.6667 196.5 42 c 130
 161 226 l 2
 147.879 291.605 113.703 423 106 423 c 2
 16 429 l 1
 16 453 l 1
 29 457 l 2
 35 459 41.8333 461.167 49.5 463.5 c 130
 74 471 l 130
 79.9274 472.824 121.2 485 133 485 c 0
EndSplineSet
EndChar

StartChar: z
Encoding: 122 122 93
Width: 444
Flags: HW
LayerCount: 2
Fore
SplineSet
183 497 m 0
 242.585 497 290.828 448 331 448 c 0
 336.281 448 343.653 450.29 352 454 c 1
 373 509 l 1
 448 470 l 1
 110 70 l 1
 193 91 l 1
 214.685 84.4946 262.773 60 292 60 c 256
 309 60 323.664 67.2564 334.5 80.5 c 130
 343 91 l 1
 288 152 l 1
 298.593 173.185 323.294 188 341 188 c 0
 375.453 188 395 156.321 395 128 c 0
 395 44.6 313.544 -11 252 -11 c 0
 193.5 -11 144.75 31 96 31 c 0
 86.4 31 78.4 29.4 72 23 c 1
 48 -23 l 1
 -21 14 l 1
 318 410 l 1
 230 391 l 1
 214.512 399.518 178.417 419 147 419 c 0
 118.703 419 100.12 401.24 96 393 c 1
 148 330 l 1
 145.766 325.531 127.2 299 96 299 c 0
 61.0102 299 43 328.707 43 356 c 0
 43 413.978 93.2559 497 183 497 c 0
EndSplineSet
EndChar

StartChar: braceleft
Encoding: 123 123 94
Width: 485
Flags: HW
LayerCount: 2
Fore
SplineSet
352 -106 m 1
 241.342 -106 161 -98.0949 161 10 c 128
 161 28.8 162.414 48.3887 174 104 c 130
 183.5 151 l 130
 207.206 272.161 149.609 277 94 277 c 2
 65 277 l 1
 73 322 l 1
 111 322 l 130
 331.961 322 158.51 655.314 406 697.5 c 128
 435.333 702.5 470.333 705 511 705 c 1
 503 661 l 1
 291.991 661 385.223 445.223 289 349 c 1
 263.528 325.12 229.48 308.535 185 298 c 1
 239.908 280.529 280 254.8 280 190 c 128
 280 172 278.93 153.309 268.5 100 c 130
 260 55 l 130
 244.635 -29.5055 264.753 -65 336 -65 c 130
 359 -65 l 1
 352 -106 l 1
EndSplineSet
EndChar

StartChar: glyph95
Encoding: 124 124 95
Width: 353
Flags: HW
LayerCount: 2
Fore
SplineSet
146 -257 m 1
 146 796 l 1
 206 796 l 1
 206 -257 l 1
 146 -257 l 1
EndSplineSet
EndChar

StartChar: glyph96
Encoding: 125 125 96
Width: 485
Flags: HW
LayerCount: 2
Fore
SplineSet
429 267 m 1
 376.337 267 307.151 273.405 278.5 196.5 c 128
 235.994 82.4054 266.924 -82.9666 97 -110 c 128
 67.6667 -114.667 32.6667 -117 -8 -117 c 1
 -1 -76 l 1
 215.305 -76 114.092 141.35 214 236 c 0
 229.6 251.6 257.297 272.025 318 288 c 1
 150.781 337.405 258.908 484.056 249 598 c 128
 245.405 639.343 206.278 652 169 652 c 130
 146 652 l 1
 154 693 l 1
 226.26 693 330.626 692.991 341.5 606 c 128
 353.852 507.187 282.522 374.069 337 326 c 1
 349.685 313.315 369.45 309 411 309 c 2
 440 309 l 1
 429 267 l 1
EndSplineSet
EndChar

StartChar: asciitilde
Encoding: 126 126 97
Width: 833
Flags: HW
LayerCount: 2
Fore
SplineSet
569 296 m 0
 606 296 658.362 304.054 754 371 c 1
 753 306 l 1
 660.203 239.716 600.248 238 568 238 c 0
 472.875 238 384.141 303 281 303 c 256
 210.35 303 128.759 247.427 99 226 c 1
 99 290 l 1
 145.956 323.666 212.4 360 288 360 c 0
 383.771 360 483.932 296 569 296 c 0
EndSplineSet
EndChar

StartChar: quoteleft
Encoding: 8216 8216 98
Width: 253
Flags: HW
LayerCount: 2
Fore
SplineSet
94 509 m 0
 94 588.6 179.681 671.011 229 708 c 1
 284 706 l 1
 247.5 670.5 l 130
 224.192 647.192 172 589.2 172 535 c 1
 233 535 l 1
 238.85 526.225 242 519.86 242 506 c 0
 242 474.3 210.65 436 168 436 c 256
 121.161 436 94 460.837 94 509 c 0
EndSplineSet
EndChar

StartChar: quoteright
Encoding: 8217 8217 99
Width: 253
Flags: HW
LayerCount: 2
Fore
SplineSet
214 701 m 0
 272.4 701 284.078 659.757 287 632 c 1
 287 551.6 204.32 467.99 155 431 c 1
 95 431 l 1
 132 466.5 l 130
 187.1 520.222 208 565.945 208 603 c 1
 146 603 l 1
 141.665 609.502 138 618.6 138 629 c 0
 138 661.6 168.4 701 214 701 c 0
EndSplineSet
EndChar

StartChar: quotedblleft
Encoding: 8220 8220 100
Width: 457
Flags: HW
LayerCount: 2
Fore
SplineSet
94 509 m 0
 94 588.6 179.681 671.011 229 708 c 1
 284 706 l 1
 247.5 670.5 l 130
 224.192 647.192 172 589.2 172 535 c 1
 233 535 l 1
 238.85 526.225 242 519.86 242 506 c 0
 242 474.3 210.65 436 168 436 c 256
 121.161 436 94 460.837 94 509 c 0
301 508 m 0
 301 588.4 383.185 672.389 432 709 c 1
 488 708 l 1
 452.5 672.5 l 130
 384.335 604.335 377 560.237 377 537 c 1
 439 537 l 1
 443.96 527.08 447 520.8 447 510 c 0
 447 477.45 417 438 372 438 c 0
 339.745 438 301 452 301 508 c 0
EndSplineSet
EndChar

StartChar: quotedblright
Encoding: 8221 8221 101
Width: 457
Flags: HW
LayerCount: 2
Fore
SplineSet
214 701 m 0
 272.4 701 284.078 659.757 287 632 c 1
 287 551.6 204.32 467.99 155 431 c 1
 95 431 l 1
 132 466.5 l 130
 187.1 520.222 208 565.945 208 603 c 1
 146 603 l 1
 141.665 609.502 138 618.6 138 629 c 0
 138 661.6 168.4 701 214 701 c 0
410 699 m 0
 436.639 699 482.567 688.078 486 628 c 1
 486 548.4 400.756 465.567 352 429 c 1
 294 429 l 1
 329.5 464.5 l 130
 398.021 533.021 405 576.71 405 601 c 1
 344 601 l 1
 336.6 608.4 335 620.416 335 629 c 0
 335 660.794 365.639 699 410 699 c 0
EndSplineSet
EndChar

StartChar: u0A81
Encoding: 2689 2689 102
Width: 11
Flags: HW
LayerCount: 2
Fore
SplineSet
17 707 m 1
 -38 661 l 1
 -73 707 l 1
 -18 752 l 1
 17 707 l 1
-83 542 m 0
 -171.8 542 -194 592.4 -194 626 c 0
 -194 666.667 -172.333 697.333 -129 718 c 1
 -91 668 l 1
 -117.093 660.172 -142 626.925 -142 600 c 0
 -142 584 -133.333 576 -116 576 c 0
 -39.3357 576 30.4846 641.276 51 690 c 1
 78 613 l 1
 35.8553 565.042 -30.5708 542 -83 542 c 0
EndSplineSet
AnchorPoint: "a" -196 511 mark 0
EndChar

StartChar: u0A82
Encoding: 2690 2690 103
Width: 11
Flags: HW
LayerCount: 2
Fore
SplineSet
-21 635 m 1
 13 591 l 1
 -40 547 l 1
 -73 591 l 1
 -21 635 l 1
EndSplineSet
AnchorPoint: "a" -156 511 basechar 0
EndChar

StartChar: u0A83
Encoding: 2691 2691 104
Width: 279
Flags: HW
LayerCount: 2
Fore
SplineSet
113 233 m 0
 113 261.084 141.098 284 163 284 c 256
 198.271 284 213.428 235.406 177 211.5 c 128
 166.333 204.5 156 201 146 201 c 0
 136 201 113 207.4 113 233 c 0
69 25 m 0
 69 51.7041 96.9668 75 119 75 c 256
 151.814 75 171.843 29.7808 132 4 c 128
 120.667 -3.33333 110.333 -7 101 -7 c 0
 89.8 -7 69 -0.6 69 25 c 0
EndSplineSet
EndChar

StartChar: u0A85
Encoding: 2693 2693 105
Width: 715
Flags: HWO
LayerCount: 2
Fore
SplineSet
556 0 m 0
 521.084 0 483 11.8 483 59 c 0
 483 68.3333 483.667 75.6667 485 81 c 2
 515 229 l 1
 500.5 229.5 463.297 226.951 440 261 c 1
 419 160 l 2
 410.212 117.733 332.351 72 256 72 c 0
 173.8 72 129.707 151.809 119 222 c 1
 81 231.333 62 253 62 287 c 0
 62 292.133 64.0312 347 112 347 c 0
 151.452 347 161.307 307.424 161.307 284.609 c 0
 161.307 282.196 161.197 279.971 161 278 c 1
 243.804 278 323 329.548 323 418 c 0
 323 431.924 322.087 440.567 319 456 c 1
 172 456 l 1
 154 510 l 1
 300 510 l 1
 348.779 487.487 352 429.2 352 409 c 0
 352 320.158 287.555 222 154 222 c 1
 158 184 197.086 124 243 124 c 0
 308.889 124 366.254 160.396 374 197 c 2
 425 438 l 1
 466 380 l 1
 447 294 l 1
 454.333 286 463.667 282 475 282 c 0
 486.4 282 507.554 286.435 532 309 c 1
 575 510 l 1
 617 452 l 1
 532 51 l 2
 531.482 49.0998 531.234 47.4401 531.234 46.0254 c 0
 531.234 42.0404 533.2 39.9989 536.622 39.9989 c 0
 547.71 39.9989 572.929 60.8583 583 81 c 1
 620 24 l 1
 604 8 582.667 0 556 0 c 0
EndSplineSet
EndChar

StartChar: u0A87
Encoding: 2695 2695 107
Width: 430
Flags: HW
LayerCount: 2
Back
SplineSet
378 534 m 4
 378 480.311 391 376.386 391 305 c 4
 391 184.037 369.295 92.5401 293 39 c 5
 263.01 21.006 221.355 2 171 2 c 4
 89.5307 2 35 55.0437 35 140 c 4
 35 181.034 46.76 266.88 137 312 c 5
 109 357.333 95 397 95 431 c 4
 95 480.57 127.074 510 181 510 c 6
 262 510 l 5
 266 456 l 5
 159 456 l 5
 144.522 442.729 136 424.469 136 399 c 4
 136 369.178 149.361 341.639 165 326 c 5
 186.662 333.646 209.751 337 238 337 c 6
 264 337 l 5
 261 279 l 5
 127.586 279 60 213.743 60 140 c 4
 60 84.4563 98.6359 43 160 43 c 4
 209.654 43 248.614 66.4744 276 85 c 5
 327.076 123.979 362 185.459 362 304 c 4
 362 365.897 348 519.1 348 543 c 4
 348 593.913 377.018 660 429 660 c 5
 417 604 l 5
 386.754 599.347 378 589.093 378 534 c 4
EndSplineSet
Fore
SplineSet
378 534 m 0
 378 476.093 391.108 368.029 391.114 292.235 c 0
 391.122 183.786 366.143 88.1016 293 39.5 c 0
 269.954 24.1863 221.355 2 171 2 c 0
 89.5307 2 35 55.0437 35 140 c 0
 35 181.034 46.76 266.88 137 312 c 1
 109 357.333 95 397 95 431 c 0
 95 480.57 127.074 510 181 510 c 2
 262 510 l 1
 266 456 l 1
 159 456 l 1
 144.522 442.729 136 424.469 136 399 c 0
 136 369.178 149.361 341.639 165 326 c 1
 186.662 333.646 209.751 337 238 337 c 2
 264 337 l 1
 261 279 l 1
 127.586 279 60 213.743 60 140 c 0
 60 84.4563 98.6359 43 160 43 c 0
 214 43 261 74 276 85 c 0
 326.179 121.798 362 185.459 362 304 c 0
 362 365.897 348 519.1 348 543 c 0
 348 593.913 377.018 660 429 660 c 1
 417 604 l 1
 386.754 599.347 378 589.093 378 534 c 0
EndSplineSet
EndChar

StartChar: u0A87.abvm
Encoding: 65539 -1 108
Width: 430
Flags: HW
LayerCount: 2
Fore
SplineSet
378 534 m 0
 378 480.311 391 376.386 391 305 c 0
 391 184.037 369.295 92.5401 293 39 c 1
 263.01 21.006 221.355 2 171 2 c 0
 89.5307 2 35 55.0437 35 140 c 0
 35 181.034 46.76 266.88 137 312 c 1
 109 357.333 95 397 95 431 c 0
 95 480.57 127.074 510 181 510 c 2
 262 510 l 1
 266 456 l 1
 159 456 l 1
 144.522 442.729 136 424.469 136 399 c 0
 136 369.178 149.361 341.639 165 326 c 1
 186.662 333.646 209.751 337 238 337 c 2
 264 337 l 1
 261 279 l 1
 127.586 279 60 213.743 60 140 c 0
 60 84.4563 98.6359 43 160 43 c 0
 209.654 43 248.614 66.4744 276 85 c 1
 327.076 123.979 362 185.459 362 304 c 0
 362 365.897 348 519.1 348 543 c 0
 348 593.913 377.018 660 429 660 c 1
 417 604 l 1
 386.754 599.347 378 589.093 378 534 c 0
274 666 m 1
 309 622 l 1
 255 578 l 1
 223 622 l 1
 274 666 l 1
EndSplineSet
EndChar

StartChar: u0A88
Encoding: 2696 2696 109
Width: 461
Flags: HW
LayerCount: 2
Back
SplineSet
471 546 m 1
 460.93 587.197 436.923 612.572 415.823 612.572 c 0
 395.572 612.572 378 589.196 378 534 c 0
 378 475.928 391.093 367.758 391.093 291.743 c 0
 391.093 215.687 381.195 98.4821 293 40 c 0
 268.263 23.5967 221.355 3 171 3 c 0
 89.5307 3 35 56.0437 35 141 c 0
 35 182.034 46.76 267.88 137 313 c 1
 109 358.333 95 398 95 432 c 0
 95 481.57 127.074 511 181 511 c 2
 262 511 l 1
 266 457 l 1
 159 457 l 1
 144.522 443.729 136 425.469 136 400 c 0
 136 370.178 149.361 342.639 165 327 c 1
 201.594 339.917 240 336 264 338 c 1
 261 280 l 1
 127.586 280 60 214.743 60 141 c 0
 60 85.4563 98.6359 44 160 44 c 0
 209.654 44 257.421 72.1058 276 86 c 0
 333.5 129 362 195 362 305 c 0
 362 366.897 348 520.1 348 544 c 0
 348 582.756 368.998 662.021 430.608 662.021 c 0
 476.612 662.021 487.601 589.795 490 555 c 1
 471 546 l 1
EndSplineSet
Fore
SplineSet
471 546 m 1
 456.225 606.445 439.2 608 418 608 c 0
 383.973 608 378 580.277 378 534 c 0
 378 480.311 391 376.386 391 305 c 0
 391 226.066 385.28 103.139 293 40 c 1
 263.01 22.006 221.355 3 171 3 c 0
 89.5307 3 35 56.0437 35 141 c 0
 35 182.034 46.76 267.88 137 313 c 1
 109 358.333 95 398 95 432 c 0
 95 481.57 127.074 511 181 511 c 2
 262 511 l 1
 266 457 l 1
 159 457 l 1
 144.522 443.729 136 425.469 136 400 c 0
 136 370.178 149.361 342.639 165 327 c 1
 193.531 337.07 219.819 338.124 244 338.1 c 0
 250.834 338.093 257.5 338 264 338 c 1
 261 280 l 1
 127.586 280 60 214.743 60 141 c 0
 60 85.4563 98.6359 44 160 44 c 0
 209.654 44 248.614 67.4744 276 86 c 1
 327.076 124.979 362 186.459 362 305 c 0
 362 366.897 348 520.1 348 544 c 0
 348 590.476 375.17 662 429 662 c 0
 449.4 662 463.203 663.039 480 609.5 c 128
 485.333 592.5 488.667 574.333 490 555 c 1
 471 546 l 1
EndSplineSet
EndChar

StartChar: u0A88.abvm
Encoding: 65540 -1 110
Width: 461
Flags: HW
LayerCount: 2
Fore
SplineSet
471 546 m 1
 456.225 606.445 439.2 608 418 608 c 0
 402.8 608 381.355 591.26 380 575 c 2
 378.5 550.5 l 130
 378.167 544.833 378 539.333 378 534 c 0
 378 480.311 391 376.386 391 305 c 0
 391 226.066 385.28 103.139 293 40 c 1
 263.01 22.006 221.355 3 171 3 c 0
 89.5307 3 35 56.0437 35 141 c 0
 35 182.034 46.76 267.88 137 313 c 1
 109 358.333 95 398 95 432 c 0
 95 481.57 127.074 511 181 511 c 2
 262 511 l 1
 266 457 l 1
 159 457 l 1
 144.522 443.729 136 425.469 136 400 c 0
 136 370.178 149.361 342.639 165 327 c 1
 186.662 334.646 209.751 338 238 338 c 2
 264 338 l 1
 261 280 l 1
 127.586 280 60 214.743 60 141 c 0
 60 85.4563 98.6359 44 160 44 c 0
 209.654 44 248.614 67.4744 276 86 c 1
 327.076 124.979 362 186.459 362 305 c 0
 362 366.897 348 520.1 348 544 c 0
 348 590.476 375.17 662 429 662 c 0
 449.4 662 463.203 663.039 480 609.5 c 128
 485.333 592.5 488.667 574.333 490 555 c 1
 471 546 l 1
274 666 m 1
 309 622 l 1
 255 578 l 1
 223 622 l 1
 274 666 l 1
EndSplineSet
EndChar

StartChar: u0A89
Encoding: 2697 2697 111
Width: 499
Flags: HW
LayerCount: 2
Fore
SplineSet
226 55 m 0
 322.303 55 371 123.268 371 187 c 0
 371 215.667 361.667 237.667 343 253 c 1
 318.371 240.686 282.361 236 247 236 c 1
 249 300 l 1
 362.642 300 427 356.413 427 414 c 0
 427 429.333 421.333 443.333 410 456 c 1
 289 456 l 1
 285 510 l 1
 371 510 l 2
 416.906 510 456 466.318 456 414 c 0
 456 399.622 447.303 349.82 425.5 318 c 128
 413.167 300 394.667 283 370 267 c 1
 390.677 241.729 407 207.921 407 167 c 0
 407 82.2055 336.512 1 219 1 c 0
 107.639 1 64 109.204 64 237 c 0
 64 271.667 67 305.667 73 339 c 1
 109.936 483.171 198.355 630 352 630 c 0
 430 630 461.639 597.436 482 554 c 1
 463 543 l 1
 439.578 597.652 401.215 590.198 367 594 c 1
 293.667 594 229.667 551.667 175 467 c 0
 124.333 388.333 99 305.667 99 219 c 0
 99 145.76 124.4 55 226 55 c 0
EndSplineSet
EndChar

StartChar: u0A89.abvm
Encoding: 65541 -1 112
Width: 499
Flags: HW
LayerCount: 2
Fore
SplineSet
226 55 m 0
 322.303 55 371 123.268 371 187 c 0
 371 215.667 361.667 237.667 343 253 c 1
 318.371 240.686 282.361 236 247 236 c 1
 249 300 l 1
 362.642 300 427 356.413 427 414 c 0
 427 429.333 421.333 443.333 410 456 c 1
 289 456 l 1
 285 510 l 1
 371 510 l 2
 416.906 510 456 466.318 456 414 c 0
 456 399.622 447.303 349.82 425.5 318 c 128
 413.167 300 394.667 283 370 267 c 1
 390.677 241.729 407 207.921 407 167 c 0
 407 82.2055 336.512 1 219 1 c 0
 107.639 1 64 109.204 64 237 c 0
 64 271.667 67 305.667 73 339 c 1
 109.936 483.171 198.355 630 352 630 c 0
 430 630 461.639 597.436 482 554 c 1
 463 543 l 1
 439.578 597.652 401.215 590.198 367 594 c 1
 293.667 594 229.667 551.667 175 467 c 0
 124.333 388.333 99 305.667 99 219 c 0
 99 145.76 124.4 55 226 55 c 0
365 765 m 1
 400 721 l 1
 347 677 l 1
 314 721 l 1
 365 765 l 1
EndSplineSet
EndChar

StartChar: u0A8A
Encoding: 2698 2698 113
Width: 663
Flags: HW
LayerCount: 2
Fore
SplineSet
219 1 m 0
 107.639 1 64 109.204 64 237 c 0
 64 271.667 67 305.667 73 339 c 1
 112.556 492.43 220.605 661 379 661 c 0
 506.94 661 567 578.558 567 492 c 0
 567 484.8 566.568 477.405 563 456 c 2
 478 51 l 2
 476 43.6667 478 40 484 40 c 0
 501.6 40 519.888 64.7755 528 81 c 1
 567 26 l 1
 553.583 12.583 526.561 1 499 1 c 0
 453.835 1 428 19.5124 428 59 c 0
 428 68.3333 428.667 75.6667 430 81 c 2
 520 510 l 2
 521.333 516 522 520.667 522 524 c 0
 522 577.618 461.063 619 399 619 c 0
 321.4 619 242.742 550.581 205 508 c 0
 147.912 442.946 103 318.462 103 216 c 0
 103 140.213 127.6 55 226 55 c 0
 322.303 55 371 123.268 371 187 c 0
 371 215.667 361.667 237.667 343 253 c 1
 318.371 240.686 282.361 236 247 236 c 1
 249 300 l 1
 362.642 300 427 356.413 427 414 c 0
 427 429.333 421.333 443.333 410 456 c 1
 289 456 l 1
 285 510 l 1
 371 510 l 2
 416.906 510 456 466.318 456 414 c 0
 456 399.622 447.303 349.82 425.5 318 c 128
 413.167 300 394.667 283 370 267 c 1
 390.677 241.729 407 207.921 407 167 c 0
 407 82.2055 336.512 1 219 1 c 0
EndSplineSet
EndChar

StartChar: u0A8A.abvm
Encoding: 65542 -1 114
Width: 663
Flags: HW
LayerCount: 2
Fore
SplineSet
219 1 m 0
 107.639 1 64 109.204 64 237 c 0
 64 271.667 67 305.667 73 339 c 1
 112.556 492.43 220.605 661 379 661 c 0
 506.94 661 567 578.558 567 492 c 0
 567 484.8 566.568 477.405 563 456 c 2
 478 51 l 2
 476 43.6667 478 40 484 40 c 0
 501.6 40 519.888 64.7755 528 81 c 1
 567 26 l 1
 553.583 12.583 526.561 1 499 1 c 0
 453.835 1 428 19.5124 428 59 c 0
 428 68.3333 428.667 75.6667 430 81 c 2
 520 510 l 2
 521.333 516 522 520.667 522 524 c 0
 522 577.618 461.063 619 399 619 c 0
 321.4 619 242.742 550.581 205 508 c 0
 147.912 442.946 103 318.462 103 216 c 0
 103 140.213 127.6 55 226 55 c 0
 322.303 55 371 123.268 371 187 c 0
 371 215.667 361.667 237.667 343 253 c 1
 318.371 240.686 282.361 236 247 236 c 1
 249 300 l 1
 362.642 300 427 356.413 427 414 c 0
 427 429.333 421.333 443.333 410 456 c 1
 289 456 l 1
 285 510 l 1
 371 510 l 2
 416.906 510 456 466.318 456 414 c 0
 456 399.622 447.303 349.82 425.5 318 c 128
 413.167 300 394.667 283 370 267 c 1
 390.677 241.729 407 207.921 407 167 c 0
 407 82.2055 336.512 1 219 1 c 0
618 684 m 1
 653 640 l 1
 600 596 l 1
 567 640 l 1
 618 684 l 1
EndSplineSet
EndChar

StartChar: u0A8B
Encoding: 2699 2699 115
Width: 741
Flags: HW
LayerCount: 2
Fore
SplineSet
564 291 m 1
 635.123 291 676 276.775 676 191 c 0
 676 141.667 663 97.3333 637 58 c 1
 605.946 14.5243 560.357 1 487 1 c 1
 483.695 7.60901 482 71.4 482 89 c 1
 508.667 77 532 71 552 71 c 0
 615.112 71 641 124.036 641 167 c 0
 641 217.4 599.6 230 572 230 c 0
 551.333 230 531.667 224.333 513 213 c 1
 540 341 l 1
 367 240 l 1
 327 51 l 2
 325 43.6667 327 40 333 40 c 0
 349.664 40 370.27 65.5395 378 81 c 1
 417 26 l 1
 398.2 7.2 365.123 1 348 1 c 0
 302.835 1 277 19.5124 277 59 c 0
 277 68.3333 277.667 75.6667 279 81 c 2
 303 194 l 1
 296 194 l 1
 89 72 l 1
 68 124 l 1
 286 254 l 1
 231 396 l 1
 222.756 407.908 200.642 419 137 419 c 2
 122 419 l 130
 118 419 114.667 418.667 112 418 c 1
 103 474 l 1
 220 474 l 2
 258.8 474 306.69 295.347 317 260 c 1
 370 510 l 1
 412 452 l 1
 382 313 l 1
 552 415 l 1
 556.731 456.4 582.111 493 617 493 c 256
 656.2 493 666 469.625 666 452 c 0
 666 415.6 625.756 381.19 579 361 c 1
 564 291 l 1
EndSplineSet
EndChar

StartChar: u0A95
Encoding: 2709 2709 122
Width: 491
Flags: HW
LayerCount: 2
Fore
SplineSet
207 415 m 0
 207 472.896 253.068 520 320 520 c 0
 343.6 520 356.56 517.48 379 510 c 1
 393 456 l 1
 374.333 459.333 362.5 461 357.5 461 c 130
 345 461 l 2
 270.55 461 256 422 256 396 c 0
 256 368.667 268.667 343.333 294 320 c 1
 443 372 l 1
 460 324 l 1
 355 288 l 1
 387.319 265.257 411 221.074 411 170 c 0
 411 80.7142 347.537 1 241 1 c 0
 122.2 1 69.6584 69.3736 43 200 c 1
 65 209 l 1
 86.5212 116.585 124.566 56 231 56 c 0
 315.178 56 368 114.889 368 179 c 0
 368 197.6 363.129 238.835 316 272 c 1
 172 222 l 1
 155 272 l 1
 262 308 l 1
 211.254 351.496 207 396.385 207 415 c 0
EndSplineSet
AnchorPoint: "a" 35 525.5 basechar 0
EndChar

StartChar: u0A95.half
Encoding: 65543 -1 123
Width: 491
Flags: HW
LayerCount: 2
Fore
SplineSet
207 415 m 0
 207 472.896 253.068 520 320 520 c 0
 343.6 520 356.56 517.48 379 510 c 1
 393 456 l 1
 374.333 459.333 362.5 461 357.5 461 c 130
 345 461 l 2
 270.55 461 256 422 256 396 c 0
 256 368.667 268.667 343.333 294 320 c 1
 431 315 l 1
 452 287 l 1
 355 288 l 1
 387.319 265.257 411 221.074 411 170 c 0
 411 80.7142 347.537 1 241 1 c 0
 122.2 1 69.6584 69.3736 43 200 c 1
 65 209 l 1
 86.5212 116.585 124.566 56 231 56 c 0
 315.178 56 368 114.889 368 179 c 0
 368 197.6 363.129 238.835 316 272 c 1
 172 222 l 1
 155 272 l 1
 262 308 l 1
 211.254 351.496 207 396.385 207 415 c 0
EndSplineSet
Ligature2: "'half' Half Forms in Gujarati lookup 4 subtable" u0A95 u0ACD

EndChar

StartChar: u0A95.pres
Encoding: 65544 -1 124
Width: 831
Flags: HW
LayerCount: 2
Fore
SplineSet
580 1 m 0
 510 1 442.717 23.6081 405 122 c 1
 389.749 65.3521 339.4 1 241 1 c 0
 122.2 1 69.6584 69.3736 43 200 c 1
 65 209 l 1
 86.5212 116.585 124.566 56 231 56 c 0
 315.178 56 368 114.889 368 179 c 0
 368 197.6 363.129 238.835 316 272 c 1
 172 222 l 1
 155 272 l 1
 262 308 l 1
 211.254 351.496 207 396.385 207 415 c 0
 207 472.896 253.068 520 320 520 c 0
 343.6 520 356.56 517.48 379 510 c 1
 393 456 l 1
 374.333 459.333 362.5 461 357.5 461 c 130
 345 461 l 2
 270.55 461 256 422 256 396 c 0
 256 368.667 268.667 343.333 294 320 c 1
 443 372 l 1
 460 324 l 1
 355 288 l 1
 369.521 277.714 402.182 251.548 410 189 c 1
 432.019 107.399 474.045 56 570 56 c 0
 654.177 56 707 114.889 707 179 c 0
 707 197.6 702.129 238.835 655 272 c 1
 511 222 l 1
 495 272 l 1
 601 308 l 1
 550.254 351.496 546 396.385 546 415 c 0
 546 472.896 592.068 520 659 520 c 0
 682.6 520 695.56 517.48 718 510 c 1
 732 456 l 1
 713.333 459.333 701.5 461 696.5 461 c 130
 684 461 l 2
 609.55 461 595 422 595 396 c 0
 595 368.667 607.667 343.333 633 320 c 1
 782 372 l 1
 799 324 l 1
 694 288 l 1
 726.319 265.257 750 221.074 750 170 c 0
 750 80.7142 686.537 1 580 1 c 0
EndSplineSet
Ligature2: "'pres' Pre Base Substitutions in Gujarati lookup 5 subtable" u0A95.half u0A95

EndChar

StartChar: u0A95.vatu
Encoding: 65545 -1 125
Width: 491
Flags: HW
LayerCount: 2
Fore
SplineSet
231 56 m 0
 316.858 56 368 117.089 368 177 c 0
 368 198.333 362 218 350 236 c 1
 204 107 l 1
 173 140 l 1
 313 271 l 1
 172 222 l 1
 155 272 l 1
 262 308 l 1
 211.254 351.496 207 396.385 207 415 c 0
 207 472.896 253.068 520 320 520 c 0
 343.6 520 356.56 517.48 379 510 c 1
 393 456 l 1
 374.333 459.333 362.5 461 357.5 461 c 130
 345 461 l 2
 270.55 461 256 422 256 396 c 0
 256 368.667 268.667 343.333 294 320 c 1
 443 372 l 1
 460 324 l 1
 355 288 l 1
 387.319 265.257 411 221.074 411 170 c 0
 411 80.7142 347.537 1 241 1 c 0
 122.2 1 69.6584 69.3736 43 200 c 1
 65 209 l 1
 86.5212 116.585 124.566 56 231 56 c 0
EndSplineSet
Ligature2: "'vatu' Vattu Variants in Gujarati lookup 3 subtable" u0A95 u0ACD_u0AB0

EndChar

StartChar: u0A96.half
Encoding: 65547 -1 128
Width: 396
Flags: HW
LayerCount: 2
Fore
SplineSet
175 510 m 0
 204.177 510 248 497.102 248 438 c 2
 248 422 l 1
 245.333 409.333 243.667 399.667 243 393 c 2
 186 122 l 2
 181.798 102.392 195.383 94 214 94 c 0
 244.4 94 274.6 109.415 290 126 c 1
 360 456 l 1
 400 398 l 1
 378 291 l 1
 380 285 387.333 282 400 282 c 0
 421.534 282 453.312 292.437 472 314 c 1
 455 236 l 1
 445.667 234.667 438.667 234 434 234 c 0
 407.333 234 387 245 373 267 c 1
 346 140 l 2
 335.67 88.3484 286.509 52 232 52 c 256
 174.922 52 140 88.4794 140 143 c 2
 140 156.5 l 130
 140 160.167 141.333 167.333 144 178 c 2
 203 457 l 1
 199 460.333 194 462 188 462 c 0
 177.4 462 160.295 451.295 135 426 c 1
 103 480 l 1
 125.667 500 149.667 510 175 510 c 0
EndSplineSet
Ligature2: "'half' Half Forms in Gujarati lookup 4 subtable" u0A96 u0ACD

EndChar

StartChar: u0A97.half
Encoding: 65549 -1 131
Width: 381
Flags: HW
LayerCount: 2
Fore
SplineSet
334 343 m 0
 334 388.2 316.6 456 247 456 c 2
 161 456 l 1
 143 510 l 1
 269 510 l 1
 332.861 501.292 361 424.485 361 345 c 0
 361 212.814 293.319 80 182 80 c 0
 101.265 80 51 146.98 51 235 c 1
 71 240 l 1
 76.491 180.971 123.725 143 177 143 c 0
 269.962 143 334 240.342 334 343 c 0
EndSplineSet
Ligature2: "'half' Half Forms in Gujarati lookup 4 subtable" u0A97 u0ACD

EndChar

StartChar: u0A97_u0AA8.pres
Encoding: 65551 -1 133
Width: 811
Flags: HW
LayerCount: 2
Fore
SplineSet
334 343 m 0
 334 388.2 316.6 456 247 456 c 2
 161 456 l 1
 143 510 l 1
 269 510 l 1
 332.861 501.292 361 424.485 361 345 c 0
 361 212.814 293.319 80 182 80 c 0
 101.265 80 51 146.98 51 235 c 1
 71 240 l 1
 76.491 180.971 123.725 143 177 143 c 0
 269.962 143 334 240.342 334 343 c 0
696 1 m 0
 650.835 1 625 19.5124 625 59 c 0
 625 68.3333 625.667 75.6667 627 81 c 2
 673 297 l 1
 510 297 l 1
 500.91 252.559 501.013 235.604 469 226 c 1
 433.34 221.885 394 265.33 394 307 c 0
 394 324.862 401.1 358 455 358 c 2
 460.5 358 l 130
 462.167 358 463.667 357.667 465 357 c 2
 686 357 l 1
 718 510 l 1
 760 452 l 1
 675 51 l 2
 673 43.6667 675 40 681 40 c 0
 697.664 40 718.27 65.5396 726 81 c 1
 765 26 l 1
 746.2 7.2 713.123 1 696 1 c 0
EndSplineSet
Ligature2: "'pres' Pre Base Substitutions in Gujarati lookup 5 subtable" u0A97.half u0AA8

EndChar

StartChar: u0A98.half
Encoding: 65552 -1 135
Width: 292
Flags: HW
LayerCount: 2
Fore
SplineSet
161 38 m 0
 90.2486 38 35 80.6796 35 154 c 0
 35 216 72.9593 278.49 130 309 c 1
 102.082 352.871 99 375.4 99 392 c 0
 99 406.667 103.5 424.667 112.5 446 c 128
 120.9 465.911 148.704 504 253 504 c 0
 258.63 504 287.154 504.369 309 500 c 1
 319 445 l 1
 303 449.667 285 452 265 452 c 0
 198.4 452 141 420.8 141 374 c 0
 141 358.667 147.333 342.333 160 325 c 1
 176.554 337.734 227.935 356 250 356 c 1
 256 287 l 1
 144.646 260.321 65 213.499 65 158 c 256
 65 134 79.6667 112.667 109 94 c 0
 117 88.6667 129 86 145 86 c 0
 213.444 86 309.158 142.17 340 200 c 1
 319 99 l 1
 241.44 39.8095 184.47 38 161 38 c 0
EndSplineSet
Ligature2: "'half' Half Forms in Gujarati lookup 4 subtable" u0A98 u0ACD

EndChar

StartChar: u0A99
Encoding: 2713 2713 137
Width: 457
Flags: HW
LayerCount: 2
Fore
SplineSet
154 421 m 0
 154 435.707 172.612 524 264 524 c 0
 296 524 336 513.333 384 492 c 1
 364 434 l 1
 322.768 452.142 293.6 459 276 459 c 0
 238.2 459 213 422.625 213 401 c 0
 213 383 242.167 349.167 300.5 299.5 c 128
 358.833 249.833 388 204.667 388 164 c 0
 388 135.921 374.293 74.3645 340 39 c 0
 315.333 13.6667 280.333 1 235 1 c 0
 116.903 1 48 95.5707 48 223 c 1
 70 228 l 1
 70 135.968 139.289 56 220 56 c 0
 287.818 56 347 114.077 347 162 c 0
 347 187.333 330.333 217 297 251 c 1
 205 336 l 1
 171 369.333 154 397.667 154 421 c 0
348 351 m 1
 397 390 l 1
 427 351 l 1
 380 312 l 1
 348 351 l 1
EndSplineSet
AnchorPoint: "a" 152 538 basechar 0
EndChar

StartChar: u0A9A.half
Encoding: 65554 -1 139
Width: 358
Flags: HW
LayerCount: 2
Fore
SplineSet
161 222 m 1
 161 177.134 198.948 134 250 134 c 0
 301.733 134 384.301 179.24 418 234 c 1
 396 134 l 1
 364.759 105.883 309.639 72 252 72 c 0
 175.2 72 135.407 149.28 124 222 c 1
 93.4669 230.22 65 253.555 65 289 c 0
 65 319.288 85.6 353 121 353 c 0
 145.876 353 149.975 340.592 154 325.5 c 128
 158 310.5 160 295 160 279 c 1
 236.909 279 325 328.374 325 415 c 0
 325 427 323 440.667 319 456 c 1
 177 456 l 1
 159 510 l 1
 305 510 l 1
 354.935 486.031 357 421.384 357 405 c 0
 357 315.259 297.615 222 161 222 c 1
EndSplineSet
Ligature2: "'half' Half Forms in Gujarati lookup 4 subtable" u0A9A u0ACD

EndChar

StartChar: u0A9B
Encoding: 2715 2715 141
Width: 521
Flags: HW
LayerCount: 2
Fore
SplineSet
392 446 m 0
 378.441 446 350 438.952 350 385 c 0
 350 322.498 388.569 234 419 234 c 0
 447 234 454 305.03 454 326 c 0
 454 382.123 433.634 446 392 446 c 0
35 134 m 0
 35 240.8 91.8171 289.196 130 312 c 1
 95.5923 364.624 90 400 90 422 c 1
 96.6667 469.333 120 498.667 160 510 c 1
 253 510 l 1
 261 456 l 1
 159 456 l 1
 139.667 446 130 427.333 130 400 c 0
 130 367.333 140.667 343.667 162 329 c 1
 179.536 341.141 218.112 354.632 240 356 c 1
 247 286 l 1
 122.292 256.179 69 197.2 69 138 c 0
 69 86.3477 109.736 49 167 49 c 0
 239.256 49 389.547 130.81 427 222 c 1
 363.436 242.755 305 326.786 305 405 c 0
 305 492.3 377.361 510 401 510 c 0
 453.516 510 484 423.423 484 356 c 0
 484 150.406 362.731 1 168 1 c 0
 80.8355 1 35 49.6958 35 134 c 0
EndSplineSet
AnchorPoint: "a" 298 528 basechar 0
EndChar

StartChar: u0A9C
Encoding: 2716 2716 142
Width: 498
Flags: HW
LayerCount: 2
Fore
SplineSet
124 356 m 0
 124 334.28 135.253 321 157 321 c 0
 198.428 321 261 365.269 261 409 c 0
 261 437.2 231.55 456 208 456 c 0
 164.322 456 124 397.33 124 356 c 0
272 45 m 0
 308.208 45 374 95.6797 374 196 c 2
 374 207.5 l 130
 374 210.5 373.667 213 373 215 c 1
 246 94 l 1
 242 84.6667 240 77 240 71 c 0
 240 53.2509 254.186 45 272 45 c 0
219 511 m 0
 321.779 511 363.218 390.967 391 299 c 1
 602 510 l 1
 637 473 l 1
 404 239 l 1
 404.816 230.838 406 218.612 406 208 c 0
 406 108.042 363.015 1 282 1 c 0
 212.612 1 202 40.6 202 67 c 0
 202 95.7863 215.655 130.655 227 142 c 2
 363 273 l 1
 349.618 338.794 328.552 406.779 278 427 c 1
 281 409 l 130
 281.667 405 282 401.333 282 398 c 0
 282 330.616 228.868 264 163 264 c 0
 98.2 264 82 334.179 82 372 c 0
 82 429.07 125.235 511 219 511 c 0
EndSplineSet
AnchorPoint: "a" 512 536 basechar 0
EndChar

StartChar: u0A9C.half
Encoding: 65556 -1 143
Width: 471
Flags: HW
LayerCount: 2
Fore
SplineSet
124 356 m 0
 124 334.28 135.253 321 157 321 c 0
 198.428 321 261 365.269 261 409 c 0
 261 437.2 231.55 456 208 456 c 0
 164.322 456 124 397.33 124 356 c 0
272 45 m 0
 308.208 45 374 95.6797 374 196 c 2
 374 207.5 l 130
 374 210.5 373.667 213 373 215 c 1
 246 94 l 1
 242 84.6667 240 77 240 71 c 0
 240 53.2509 254.186 45 272 45 c 0
219 511 m 0
 321.779 511 363.218 390.967 391 299 c 1
 490 393 l 1
 524 356 l 1
 404 239 l 1
 404.816 230.838 406 218.612 406 208 c 0
 406 108.042 363.015 1 282 1 c 0
 212.612 1 202 40.6 202 67 c 0
 202 95.7863 215.655 130.655 227 142 c 2
 363 273 l 1
 349.618 338.794 328.552 406.779 278 427 c 1
 281 409 l 130
 281.667 405 282 401.333 282 398 c 0
 282 330.616 228.868 264 163 264 c 0
 98.2 264 82 334.179 82 372 c 0
 82 429.07 125.235 511 219 511 c 0
EndSplineSet
Ligature2: "'half' Half Forms in Gujarati lookup 4 subtable" u0A9C u0ACD

EndChar

StartChar: u0A9C.vatu
Encoding: 65557 -1 144
Width: 605
Flags: HW
LayerCount: 2
Fore
SplineSet
381 45 m 0
 417.208 45 483 95.6797 483 196 c 2
 483 207.5 l 130
 483 210.5 482.667 213 482 215 c 1
 355 94 l 1
 351 84.6667 349 77 349 71 c 0
 349 53.2509 363.186 45 381 45 c 0
124 356 m 0
 124 334.28 135.253 321 157 321 c 0
 198.428 321 261 365.269 261 409 c 0
 261 437.2 231.55 456 208 456 c 0
 164.322 456 124 397.33 124 356 c 0
391 1 m 0
 321.612 1 311 40.6 311 67 c 0
 311 95.7863 324.655 130.655 336 142 c 2
 472 273 l 1
 469.692 290.313 454.424 316.101 441 334 c 1
 245 163 l 1
 214 196 l 1
 408 370 l 1
 388.484 388.866 333.6 437 284 437 c 1
 288.667 425 291 412.333 291 399 c 0
 291 332.05 228.884 264 163 264 c 0
 98.2 264 82 334.179 82 372 c 0
 82 435.112 141.374 510 208 510 c 0
 327.718 510 473.225 392.076 500 299 c 1
 709 501 l 1
 744 464 l 1
 512 239 l 1
 512.816 230.838 514 218.612 514 208 c 0
 514 106.591 472.107 1 391 1 c 0
EndSplineSet
Ligature2: "'vatu' Vattu Variants in Gujarati lookup 3 subtable" u0A9C u0ACD_u0AB0

EndChar

StartChar: u0A9C_u0A9E.half
Encoding: 65559 -1 146
Width: 318
Flags: HW
LayerCount: 2
Fore
SplineSet
188 424 m 0
 223.75 424 257.712 380 331 380 c 0
 361.8 380 392.976 386.423 408 390 c 1
 392 322 l 1
 383.551 318.379 367.2 317 361 317 c 0
 303.15 317 225.275 382 183 382 c 0
 148.038 382 131 348.9 131 339 c 256
 131 330.333 158.333 314.667 213 292 c 128
 267.667 269.333 295 237.667 295 197 c 0
 295 127.421 237.626 15.8037 134 1 c 1
 140.423 -19.1879 161.6 -52 203 -52 c 0
 223 -52 243.333 -44 264 -28 c 1
 279 -82 l 1
 251.667 -101.333 227 -111 205 -111 c 0
 153.507 -111 132.583 -62.9935 105 1 c 1
 46.7017 1 11.8744 48.425 48.5 90 c 128
 60.8333 104 74.3333 111 89 111 c 0
 116 111 127.691 83.0384 134 56 c 1
 200.342 56 270 128.306 270 182 c 0
 270 204 242 225.333 186 246 c 128
 130 266.667 102 295.333 102 332 c 0
 102 405.6 158.505 424 188 424 c 0
EndSplineSet
EndChar

StartChar: u0A9C_u0ABE.psts
Encoding: 65560 -1 147
Width: 745
Flags: HW
LayerCount: 2
Fore
SplineSet
124 356 m 0
 124 334.28 135.253 321 157 321 c 0
 198.428 321 261 365.269 261 409 c 0
 261 437.2 231.55 456 208 456 c 0
 164.322 456 124 397.33 124 356 c 0
272 45 m 0
 308.208 45 374 95.6797 374 196 c 2
 374 207.5 l 130
 374 210.5 373.667 213 373 215 c 1
 246 94 l 1
 242 84.6667 240 77 240 71 c 0
 240 53.2509 254.186 45 272 45 c 0
219 511 m 0
 321.779 511 363.218 390.967 391 299 c 1
 602 510 l 1
 644 452 l 1
 559 51 l 2
 557 43.6667 559 40 565 40 c 0
 581.664 40 602.27 65.5396 610 81 c 1
 649 26 l 1
 630.2 7.2 597.123 1 580 1 c 0
 529.8 1 510 24.2 510 59 c 0
 510 68.3333 510.333 75.6667 511 81 c 2
 583 420 l 1
 404 239 l 1
 404.816 230.838 406 218.612 406 208 c 0
 406 108.042 363.015 1 282 1 c 0
 212.612 1 202 40.6 202 67 c 0
 202 95.7863 215.655 130.655 227 142 c 2
 363 273 l 1
 349.618 338.794 328.552 406.779 278 427 c 1
 281 409 l 130
 281.667 405 282 401.333 282 398 c 0
 282 330.616 228.868 264 163 264 c 0
 98.2 264 82 334.179 82 372 c 0
 82 429.07 125.235 511 219 511 c 0
EndSplineSet
Ligature2: "'psts' Post Base Substitutions in Gujarati lookup 7 subtable" u0A9C u0ABE

EndChar

StartChar: u0A9C_u0AC0.psts
Encoding: 65561 -1 148
Width: 668
Flags: HW
LayerCount: 2
Fore
SplineSet
241 511 m 0
 327.94 511 368.479 419.821 397 355 c 1
 598 510 l 1
 604 510 l 1
 623.333 468 633 419.333 633 364 c 0
 633 179.369 524.494 61.1054 424 24 c 0
 385.333 9.33333 339.667 2 287 2 c 0
 149.528 2 92.2295 121.013 52 244 c 1
 73 256 l 1
 122.978 114.683 199 56 283 56 c 0
 385.667 56 466 92 524 164 c 0
 576.667 228.667 603 309.333 603 406 c 0
 603 418 596 424 582 424 c 0
 574.667 424 568 421.667 562 417 c 2
 426 307 l 1
 429.333 295 431 284.333 431 275 c 0
 431 225.185 393.956 187 349 187 c 0
 321.652 187 299 205.136 299 238 c 0
 299 276.889 324.927 301.526 371 338 c 1
 342.866 393.185 328.293 428.828 285 440 c 1
 289 424.667 291 410 291 396 c 0
 291 338.431 265.705 293.444 225 279 c 0
 215.134 275.711 196.087 271 184 271 c 0
 133.103 271 105 318.615 105 373 c 0
 105 438.196 155.185 511 241 511 c 0
140 350 m 0
 140 334.7 145.4 320 167 320 c 0
 205.128 320 266 369.987 266 412 c 0
 266 436.6 241.05 453 221 453 c 0
 179.602 453 140 389.363 140 350 c 0
EndSplineSet
Ligature2: "'psts' Post Base Substitutions in Gujarati lookup 7 subtable" u0A9C u0AC0

EndChar

StartChar: u0A9D
Encoding: 2717 2717 149
Width: 608
Flags: HW
LayerCount: 2
Fore
SplineSet
324 69 m 1
 433.993 69 513 143.547 513 223 c 0
 513 266.539 499.913 273.839 483 283 c 128
 467 291.667 449.333 296 430 296 c 0
 391.501 296 362.647 280.475 344 256 c 1
 331.605 223.536 291.999 132.216 200 125 c 1
 110.85 125 68 213.763 68 317 c 1
 90 323 l 1
 90 270.326 111.2 185 196 185 c 0
 280 185 336 288.766 336 380 c 0
 336 434.436 320.101 446.43 280 452 c 128
 256 455.333 229 457 199 457 c 2
 181 457 l 130
 176.333 457 172.333 456.667 169 456 c 1
 152 510 l 1
 278 510 l 1
 341.564 494.745 370 428.012 370 343 c 1
 383.333 351 403.667 355 431 355 c 0
 435.667 355 442 354.333 450 353 c 1
 488.04 386.965 529 456.287 529 510 c 1
 555 482 l 1
 580 451 l 1
 555.474 400.586 531.369 370.059 496 336 c 1
 548.158 287.854 549 230.57 549 219 c 0
 549 165.667 527.5 116 484.5 70 c 128
 441.5 24 395.333 1 346 1 c 1
 324 69 l 1
EndSplineSet
AnchorPoint: "a" 450 526 basechar 0
EndChar

StartChar: u0A9D.half
Encoding: 65562 -1 150
Width: 521
Flags: HW
LayerCount: 2
Fore
SplineSet
324 69 m 1
 433.993 69 513 143.547 513 223 c 0
 513 266.539 499.913 273.839 483 283 c 128
 467 291.667 449.333 296 430 296 c 0
 391.501 296 362.647 280.475 344 256 c 1
 331.605 223.536 291.999 132.216 200 125 c 1
 110.85 125 68 213.763 68 317 c 1
 90 323 l 1
 90 270.326 111.2 185 196 185 c 0
 280 185 336 288.766 336 380 c 0
 336 434.436 320.101 446.43 280 452 c 128
 256 455.333 229 457 199 457 c 2
 181 457 l 130
 176.333 457 172.333 456.667 169 456 c 1
 152 510 l 1
 278 510 l 1
 341.564 494.745 370 428.012 370 343 c 1
 391.676 352.29 417.2 355 429 355 c 0
 474.989 355 549 328.6 549 223 c 0
 549 155.144 501.593 18.0773 346 1 c 1
 324 69 l 1
EndSplineSet
Ligature2: "'half' Half Forms in Gujarati lookup 4 subtable" u0A9D u0ACD

EndChar

StartChar: u0A9D.vatu
Encoding: 65563 -1 151
Width: 608
Flags: HW
LayerCount: 2
Fore
SplineSet
324 69 m 1
 433.993 69 513 143.547 513 223 c 0
 513 233.667 512.333 241.667 511 247 c 1
 388 137 l 1
 357 170 l 1
 480 285 l 1
 465.333 292.333 448.333 296 429 296 c 0
 390.438 296 362.683 280.521 344 256 c 1
 331.605 223.536 291.999 132.216 200 125 c 1
 110.85 125 68 213.763 68 317 c 1
 90 323 l 1
 90 270.326 111.2 185 196 185 c 0
 280 185 336 288.766 336 380 c 0
 336 434.436 320.101 446.43 280 452 c 128
 256 455.333 229 457 199 457 c 2
 181 457 l 130
 176.333 457 172.333 456.667 169 456 c 1
 152 510 l 1
 278 510 l 1
 341.564 494.745 370 428.012 370 343 c 1
 383.333 351 403.667 355 431 355 c 0
 435.667 355 442 354.333 450 353 c 1
 488.04 386.965 529 456.287 529 510 c 1
 555 482 l 1
 580 451 l 1
 555.474 400.586 531.369 370.059 496 336 c 1
 548.158 287.854 549 230.57 549 219 c 0
 549 165.667 527.5 116 484.5 70 c 128
 441.5 24 395.333 1 346 1 c 1
 324 69 l 1
EndSplineSet
Ligature2: "'vatu' Vattu Variants in Gujarati lookup 3 subtable" u0A9D u0ACD_u0AB0

EndChar

StartChar: u0A9F
Encoding: 2719 2719 153
Width: 430
Flags: HW
LayerCount: 2
Fore
SplineSet
346 75 m 1
 287.872 39.1545 244.695 4.33373 150 3 c 1
 59.6 3 37 80.3625 37 139 c 0
 37 267.196 99.2881 286.429 235 335 c 0
 280.333 351 307.333 366.667 316 382 c 0
 322 394 325 406.333 325 419 c 0
 325 435 319.333 447.333 308 456 c 1
 169 456 l 1
 147 510 l 1
 295 510 l 1
 331.776 500.806 356 467.071 356 419 c 0
 356 316.195 302.433 299.573 171 255 c 0
 82.5131 225.173 68 194.168 68 143 c 0
 68 75.8 118.7 59 156 59 c 0
 189.8 59 257.395 74.5357 325 132 c 1
 346 75 l 1
EndSplineSet
AnchorPoint: "a" 130 530 basechar 0
EndChar

StartChar: u0A9F.blws
Encoding: 65564 -1 154
Width: 371
Flags: HW
LayerCount: 2
Fore
SplineSet
0 -13 m 0
 0 55 70.143 72 121 72 c 0
 127.667 72 135.667 71.3333 145 70 c 1
 151 102 l 1
 71 102 51 164.8 51 215 c 0
 51 285.904 79.2691 319.756 168.5 349.5 c 128
 280.524 386.841 284 409.9 284 425 c 0
 284 443.032 273.154 459 256 459 c 2
 152 459 l 1
 140 510 l 1
 258 510 l 1
 287.882 503.775 315 474.5 315 436 c 0
 315 266.069 77 329.097 77 220 c 0
 77 177.966 115.214 154 159 154 c 0
 207.302 154 259.723 193.522 284 216 c 1
 298 161 l 1
 271.33 134.33 225.135 110.734 178 104 c 1
 164 37 l 1
 78.8 37 27 13 27 -23 c 0
 27 -47.6 51.4 -64 88 -64 c 0
 149.2 -64 206.497 -18.7006 241 15 c 1
 270 -7 l 1
 204.456 -89.3987 125.226 -96 100 -96 c 256
 42.6549 -96 1.79118e-18 -66.6924 0 -13 c 0
EndSplineSet
Ligature2: "'blws' Below Base Substitutions in Gujarati lookup 6 subtable" u0A9F u0ACD u0A9F

EndChar

StartChar: u0A9F_u0AA0.blws
Encoding: 65565 -1 155
Width: 371
Flags: HW
LayerCount: 2
Fore
SplineSet
63 -27 m 0
 63 -47.4 80.2 -61 106 -61 c 0
 151.801 -61 214 -20.4935 214 15 c 0
 214 36 190.9 50 165 50 c 0
 116.944 50 63 9.13906 63 -27 c 0
120 -105 m 0
 68.7726 -105 31 -75.1336 31 -29 c 0
 31 -25 31.3333 -19 32 -11 c 1
 42.821 34.9892 86.7549 73.0617 141 81 c 1
 146 102 l 1
 70 102 51 169.212 51 216 c 0
 51 283.853 77.2601 319.087 168.5 349.5 c 128
 280.524 386.841 284 409.9 284 425 c 0
 284 443.032 273.154 459 256 459 c 2
 152 459 l 1
 140 510 l 1
 258 510 l 1
 287.882 503.775 315 474.5 315 436 c 0
 315 266.069 77 329.097 77 220 c 0
 77 177.966 115.214 154 159 154 c 0
 207.302 154 259.723 193.522 284 216 c 1
 298 161 l 1
 273.842 136.842 227.843 112.007 183 105 c 1
 178 80 l 1
 227.599 72.2501 248 35.6 248 6 c 0
 248 -44 197.512 -105 120 -105 c 0
EndSplineSet
Ligature2: "'blws' Below Base Substitutions in Gujarati lookup 6 subtable" u0A9F u0ACD u0AA0

EndChar

StartChar: u0AA0
Encoding: 2720 2720 156
Width: 431
Flags: HW
LayerCount: 2
Fore
SplineSet
69 111 m 0
 69 87.8 82.55 53 144 53 c 0
 227.311 53 325 114.314 325 183 c 0
 325 223.6 289.8 268 237 268 c 0
 157.481 268 69 176.919 69 111 c 0
152 417 m 256
 152 491.4 212.442 505.961 229 510 c 1
 354 510 l 1
 361 456 l 1
 227 456 l 1
 207.667 436 198 416.667 198 398 c 0
 198 376.667 226 344.667 282 302 c 128
 338 259.333 366 217.333 366 176 c 0
 366 91.3125 291.205 1 166 1 c 0
 86.2403 1 30 40.478 30 115 c 2
 30 137 l 1
 37.0867 175.977 48.9558 220.646 97.5 261.5 c 128
 131.167 289.833 165.333 304 200 304 c 1
 166.598 332.631 152 380.049 152 417 c 256
EndSplineSet
AnchorPoint: "a" 174 528 basechar 0
EndChar

StartChar: u0AA0.blws
Encoding: 65566 -1 157
Width: 365
Flags: HW
LayerCount: 2
Fore
SplineSet
53 -27 m 0
 53 -47.4 70.2 -61 96 -61 c 0
 141.801 -61 204 -20.4935 204 15 c 0
 204 36 180.9 50 155 50 c 0
 106.944 50 53 9.13906 53 -27 c 0
85 187 m 0
 85 157.4 110.7 150 134 150 c 0
 194.391 150 268 196.48 268 245 c 0
 268 276.841 241.06 302 209 302 c 0
 152.075 302 85 234.8 85 187 c 0
181 406 m 0
 181 352.991 317 319.176 317 251 c 0
 317 221.246 286.794 120.256 173 104 c 1
 168 80 l 1
 217.599 72.2501 238 35.6 238 6 c 0
 238 -44 187.512 -105 110 -105 c 0
 58.7726 -105 21 -75.1336 21 -29 c 0
 21 15 62.7824 70.8706 132 81 c 1
 137 105 l 1
 107.65 108.579 45 123.2 45 196 c 0
 45 265.498 105.404 347 182 347 c 1
 155.333 364.333 142 392.333 142 431 c 0
 142 488.209 193.76 508.956 205 511 c 1
 305 511 l 1
 310 458 l 1
 203 458 l 1
 188.333 438.667 181 421.333 181 406 c 0
EndSplineSet
Ligature2: "'blws' Below Base Substitutions in Gujarati lookup 6 subtable" u0AA0 u0ACD u0AA0

EndChar

StartChar: u0AA1
Encoding: 2721 2721 158
Width: 494
Flags: HW
LayerCount: 2
Fore
SplineSet
147 351 m 0
 147 437.499 199.894 499.741 238 510 c 1
 393 510 l 1
 397 456 l 1
 233 456 l 1
 208.964 443.982 183 404.632 183 366 c 0
 183 335.333 224.5 316.667 307.5 310 c 128
 390.5 303.333 432 269.333 432 208 c 0
 432 186.633 430.88 171.3 426 153 c 1
 408.684 70.4157 332.806 1 239 1 c 0
 125 1 75.1723 102.862 49 225 c 1
 72 232 l 1
 83.5967 149.534 148.99 59 243 59 c 0
 333.104 59 399 124.619 399 198 c 0
 399 234.667 357 255 273 259 c 128
 189 263 147 293.667 147 351 c 0
EndSplineSet
EndChar

StartChar: u0AA1.blws
Encoding: 65567 -1 159
Width: 406
Flags: HW
LayerCount: 2
Fore
SplineSet
359 272 m 0
 359 182.838 304.141 103 217 103 c 1
 198 104 l 1
 190 69 l 1
 208.535 70.8535 217.905 71 221 71 c 0
 254.9 71 300 61.8 300 25 c 0
 300 -17.6328 250.123 -90 160 -90 c 0
 117.556 -90 55.6098 -73.0276 30 -1 c 1
 67 20 l 1
 100.078 -30.7977 142.6 -60 193 -60 c 0
 244.375 -60 268 -29.4 268 -9 c 0
 268 10.2 251 39 159 39 c 1
 174 110 l 1
 113.216 129.848 82.1454 191.346 62 282 c 1
 81 289 l 1
 98.2949 218.585 136.2 154 219 154 c 0
 285 154 329 201.494 329 265 c 0
 329 289 319 305 269 305 c 0
 254.333 304.333 243 304 235 304 c 0
 174.981 304 143 320.197 143 386 c 0
 143 440.9 157.09 459.948 171 477.5 c 128
 185 495.167 199 506 213 510 c 1
 319 510 l 1
 336 457 l 1
 204 457 l 1
 183.538 439.207 173 417.489 173 392 c 0
 173 368 204 354.333 266 351 c 128
 328 347.667 359 321.333 359 272 c 0
EndSplineSet
Ligature2: "'blws' Below Base Substitutions in Gujarati lookup 6 subtable" u0AA1 u0ACD u0AA1

EndChar

StartChar: u0AA1_u0AA2.blws
Encoding: 65568 -1 160
Width: 406
Flags: HW
LayerCount: 2
Fore
SplineSet
358 272 m 0
 358 177.179 301.806 103 223 103 c 1
 212 52 l 1
 135 26 l 1
 109.237 16.2101 75 -3.2 75 -47 c 0
 75 -78.8 94.2 -100 123 -100 c 0
 139.166 -100 142.714 -98.6432 158 -91 c 1
 148.667 -77.6667 144 -64.6667 144 -52 c 0
 144 11.237 243 35.0604 243 -27 c 0
 243 -74.55 181.661 -137 120 -137 c 0
 97.3844 -137 41 -123.291 41 -45 c 0
 41 -19.6307 43.8403 18.8993 102 41 c 1
 141.333 52.3333 167.667 60.6667 181 66 c 1
 189 104 l 1
 173 110 l 1
 112.216 129.848 81.1454 191.346 61 282 c 1
 80 289 l 1
 97.2949 218.585 135.2 154 218 154 c 0
 284 154 328 201.494 328 265 c 0
 328 289 318 305 268 305 c 0
 253.333 304.333 242 304 234 304 c 0
 173.981 304 142 320.197 142 386 c 0
 142 440.9 156.09 459.948 170 477.5 c 128
 184 495.167 198 506 212 510 c 1
 318 510 l 1
 335 457 l 1
 203 457 l 1
 182.538 439.207 172 417.489 172 392 c 0
 172 368 203 354.333 265 351 c 128
 327 347.667 358 321.333 358 272 c 0
222 -35 m 0
 222 -23.8 209.2 -21 203 -21 c 0
 178.2 -21 172 -47.75 172 -63 c 0
 172 -71 174.333 -77 179 -81 c 1
 195.901 -74.2394 222 -53.4 222 -35 c 0
EndSplineSet
Ligature2: "'blws' Below Base Substitutions in Gujarati lookup 6 subtable" u0AA1 u0ACD u0AA2

EndChar

StartChar: u0AA2
Encoding: 2722 2722 161
Width: 423
Flags: HW
LayerCount: 2
Fore
SplineSet
73 146 m 0
 73 92.2421 102.48 52 153 52 c 0
 172.333 52 193 57.6667 215 69 c 1
 201.787 86.2789 190 112.2 190 141 c 0
 190 205.241 249.86 252 299 252 c 0
 303.667 251.333 307 251 309 251 c 0
 347.154 246.231 371 225.8 371 188 c 0
 371 148 349 107.667 305 67 c 0
 257 23 205.333 1 150 1 c 0
 91.0113 1 68.9323 28.3761 51 75 c 0
 39.9931 102.517 39 142.409 39 150 c 0
 39 174.298 39.5103 190.276 43 199 c 1
 74.679 348.344 287.487 322.393 320 382 c 0
 323.333 387.333 325 395.333 325 406 c 0
 325 416 321.938 446.708 308 456 c 1
 178 456 l 1
 147 510 l 1
 295 510 l 1
 331.776 500.806 356 467.071 356 419 c 0
 356 337.836 303.422 318.474 173 261 c 0
 87.2615 223.551 73 193.307 73 146 c 0
299 217 m 0
 275.053 217 227 196.062 227 123 c 0
 227 103 232 88.3333 242 79 c 1
 279.74 91.9732 341 143.128 341 182 c 0
 341 204.737 316.641 217 299 217 c 0
EndSplineSet
EndChar

StartChar: u0AA3.half
Encoding: 65569 -1 163
Width: 376
Flags: HW
LayerCount: 2
Fore
SplineSet
230 -24 m 0
 248.951 -24 269 -7.68609 269 8 c 0
 269 18.6667 233 46.3333 161 91 c 128
 89 135.667 53 182.667 53 232 c 0
 53 241.333 54 251 56 261 c 2
 109 510 l 1
 151 454 l 1
 106 240 l 2
 105.333 237.333 105 233 105 227 c 0
 105 203 122.667 176.333 158 147 c 1
 257 73 l 1
 293 44.3333 311 20 311 0 c 0
 311 -23.2 284.05 -58 240 -58 c 0
 214.414 -58 176.395 -44.9802 155 -19 c 1
 171 0 l 1
 208.776 -22.0361 218.2 -24 230 -24 c 0
389 398 m 0
 389 307.248 342.38 203 270 203 c 0
 215.642 203 194.6 243.068 185 290 c 1
 212 305 l 1
 223.753 266.801 250.4 255 276 255 c 0
 314.836 255 359 303.873 359 370 c 0
 359 390 355.333 408.333 348 425 c 1
 247 425 l 1
 233 483 l 1
 345 483 l 2
 378.723 483 389 436.706 389 398 c 0
EndSplineSet
Ligature2: "'half' Half Forms in Gujarati lookup 4 subtable" u0AA3 u0ACD

EndChar

StartChar: u0AA3_u0AC1.blws
Encoding: 65570 -1 164
Width: 626
Flags: HW
LayerCount: 2
Fore
SplineSet
230 -24 m 0
 248.951 -24 269 -7.68609 269 8 c 0
 269 18.6667 233 46.3333 161 91 c 128
 89 135.667 53 182.667 53 232 c 0
 53 241.333 54 251 56 261 c 2
 109 510 l 1
 151 454 l 1
 106 240 l 2
 105.333 237.333 105 233 105 227 c 0
 105 203 122.667 176.333 158 147 c 1
 257 73 l 1
 293 44.3333 311 20 311 0 c 0
 311 -23.2 284.05 -58 240 -58 c 0
 214.414 -58 176.395 -44.9802 155 -19 c 1
 171 0 l 1
 208.776 -22.0361 218.2 -24 230 -24 c 0
389 398 m 0
 389 307.248 342.38 203 270 203 c 0
 215.642 203 194.6 243.068 185 290 c 1
 212 305 l 1
 223.753 266.801 250.4 255 276 255 c 0
 314.836 255 359 303.873 359 370 c 0
 359 390 355.333 408.333 348 425 c 1
 247 425 l 1
 233 483 l 1
 345 483 l 2
 378.723 483 389 436.706 389 398 c 0
477 73 m 0
 431.835 73 406 91.5124 406 131 c 0
 406 140.333 406.667 147.667 408 153 c 2
 484 510 l 1
 525 452 l 1
 456 123 l 2
 454 115.667 456 112 462 112 c 0
 478.664 112 499.27 137.54 507 153 c 1
 546 98 l 1
 527.2 79.2 497.953 73 477 73 c 0
472 74 m 0
 490.734 74 514 65.0656 514 29 c 0
 514 -24.5125 473.844 -55 431 -55 c 0
 372.2 -55 342.504 3.48718 333 32 c 1
 346 38 l 1
 357.473 12.7594 394.774 -18 439 -18 c 1
 425.667 -6 419 7 419 21 c 0
 419 42.2 440.2 74 472 74 c 0
447 13 m 0
 447 -2.67542 472.576 -21 482 -21 c 0
 491.333 -21 496 -6.66667 496 22 c 0
 496 34.6667 490 41 478 41 c 0
 461.214 41 447 28.6419 447 13 c 0
EndSplineSet
Ligature2: "'blws' Below Base Substitutions in Gujarati lookup 6 subtable" u0AA3 u0AC1

EndChar

StartChar: u0AA3_u0AC2.blws
Encoding: 65571 -1 165
Width: 626
Flags: HW
LayerCount: 2
Fore
SplineSet
463 112 m 0
 479.664 112 500.27 137.54 508 153 c 1
 547 98 l 1
 528.2 79.2 498.953 73 478 73 c 0
 432.835 73 407 91.5124 407 131 c 0
 407 140.333 407.667 147.667 409 153 c 2
 485 510 l 1
 526 452 l 1
 457 123 l 2
 455 115.667 457 112 463 112 c 0
277 255 m 0
 315.836 255 360 303.873 360 370 c 0
 360 390 356.333 408.333 349 425 c 1
 248 425 l 1
 234 483 l 1
 346 483 l 2
 379.723 483 390 436.706 390 398 c 0
 390 307.248 343.38 203 271 203 c 0
 216.642 203 195.6 243.068 186 290 c 1
 213 305 l 1
 224.753 266.801 251.4 255 277 255 c 0
379 -9 m 0
 379 26.8285 405.441 77 464 77 c 0
 487.333 77 507.667 68 525 50 c 0
 541 34.6667 552.667 14.3333 560 -11 c 1
 548 -18 l 1
 536.549 8.3371 500.743 39 456 39 c 1
 469.333 27.6667 476 15 476 1 c 0
 476 -20.6 454.8 -53 423 -53 c 0
 397.148 -53 379 -36.713 379 -9 c 0
312 2 m 0
 312 -21.2 285.05 -56 241 -56 c 0
 215.414 -56 177.395 -42.9802 156 -17 c 1
 172 2 l 1
 209.776 -20.0361 219.2 -22 231 -22 c 0
 249.951 -22 270 -5.68609 270 10 c 0
 270 20.6667 234 48.3333 162 93 c 128
 90 137.667 54 184.667 54 234 c 0
 54 243.333 55 253 57 263 c 2
 110 512 l 1
 152 456 l 1
 107 242 l 2
 106.333 239.333 106 235 106 229 c 0
 106 205 123.667 178.333 159 149 c 1
 258 75 l 1
 294 46.3333 312 22 312 2 c 0
448 8 m 0
 448 24.0971 424.598 42 412 42 c 0
 402.667 42 398 27.6667 398 -1 c 0
 398 -14.3333 404 -21 416 -21 c 0
 432.3 -21 448 -9.4 448 8 c 0
EndSplineSet
Ligature2: "'blws' Below Base Substitutions in Gujarati lookup 6 subtable" u0AA3 u0AC2

EndChar

StartChar: u0AA4.half
Encoding: 65572 -1 167
Width: 277
Flags: HW
LayerCount: 2
Fore
SplineSet
144 6 m 1
 105.703 65.1863 54 135.6 54 222 c 0
 54 332.151 110.533 363 145 363 c 2
 358 363 l 1
 346 309 l 1
 147 309 l 1
 132.084 298.199 92 267.8 92 206 c 0
 92 149.642 120.173 100.891 163 22 c 1
 144 6 l 1
EndSplineSet
Ligature2: "'half' Half Forms in Gujarati lookup 4 subtable" u0AA4 u0ACD

EndChar

StartChar: u0AA4_u0AA8.pres
Encoding: 65575 -1 170
Width: 811
Flags: HW
LayerCount: 2
Fore
SplineSet
697 1 m 0
 651.835 1 626 19.5124 626 59 c 0
 626 68.3333 626.667 75.6667 628 81 c 2
 674 297 l 1
 511 297 l 1
 501.91 252.559 502.013 235.604 470 226 c 1
 434.34 221.885 395 265.33 395 307 c 0
 395 324.862 402.1 358 456 358 c 2
 461.5 358 l 130
 463.167 358 464.667 357.667 466 357 c 2
 687 357 l 1
 719 510 l 1
 761 452 l 1
 676 51 l 2
 674 43.6667 676 40 682 40 c 0
 698.664 40 719.27 65.5396 727 81 c 1
 766 26 l 1
 747.2 7.2 714.123 1 697 1 c 0
145 6 m 1
 106.703 65.1863 55 135.6 55 222 c 0
 55 332.151 111.533 363 146 363 c 2
 359 363 l 1
 347 309 l 1
 148 309 l 1
 133.084 298.199 93 267.8 93 206 c 0
 93 149.642 121.173 100.891 164 22 c 1
 145 6 l 1
EndSplineSet
Ligature2: "'pres' Pre Base Substitutions in Gujarati lookup 5 subtable" u0AA4.half u0AA8

EndChar

StartChar: u0AA5.half
Encoding: 65576 -1 172
Width: 307
Flags: HW
LayerCount: 2
Fore
SplineSet
181 361 m 0
 181 333.601 206.698 306 236 306 c 0
 276.932 306 308 356.196 308 405 c 0
 308 427.499 301.083 458 273 458 c 0
 235.2 458 181 408.778 181 361 c 0
69 169 m 0
 69 129.148 105.164 100 155 100 c 0
 229.622 100 320.939 153.378 359 219 c 1
 339 121 l 1
 305.484 93.6576 239.4 48 173 48 c 0
 101.949 48 39 98.6367 39 176 c 0
 39 261.798 108.022 286.84 168 314 c 1
 150 332.667 141 354.667 141 380 c 0
 141 445.595 205.869 502 265 502 c 0
 308.705 502 344 465.352 344 417 c 0
 344 324.97 238.734 288.945 172 259 c 0
 103.333 228.333 69 198.333 69 169 c 0
EndSplineSet
Ligature2: "'half' Half Forms in Gujarati lookup 4 subtable" u0AA5 u0ACD

EndChar

StartChar: u0AA6
Encoding: 2726 2726 174
Width: 377
Flags: HW
LayerCount: 2
Fore
SplineSet
167 50 m 0
 184.2 50 224.013 55.0557 253 73 c 1
 253 109.979 278.806 135 309 135 c 0
 336.2 135 343 117.75 343 102 c 0
 343 39.5734 238.066 1 176 1 c 0
 91.8204 1 36 53.0816 36 141 c 0
 36 187.711 47.48 267.24 137 312 c 1
 109.667 356 96 395.667 96 431 c 0
 96 464.725 113 510 181 510 c 2
 297 510 l 1
 302 456 l 1
 160 456 l 1
 144 440.667 136 421.333 136 398 c 0
 136 368.099 149.312 341.688 165 326 c 1
 186.662 333.646 209.751 337 238 337 c 2
 264 337 l 1
 261 279 l 1
 105.022 279 61 199.8 61 147 c 0
 61 95.929 98.3723 50 167 50 c 0
EndSplineSet
EndChar

StartChar: u0AA6.half
Encoding: 65578 -1 175
Width: 393
Flags: HW
LayerCount: 2
Fore
SplineSet
327 165 m 0
 327 149.2 317.369 110.429 272 86 c 1
 288 37 l 2
 289.333 32.3333 292 25.3333 296 16 c 1
 266 1 l 1
 237 75 l 1
 218.333 65.6667 199.667 61 181 61 c 0
 161 61 105.39 75.5122 81 106 c 1
 57.2088 139.704 57 154.8 57 167 c 0
 57 211.6 95.8416 269.383 103.5 278.5 c 128
 110.5 286.833 119.667 296 131 306 c 1
 110.597 333.823 91 376.067 91 407 c 0
 91 495.875 182.905 499.02 240 510 c 1
 260 456 l 1
 194.713 448.969 159.227 450.209 138 412 c 0
 133.333 402.667 131 393.333 131 384 c 0
 131 362.143 147.425 341.146 162 329 c 1
 201 351 l 2
 219 361 238 367 258 369 c 1
 281 320 l 1
 161.135 289.489 101 209.21 101 160 c 0
 101 113.483 149.113 100 174 100 c 0
 194 100 207 106 213 118 c 1
 218.988 158.721 250.191 202 290 202 c 0
 314.177 202 327 186.602 327 165 c 0
EndSplineSet
Ligature2: "'half' Half Forms in Gujarati lookup 4 subtable" u0AA6 u0ACD

EndChar

StartChar: u0AA6.vatu
Encoding: 65579 -1 176
Width: 439
Flags: HW
LayerCount: 2
Fore
SplineSet
338 265 m 256
 338 241 316.908 218.662 293 205 c 1
 348 44 l 1
 317 30 l 1
 264 186 l 1
 101 75 l 1
 88 111 l 1
 172 171 l 1
 127.425 171 86.6819 169.216 65 218 c 128
 59.6667 230 57 242.667 57 256 c 0
 57 299.6 81.751 341.917 151 365 c 1
 284 405 l 1
 296 411 302 418.667 302 428 c 256
 302 437.333 296.667 446.667 286 456 c 1
 154 456 l 1
 137 510 l 1
 288 510 l 1
 317.702 492.449 335 456 335 420 c 0
 335 353.318 262.164 340.481 165 313 c 0
 101.943 295.803 84 277 84 253 c 0
 84 240.6 91.55 222 145 222 c 0
 177.667 222 208.333 227.667 237 239 c 1
 244.578 266.063 268.403 306 299 306 c 0
 317.534 306 338 286.586 338 265 c 256
EndSplineSet
Ligature2: "'vatu' Vattu Variants in Gujarati lookup 3 subtable" u0AA6 u0ACD_u0AB0

EndChar

StartChar: u0AA6_u0AA7.blws
Encoding: 65580 -1 177
Width: 465
Flags: HW
LayerCount: 2
Fore
SplineSet
105 154 m 1
 84.7972 148.388 66 132.015 66 110 c 0
 66 92 76.3333 83 97 83 c 2
 108 83 l 1
 114.512 105.791 134.165 136.629 162 149 c 1
 199 110 l 1
 169.793 102.035 152 78.2 152 57 c 0
 152 -15.6324 298 77.528 298 156 c 0
 298 168.667 293.667 179.333 285 188 c 1
 257.537 178.448 218.895 169 184 169 c 0
 132.7 169 84 186.4 84 256 c 2
 84 267 l 1
 85.3333 273.667 86 278.333 86 281 c 0
 90.6667 307 108.333 329 139 347 c 0
 144.333 350.333 199.333 369.333 304 404 c 0
 320 408.667 328 417.333 328 430 c 0
 328 444 322.667 453.333 312 458 c 1
 179 458 l 1
 163 511 l 1
 314 511 l 1
 343.702 493.449 361 457 361 421 c 0
 361 382.333 322.333 352.667 245 332 c 128
 148.982 306.34 115 282.499 115 254 c 0
 115 229.248 146.225 220 175 220 c 0
 203.667 220 232.333 226.667 261 240 c 1
 272.333 280 291.667 300 319 300 c 0
 343.427 300 364 285.2 364 263 c 0
 364 239.8 344.024 215.906 321 205 c 1
 374 45 l 1
 341 30 l 1
 338.708 62.0897 329.077 72.6154 316 70 c 1
 292.097 34.7145 249.661 2 197 2 c 0
 144.654 2 106 22.4481 106 68 c 1
 98 66 89.6667 65 81 65 c 0
 37.8 65 27 94.1023 27 116 c 0
 27 143.2 47.7432 169.529 78 184 c 1
 105 154 l 1
EndSplineSet
Ligature2: "'blws' Below Base Substitutions in Gujarati lookup 6 subtable" u0AA6 u0ACD u0AA7

EndChar

StartChar: u0AA6_u0AA8.pres
Encoding: 65581 -1 178
Width: 721
Flags: HW
LayerCount: 2
Fore
SplineSet
607 1 m 0
 561.835 1 536 19.5124 536 59 c 0
 536 68.3333 536.667 75.6667 538 81 c 2
 584 297 l 1
 421 297 l 1
 411.91 252.559 412.013 235.604 380 226 c 1
 344.34 221.885 305 265.33 305 307 c 0
 305 324.862 312.1 358 366 358 c 2
 371.5 358 l 130
 373.167 358 374.667 357.667 376 357 c 2
 597 357 l 1
 629 510 l 1
 671 452 l 1
 586 51 l 2
 584 43.6667 586 40 592 40 c 0
 608.664 40 629.27 65.5396 637 81 c 1
 676 26 l 1
 657.2 7.2 624.123 1 607 1 c 0
162 38 m 0
 91.2486 38 36 80.6796 36 154 c 0
 36 216 73.9593 278.49 131 309 c 1
 103.082 352.871 100 375.4 100 392 c 0
 100 406.667 104.5 424.667 113.5 446 c 128
 121.9 465.911 149.704 504 254 504 c 0
 259.63 504 288.154 504.369 310 500 c 1
 320 445 l 1
 304 449.667 286 452 266 452 c 0
 199.4 452 142 420.8 142 374 c 0
 142 358.667 148.333 342.333 161 325 c 1
 177.554 337.734 228.935 356 251 356 c 1
 257 287 l 1
 145.646 260.321 66 213.499 66 158 c 256
 66 134 80.6667 112.667 110 94 c 0
 118 88.6667 130 86 146 86 c 0
 214.444 86 310.158 142.17 341 200 c 1
 320 99 l 1
 242.44 39.8095 185.47 38 162 38 c 0
EndSplineSet
Ligature2: "'pres' Pre Base Substitutions in Gujarati lookup 5 subtable" u0AA6.half u0AA8

EndChar

StartChar: u0AA6_u0AAE.pres
Encoding: 65582 -1 179
Width: 569
Flags: HW
LayerCount: 2
Fore
SplineSet
406 1 m 0
 360.835 1 335 19.5124 335 59 c 0
 335 68.3333 335.667 75.6667 337 81 c 2
 357 174 l 1
 269 174 l 1
 259.381 135.524 256.238 111.528 227 103 c 1
 189.129 98.7921 152 144.753 152 184 c 0
 152 207.911 162.642 235 208 235 c 0
 218 234.333 225.333 234 230 234 c 1
 232.667 247.333 234 260 234 272 c 0
 234 299.333 224 317.333 204 326 c 1
 178.667 331.333 161 335.667 151 339 c 2
 108 353 l 1
 93.3333 360.333 86 372.667 86 390 c 0
 86 415.449 102.577 510 192 510 c 2
 286 510 l 1
 299 456 l 1
 188 456 l 2
 148.115 456 140.321 446.278 131 405 c 0
 119.21 357.839 193.052 377.864 240 345 c 0
 264.667 328.333 277 303 277 269 c 2
 277 257 l 1
 275 247 273.667 239.333 273 234 c 1
 370 234 l 1
 428 510 l 1
 470 452 l 1
 385 51 l 2
 383 43.6667 385 40 391 40 c 0
 407.664 40 428.27 65.5395 436 81 c 1
 475 26 l 1
 456.2 7.2 423.123 1 406 1 c 0
EndSplineSet
Ligature2: "'pres' Pre Base Substitutions in Gujarati lookup 5 subtable" u0AA6.half u0AAE

EndChar

StartChar: u0AA6_u0AAF.pres
Encoding: 65583 -1 180
Width: 553
Flags: HW
LayerCount: 2
Fore
SplineSet
384 1 m 0
 338.835 1 313 19.5124 313 59 c 0
 313 68.3333 313.667 75.6667 315 81 c 2
 318 97 l 1
 254.552 48.0543 193.2 38 162 38 c 0
 89.9691 38 38 82.9489 38 155 c 0
 38 216.736 77.9636 283.495 133 309 c 1
 107.667 336.333 95 362 95 386 c 0
 95 411.092 112.996 467.097 161.5 483 c 128
 181.833 489.667 204.667 493 230 493 c 0
 249.6 493 259.4 492 279 492 c 0
 313.578 492 320 500.434 320 523 c 0
 320 565.4 272.85 576 222 576 c 0
 201.6 576 198.2 574 188 574 c 1
 188 628 l 1
 256 628 l 2
 292.875 628 349 597.213 349 542 c 0
 349 515.834 335.836 445.347 240.5 438.5 c 128
 142.747 431.479 130 401 130 376 c 0
 130 346 150.656 332.005 162 326 c 1
 169.351 332.301 225.308 356 250 356 c 1
 256 287 l 1
 183.055 273.165 68 218.742 68 159 c 0
 68 130.361 103.853 86 153 86 c 0
 204.853 86 283.768 121.21 338 189 c 1
 406 510 l 1
 448 452 l 1
 363 51 l 2
 361 43.6667 363 40 369 40 c 256
 378 40 401.543 54.5295 414 81 c 1
 453 26 l 1
 434.2 7.2 401.123 1 384 1 c 0
EndSplineSet
EndChar

StartChar: u0AA6_u0AB5.blws
Encoding: 65584 -1 181
Width: 439
Flags: HW
LayerCount: 2
Fore
SplineSet
264 189 m 1
 210.247 173.642 175.2 171 153 171 c 0
 123.438 171 84.9595 173.091 65 218 c 128
 59.6667 230 57 242.667 57 256 c 0
 57 299.6 81.751 341.917 151 365 c 1
 284 405 l 1
 296 411 302 418.667 302 428 c 256
 302 437.333 296.667 446.667 286 456 c 1
 154 456 l 1
 137 510 l 1
 288 510 l 1
 317.702 492.449 335 456 335 420 c 0
 335 353.318 262.164 340.481 165 313 c 0
 101.943 295.803 84 277 84 253 c 0
 84 240.6 91.55 222 145 222 c 0
 177.667 222 208.333 227.667 237 239 c 1
 244.578 266.063 268.403 306 299 306 c 0
 317.534 306 338 286.586 338 265 c 256
 338 241 316.908 218.662 293 205 c 1
 348 44 l 1
 317 30 l 1
 314.328 39.3509 305.395 74.8301 287 72 c 1
 262.165 35.9886 218 1 172 1 c 0
 100.825 1 81 40 81 66 c 0
 81 98.8 109.306 136.56 136 148 c 1
 172 113 l 1
 148.64 101.32 127 79.4 127 57 c 0
 127 32.1333 157.545 8.48081 225 68 c 128
 259 98 276 127.333 276 156 c 0
 276 168 272 179 264 189 c 1
EndSplineSet
Ligature2: "'blws' Below Base Substitutions in Gujarati lookup 6 subtable" u0AA6 u0ACD u0AB5

EndChar

StartChar: u0AA7.half
Encoding: 65585 -1 183
Width: 292
Flags: HW
LayerCount: 2
Fore
SplineSet
255 288 m 1
 186.357 271.238 64 224.411 64 152 c 0
 64 129.333 78.6667 108.667 108 90 c 0
 115.333 86 125.333 84 138 84 c 0
 200.966 84 302.101 131.087 342 193 c 1
 323 103 l 1
 289.342 72.5994 224.6 38 159 38 c 0
 95.5203 38 35 76.9891 35 154 c 0
 35 216 72.9593 278.49 130 309 c 1
 116.568 316.462 86 340.6 86 388 c 0
 86 400.647 82.2155 500.934 255 541 c 1
 286 495 l 1
 213.517 466.973 141 437.714 141 374 c 0
 141 354.8 148.279 341.266 161 326 c 1
 175.597 336.616 232.2 356 250 356 c 1
 255 288 l 1
EndSplineSet
Ligature2: "'half' Half Forms in Gujarati lookup 4 subtable" u0AA7 u0ACD

EndChar

StartChar: u0AA8.half
Encoding: 65588 -1 187
Width: 301
Flags: HW
LayerCount: 2
Fore
SplineSet
74 307 m 0
 74 324.862 81.1 358 135 358 c 2
 140.5 358 l 130
 142.167 358 143.667 357.667 145 357 c 2
 382 357 l 1
 369 297 l 1
 190 297 l 1
 180.91 252.559 181.013 235.604 149 226 c 1
 113.34 221.885 74 265.33 74 307 c 0
EndSplineSet
Ligature2: "'half' Half Forms in Gujarati lookup 4 subtable" u0AA8 u0ACD

EndChar

StartChar: u0AAA
Encoding: 2730 2730 189
Width: 555
Flags: HW
LayerCount: 2
Fore
SplineSet
105 480 m 1
 120.213 498.256 154.37 509 163 509 c 0
 169.667 509.667 174.333 510 177 510 c 0
 207.697 510 251 495.6 251 438 c 0
 251 424 249 409 245 393 c 2
 199 174 l 1
 196.333 147.333 206.333 134 229 134 c 0
 268.624 134 326.889 180.84 345 230 c 1
 404 510 l 1
 445 452 l 1
 360 51 l 2
 358 43.6667 360.667 40 368 40 c 256
 378 40 403.278 51.5561 418 81 c 1
 457 26 l 1
 437.2 6.19999 404.8 1 383 1 c 0
 345.713 1 311 12.5719 311 59 c 0
 311 68.3333 311.667 75.6667 313 81 c 2
 321 117 l 1
 297.245 98.8341 272.262 92 246 92 c 0
 193.712 92 152 127.262 152 190 c 2
 152 211 l 1
 154 218.333 155.333 223.333 156 226 c 2
 205 457 l 1
 201 460.333 196 462 190 462 c 0
 171.384 462 154.475 442.715 137 426 c 1
 105 480 l 1
EndSplineSet
EndChar

StartChar: u0AAA.half
Encoding: 65590 -1 190
Width: 293
Flags: HW
LayerCount: 2
Fore
SplineSet
177 510 m 0
 207.697 510 251 495.6 251 438 c 0
 251 424 249 409 245 393 c 2
 199 174 l 1
 196.333 147.333 206.333 134 229 134 c 0
 268.624 134 326.889 180.84 345 230 c 1
 321 117 l 1
 297.245 98.8341 272.262 92 246 92 c 0
 193.712 92 152 127.262 152 190 c 2
 152 211 l 1
 154 218.333 155.333 223.333 156 226 c 2
 205 457 l 1
 201 460.333 196 462 190 462 c 0
 171.384 462 154.475 442.715 137 426 c 1
 105 480 l 1
 120.213 498.256 154.37 509 163 509 c 0
 169.667 509.667 174.333 510 177 510 c 0
EndSplineSet
Ligature2: "'half' Half Forms in Gujarati lookup 4 subtable" u0AAA u0ACD

EndChar

StartChar: u0AAB
Encoding: 2731 2731 192
Width: 484
Flags: HW
LayerCount: 2
Fore
SplineSet
16 70 m 0
 16 92.2645 42.2812 122 77 122 c 0
 115.902 122 111.821 64.7264 138 56 c 1
 222.908 56 279 108.826 279 176 c 0
 279 222.123 253.65 251.272 227 272 c 1
 80 222 l 1
 65 272 l 1
 172 308 l 1
 119.99 352.836 114 397.261 114 416 c 0
 114 475.78 164.766 520 231 520 c 0
 250.333 520 269.333 516.667 288 510 c 1
 302 455 l 1
 284 459.667 267.333 462 252 462 c 0
 184.15 462 165 420 165 392 c 0
 165 362.667 178.333 338.667 205 320 c 1
 353 371 l 1
 369 323 l 1
 263 287 l 1
 300.606 265.511 322 220.707 322 172 c 0
 322 81.688 257.789 1 150 1 c 1
 148.871 -17.0696 175.538 -78 230 -78 c 0
 272.8 -78 317.897 -52.2879 337 -41 c 1
 349 -102 l 1
 295.941 -129.444 264.2 -133 243 -133 c 0
 143.376 -133 142.295 -34.4426 118 2 c 1
 59.2969 2 16 38.1781 16 70 c 0
EndSplineSet
EndChar

StartChar: u0AAB.half
Encoding: 65592 -1 193
Width: 484
Flags: HW
LayerCount: 2
Fore
SplineSet
252 462 m 0
 184.15 462 165 420 165 392 c 0
 165 363.333 178.667 339.333 206 320 c 1
 341 315 l 1
 362 287 l 1
 264 287 l 1
 301.606 265.511 323 220.707 323 172 c 0
 323 81.688 258.789 1 151 1 c 1
 149.871 -17.0696 176.538 -78 231 -78 c 0
 273.8 -78 318.897 -52.2879 338 -41 c 1
 350 -102 l 1
 296.941 -129.444 265.2 -133 244 -133 c 0
 144.376 -133 143.295 -34.4426 119 2 c 1
 60.2969 2 17 38.1781 17 70 c 0
 17 100.342 48.768 122 77 122 c 0
 115.902 122 111.821 64.7264 138 56 c 1
 222.908 56 279 108.826 279 176 c 0
 279 222.123 253.65 251.272 227 272 c 1
 80 222 l 1
 65 272 l 1
 172 308 l 1
 119.99 352.836 114 397.261 114 416 c 0
 114 475.78 164.766 520 231 520 c 0
 250.333 520 269.333 516.667 288 510 c 1
 302 455 l 1
 284 459.667 267.333 462 252 462 c 0
EndSplineSet
Ligature2: "'half' Half Forms in Gujarati lookup 4 subtable" u0AAB u0ACD

EndChar

StartChar: u0AAB.vatu
Encoding: 65593 -1 194
Width: 484
Flags: HW
LayerCount: 2
Fore
SplineSet
138 56 m 1
 222.908 56 279 108.826 279 176 c 0
 279 196 273 215.667 261 235 c 1
 139 128 l 1
 108 161 l 1
 228 272 l 1
 81 222 l 1
 66 272 l 1
 173 308 l 1
 120.99 352.836 115 397.261 115 416 c 0
 115 475.78 165.766 520 232 520 c 0
 251.333 520 270.333 516.667 289 510 c 1
 303 455 l 1
 285 459.667 268.333 462 253 462 c 0
 185.15 462 166 420 166 392 c 0
 166 362.667 179.333 338.667 206 320 c 1
 354 371 l 1
 370 323 l 1
 264 287 l 1
 301.606 265.511 323 220.707 323 172 c 0
 323 81.688 258.789 1 151 1 c 1
 149.871 -17.0696 176.538 -78 231 -78 c 0
 273.8 -78 318.897 -52.2879 338 -41 c 1
 350 -102 l 1
 296.941 -129.444 265.2 -133 244 -133 c 0
 144.376 -133 143.295 -34.4426 119 2 c 1
 60.2969 2 17 38.1781 17 70 c 0
 17 100.342 48.768 122 77 122 c 0
 115.902 122 111.821 64.7264 138 56 c 1
EndSplineSet
Ligature2: "'vatu' Vattu Variants in Gujarati lookup 3 subtable" u0AAB u0ACD_u0AB0

EndChar

StartChar: u0AAC.half
Encoding: 65594 -1 196
Width: 370
Flags: HW
LayerCount: 2
Fore
SplineSet
249 303 m 0
 249 344.843 284.533 372 316 372 c 0
 340 372 352 357.333 352 328 c 0
 352 313.333 348 296 340 276 c 1
 346.667 268.667 354.667 265 364 265 c 0
 396.4 265 434.428 307.549 445 323 c 1
 430 251 l 1
 386.827 233.731 378 234 365 234 c 0
 353.667 234 343.667 236.333 335 241 c 1
 317 155 l 2
 307.467 110.912 264.727 64 202 64 c 0
 107.793 64 60 149.736 60 247 c 0
 60 315.858 85.8063 414.585 150.5 463.5 c 128
 191.5 494.5 251 510 329 510 c 1
 337 456 l 1
 235.367 456 196.377 438.288 141 375 c 0
 113.042 342.382 92 294.004 92 239 c 0
 92 165.95 126.8 110 179 110 c 0
 212.6 110 257.633 138.822 263 167 c 2
 281 252 l 1
 259.667 259.333 249 276.333 249 303 c 0
EndSplineSet
Ligature2: "'half' Half Forms in Gujarati lookup 4 subtable" u0AAC u0ACD

EndChar

StartChar: u0AAD.half
Encoding: 65596 -1 199
Width: 388
Flags: HW
LayerCount: 2
Fore
SplineSet
271 510 m 0
 343.649 510 380 451.881 380 405 c 0
 380 399 379.667 394.667 379 392 c 2
 353 270 l 1
 451 270 l 1
 438 207 l 1
 340 207 l 1
 328.505 162.937 324.92 146.852 298 139 c 1
 247.582 132.125 225 207.748 225 223 c 0
 225 269.752 261.776 269 288 269 c 0
 294 269 297.667 269.333 299 270 c 1
 331 422 l 1
 323.721 437.366 308.6 458 275 458 c 0
 223.6 458 165.422 409.477 146.5 374.5 c 128
 131.6 346.958 113 299.8 113 250 c 0
 113 158.4 161.183 86.8169 227 21 c 1
 214 5 l 1
 134.017 52.2629 63 147.751 63 265 c 0
 63 399.494 161.738 510 271 510 c 0
EndSplineSet
Ligature2: "'half' Half Forms in Gujarati lookup 4 subtable" u0AAD u0ACD

EndChar

StartChar: u0AAE.half
Encoding: 65598 -1 202
Width: 282
Flags: HW
LayerCount: 2
Fore
SplineSet
189 467 m 0
 171.001 467 154.902 448.902 136 430 c 1
 103 480 l 1
 123 500 146.667 510 174 510 c 0
 196 510 215 503 231 489 c 1
 246.2 473.8 247 435.626 247 429 c 0
 247 421 246.667 414.5 246 409.5 c 128
 238.724 360.609 226.283 316.884 217 270 c 1
 354 270 l 1
 341 207 l 1
 204 207 l 1
 192.505 162.937 188.92 146.852 162 139 c 1
 123.5 133.296 88 181.241 88 221 c 0
 88 270.7 127.688 269 152 269 c 0
 158 269 161.667 269.333 163 270 c 1
 204 462 l 1
 200 465.333 195 467 189 467 c 0
EndSplineSet
Ligature2: "'half' Half Forms in Gujarati lookup 4 subtable" u0AAE u0ACD

EndChar

StartChar: u0AAF.half
Encoding: 65600 -1 205
Width: 313
Flags: HW
LayerCount: 2
Fore
SplineSet
97 261 m 0
 97 205.216 134.59 114 196 114 c 0
 265.6 114 324.105 164.416 370 227 c 1
 345 108 l 1
 319.409 90.0866 258.339 55 214 55 c 0
 109.452 55 68 149.182 68 271 c 0
 68 291 69 311 71 331 c 1
 87 329 103.333 328 120 328 c 0
 216.325 328 277 362 277 413 c 0
 277 425 273.333 439.333 266 456 c 1
 132 456 l 1
 109 510 l 1
 260 510 l 1
 290 492 305 465 305 429 c 0
 305 356.861 237.946 274 99 274 c 1
 97.6667 270 97 265.667 97 261 c 0
EndSplineSet
Ligature2: "'half' Half Forms in Gujarati lookup 4 subtable" u0AAF u0ACD

EndChar

StartChar: u0AB0
Encoding: 2736 2736 206
Width: 380
Flags: HW
LayerCount: 2
Fore
SplineSet
160 279 m 1
 239.802 279 332 331.4 332 410 c 0
 332 424.667 328.667 439.667 322 455 c 1
 180 455 l 1
 162 510 l 1
 308 510 l 1
 342.6 494.622 364 457.06 364 406 c 0
 364 314.917 293.981 224.72 164 214 c 1
 164 151.538 163.524 92.2258 202 68 c 0
 204.667 67.3333 209.333 67 216 67 c 0
 246.695 67 275.35 82.4859 292 92 c 1
 297 17 l 1
 281.907 10.0339 246.588 1 225 1 c 0
 172.8 1 138 29.8574 138 139 c 0
 138 160.3 140 195.8 140 210 c 1
 105.93 218.761 66 235.048 66 273 c 0
 66 294.184 87.6118 338 118 338 c 0
 158.753 338 152.942 297.822 160 279 c 1
EndSplineSet
EndChar

StartChar: u0AB0_u0A82
Encoding: 65601 -1 207
Width: 11
Flags: HW
LayerCount: 2
Fore
SplineSet
-195 654 m 0
 -195 728.4 -129.169 778 -59 778 c 0
 -18.3333 778 7 763 17 733 c 1
 -25 697 l 1
 -37.6994 727.841 -71.0205 732 -86 732 c 0
 -114.395 732 -162 719.38 -162 645 c 0
 -162 585.281 -116.6 560.878 -61 550 c 1
 -142 550 l 1
 -169.494 572.206 -195 607.504 -195 654 c 0
-92 673 m 1
 -79 656 l 1
 -99 640 l 1
 -111 656 l 1
 -92 673 l 1
EndSplineSet
AnchorPoint: "a" -219 549 mark 0
EndChar

StartChar: u0AB0_u0ABF.pres
Encoding: 65602 -1 208
Width: 146
Flags: HW
LayerCount: 2
Fore
SplineSet
473 641 m 0
 473 623.5 477 621 477 616 c 1
 512 562 l 1
 495 544 l 1
 455.818 604.733 369 698 285 698 c 0
 202.557 698 179.855 589.009 163 510 c 2
 66 52 l 2
 64 44.6667 66 41 72 41 c 0
 88.664 41 109.27 66.5395 117 82 c 1
 156 27 l 1
 137.2 8.2 104.123 2 87 2 c 0
 41.8354 2 16 20.5124 16 60 c 0
 16 69.3333 16.6667 76.6667 18 82 c 2
 133 620 l 2
 144.956 676.366 202.051 745 284 745 c 0
 346.8 745 400.287 703.105 441 659 c 1
 451.481 739.852 524.931 778 580 778 c 0
 618.667 778 643 763 653 733 c 1
 611 697 l 1
 598.3 727.841 564.979 732 550 732 c 0
 521.191 732 473 718.673 473 641 c 0
EndSplineSet
EndChar

StartChar: u0AB0_u0ABF.wide
Encoding: 65603 -1 209
Width: 146
Flags: HW
LayerCount: 2
Fore
SplineSet
603 641 m 0
 603 623.5 607 621 607 616 c 1
 643 562 l 1
 625 544 l 1
 575.512 620.982 412.65 702 308 702 c 0
 213.672 702 189.73 629 164 510 c 2
 67 52 l 2
 65 44.6667 67 41 73 41 c 0
 89.664 41 110.27 66.5395 118 82 c 1
 157 27 l 1
 138.2 8.2 105.123 2 88 2 c 0
 42.8354 2 17 20.5124 17 60 c 0
 17 69.3333 17.6667 76.6667 19 82 c 2
 134 620 l 2
 141.106 653.5 177.861 745 301 745 c 0
 405.106 745 522.26 690.624 565 643 c 1
 565 727.394 633.304 778 706 778 c 0
 748 778 774 763 784 733 c 1
 742 697 l 1
 729.3 727.841 695.979 732 681 732 c 0
 652.573 732 603 719.284 603 641 c 0
EndSplineSet
EndChar

StartChar: u0AB0_u0ABF_u0A82.pres
Encoding: 65604 -1 210
Width: 146
Flags: HW
LayerCount: 2
Fore
SplineSet
473 641 m 0
 473 623.5 477 621 477 616 c 1
 512 562 l 1
 495 544 l 1
 455.818 604.733 369 698 285 698 c 0
 202.557 698 179.855 589.009 163 510 c 2
 66 52 l 2
 64 44.6667 66 41 72 41 c 0
 88.664 41 109.27 66.5395 117 82 c 1
 156 27 l 1
 137.2 8.2 104.123 2 87 2 c 0
 41.8354 2 16 20.5124 16 60 c 0
 16 69.3333 16.6667 76.6667 18 82 c 2
 133 620 l 2
 144.956 676.366 202.051 745 284 745 c 0
 346.8 745 400.287 703.105 441 659 c 1
 451.481 739.852 524.931 778 580 778 c 0
 618.667 778 643 763 653 733 c 1
 611 697 l 1
 598.3 727.841 564.979 732 550 732 c 0
 521.191 732 473 718.673 473 641 c 0
550 696 m 1
 577 661 l 1
 535 626 l 1
 509 661 l 1
 550 696 l 1
EndSplineSet
EndChar

StartChar: u0AB0_u0ABF_u0A82.wide
Encoding: 65605 -1 211
Width: 146
Flags: HW
LayerCount: 2
Fore
SplineSet
691 696 m 1
 718 661 l 1
 676 626 l 1
 649 661 l 1
 691 696 l 1
603 641 m 0
 603 623.5 607 621 607 616 c 1
 643 562 l 1
 625 544 l 1
 575.512 620.982 412.65 702 308 702 c 0
 213.672 702 189.73 629 164 510 c 2
 67 52 l 2
 65 44.6667 67 41 73 41 c 0
 89.664 41 110.27 66.5395 118 82 c 1
 157 27 l 1
 138.2 8.2 105.123 2 88 2 c 0
 42.8354 2 17 20.5124 17 60 c 0
 17 69.3333 17.6667 76.6667 19 82 c 2
 134 620 l 2
 141.106 653.5 177.861 745 301 745 c 0
 405.106 745 522.26 690.624 565 643 c 1
 565 727.394 633.304 778 706 778 c 0
 748 778 774 763 784 733 c 1
 742 697 l 1
 729.3 727.841 695.979 732 681 732 c 0
 652.573 732 603 719.284 603 641 c 0
EndSplineSet
EndChar

StartChar: u0AB0_u0AC0.psts
Encoding: 65606 -1 212
Width: 255
Flags: HW
LayerCount: 2
Fore
SplineSet
330 686 m 1
 317.301 716.841 283.979 721 269 721 c 0
 235.667 721 212.333 707.333 199 680 c 1
 201.667 670 203 659 203 647 c 0
 203 621 198.47 599.929 191 582 c 1
 79 51 l 2
 77 43.6667 79 40 85 40 c 256
 94 40 117.543 54.5295 130 81 c 1
 169 26 l 1
 150.2 7.2 117.123 1 100 1 c 0
 54.8354 1 29 19.5124 29 59 c 0
 29 68.3333 29.6667 75.6667 31 81 c 2
 147 629 l 2
 147.667 631.667 148 635.667 148 641 c 0
 148 663.4 130 697 51 697 c 0
 -21.1516 697 -40.5715 688.628 -54 647 c 1
 -74 550 l 1
 -118 597 l 1
 -100 682 l 1
 -88.6618 741.931 18.6344 755 61 755 c 0
 119.498 755 159.873 743.518 185 711 c 1
 212.777 747.11 259.095 767 299 767 c 0
 338.964 767 363.152 746.666 371 722 c 1
 330 686 l 1
EndSplineSet
Ligature2: "'psts' Post Base Substitutions in Gujarati lookup 7 subtable" u0AB0_u0ACD u0AC0

EndChar

StartChar: u0AB0_u0AC0_u0A82.psts
Encoding: 65607 -1 213
Width: 255
Flags: HW
LayerCount: 2
Fore
SplineSet
330 686 m 1
 317.301 716.841 283.979 721 269 721 c 0
 235.667 721 212.333 707.333 199 680 c 1
 201.667 670 203 659 203 647 c 0
 203 621 198.47 599.929 191 582 c 1
 79 51 l 2
 77 43.6667 79 40 85 40 c 256
 94 40 117.543 54.5295 130 81 c 1
 169 26 l 1
 150.2 7.2 117.123 1 100 1 c 0
 54.8354 1 29 19.5124 29 59 c 0
 29 68.3333 29.6667 75.6667 31 81 c 2
 147 629 l 2
 147.667 631.667 148 635.667 148 641 c 0
 148 663.4 130 697 51 697 c 0
 -21.1516 697 -40.5715 688.628 -54 647 c 1
 -74 550 l 1
 -118 597 l 1
 -100 682 l 1
 -88.6618 741.931 18.6344 755 61 755 c 0
 119.498 755 159.873 743.518 185 711 c 1
 212.777 747.11 259.095 767 299 767 c 0
 338.964 767 363.152 746.666 371 722 c 1
 330 686 l 1
266 676 m 1
 294 641 l 1
 252 606 l 1
 225 641 l 1
 266 676 l 1
EndSplineSet
Ligature2: "'psts' Post Base Substitutions in Gujarati lookup 8 subtable" u0AB0_u0AC0.psts u0A82

EndChar

StartChar: u0AB0_u0AC1.psts
Encoding: 65608 -1 214
Width: 380
Flags: HW
LayerCount: 2
Fore
SplineSet
441 269 m 0
 441 285.521 429.936 325 384 325 c 0
 367.333 325 351.667 321 337 313 c 1
 318.715 281.2 272.473 224.331 164 214 c 1
 164 151.538 163.524 92.2258 202 68 c 0
 204.667 67.3333 209.333 67 216 67 c 0
 246.695 67 275.35 82.4859 292 92 c 1
 297 17 l 1
 281.907 10.0339 246.588 1 225 1 c 0
 172.8 1 138 29.8574 138 139 c 0
 138 160.3 140 195.8 140 210 c 1
 105.93 218.761 66 235.048 66 273 c 0
 66 294.184 87.6118 338 118 338 c 0
 158.753 338 152.942 297.822 160 279 c 1
 239.802 279 332 331.4 332 410 c 0
 332 424.667 328.667 439.667 322 455 c 1
 180 455 l 1
 162 509 l 1
 308 509 l 1
 359.74 484.978 365 431.354 365 406 c 0
 365 386.72 364.434 379.587 358 359 c 1
 377 362 l 1
 437.7 362 475 310.922 475 255 c 0
 475 195.648 433.309 153.275 397 130 c 1
 357 161 l 1
 400.832 186.85 441 225.8 441 269 c 0
EndSplineSet
Ligature2: "'psts' Post Base Substitutions in Gujarati lookup 7 subtable" u0AB0 u0AC1

EndChar

StartChar: u0AB0_matra_u0AC1.psts
Encoding: 65609 -1 215
Width: 11
Flags: HW
LayerCount: 2
Fore
SplineSet
-196 -149 m 0
 -172.4 -149 -137 -164.275 -137 -218 c 0
 -137 -290.375 -191.728 -328 -254 -328 c 0
 -336.2 -328 -376.5 -256.312 -391 -211 c 1
 -374 -200 l 1
 -356.998 -239.672 -303.349 -286 -237 -286 c 1
 -257.667 -267.333 -268 -246.667 -268 -224 c 0
 -268 -191.21 -235.377 -149 -196 -149 c 0
-240 -235 m 0
 -240 -260.953 -196.591 -289 -184 -289 c 0
 -168 -289 -160 -266 -160 -220 c 0
 -160 -200 -169.333 -190 -188 -190 c 0
 -208.8 -190 -240 -208 -240 -235 c 0
-196 -32 m 1
 -65 -176 l 1
 -91 -202 l 1
 -188 -101 l 1
 -313 -198 l 1
 -348 -152 l 1
 -196 -32 l 1
EndSplineSet
AnchorPoint: "b" -188 -26 mark 0
EndChar

StartChar: u0AB0_u0AC2.blwf
Encoding: 65610 -1 216
Width: 11
Flags: HW
LayerCount: 2
Fore
SplineSet
-196 -32 m 1
 -65 -176 l 1
 -91 -202 l 1
 -188 -101 l 1
 -313 -198 l 1
 -348 -152 l 1
 -196 -32 l 1
-192 -167 m 0
 -132.268 -167 -99 -245.021 -99 -320 c 0
 -99 -352.526 -102.839 -373.517 -111 -398 c 1
 -115 -400.667 -118.333 -402 -121 -402 c 0
 -125 -402 -128 -401 -130 -399 c 1
 -127.333 -387.667 -126 -376.333 -126 -365 c 0
 -126 -320.037 -147.666 -251.223 -169 -237 c 1
 -182.51 -270.254 -214.366 -315 -258 -315 c 0
 -297.35 -315 -310 -293.2 -310 -270 c 0
 -310 -207.509 -237.953 -167 -192 -167 c 0
-239 -278 m 0
 -194.408 -278 -180 -200.256 -180 -192 c 0
 -180 -182.667 -184 -178 -192 -178 c 0
 -203.489 -178 -273 -209.673 -273 -245 c 0
 -273 -262.146 -258.329 -278 -239 -278 c 0
EndSplineSet
AnchorPoint: "b" -189 -27 mark 0
EndChar

StartChar: u0AB0_u0AC2.blws
Encoding: 65611 -1 217
Width: 443
Flags: HW
LayerCount: 2
Fore
SplineSet
89 136 m 0
 117.488 136 125.504 102.992 150 54 c 1
 240.206 54 289 118.745 289 186 c 0
 289 215.333 280 237.667 262 253 c 1
 237.371 240.686 201.361 236 166 236 c 1
 168 300 l 1
 281.642 300 346 356.413 346 414 c 0
 346 429.333 340.333 443.333 329 456 c 1
 208 456 l 1
 199 510 l 1
 290 510 l 2
 335.906 510 375 466.318 375 414 c 0
 375 399.622 366.303 349.82 344.5 318 c 128
 332.167 300 313.667 283 289 267 c 1
 312.333 239 324 206.333 324 169 c 0
 324 84.3567 259.935 1 155 1 c 1
 164.952 -40.0527 201.225 -75 253 -75 c 0
 268 -75 293.934 -66.9253 328 -48 c 1
 334 -105 l 1
 311.953 -116.503 284.8 -128 252 -128 c 0
 177 -128 143.891 -60.4511 127 0 c 1
 67.175 0 30 43.6484 30 79 c 0
 30 118.944 72.81 136 89 136 c 0
EndSplineSet
Ligature2: "'blws' Below Base Substitutions in Gujarati lookup 6 subtable" u0AB0 u0AC2

EndChar

StartChar: u0AB0_u0AC2.psts
Encoding: 65612 -1 218
Width: 653
Flags: HW
LayerCount: 2
Fore
SplineSet
579 207 m 1
 565.542 271.599 534.06 319 466 319 c 0
 420 319 395 302 391 268 c 0
 387 242 394.333 229 413 229 c 0
 417.667 229 424 230.667 432 234 c 1
 447 200 l 1
 433.667 192 421.333 188 410 188 c 0
 380 188 362.667 204 358 236 c 1
 347.871 243.15 333.426 251.084 316 284 c 1
 282.612 245.27 231.521 219.296 164 214 c 1
 164 151.538 163.524 92.2258 202 68 c 0
 204.667 67.3333 209.333 67 216 67 c 0
 246.695 67 275.35 82.4859 292 92 c 1
 297 17 l 1
 281.907 10.0339 246.588 1 225 1 c 0
 172.8 1 138 29.8574 138 139 c 0
 138 160.3 140 195.8 140 210 c 1
 105.93 218.761 66 235.048 66 273 c 0
 66 294.184 87.6118 338 118 338 c 0
 158.753 338 152.942 297.822 160 279 c 1
 239.802 279 332 331.4 332 410 c 0
 332 424.667 328.667 439.667 322 455 c 1
 180 455 l 1
 162 509 l 1
 308 509 l 1
 342.126 493.833 365 455.039 365 405 c 0
 365 370.333 354.333 336.667 333 304 c 1
 343.713 290.073 346.521 285 364 285 c 1
 381.714 338.143 418.998 361 470 361 c 0
 546.8 361 588.493 286.112 598 216 c 1
 579 207 l 1
EndSplineSet
Ligature2: "'psts' Post Base Substitutions in Gujarati lookup 7 subtable" u0AB0 u0AC2
LCarets2: 1 0 


EndChar

StartChar: u0AB0_u0AC7
Encoding: 65613 -1 219
Width: 11
Flags: HW
LayerCount: 2
Fore
SplineSet
-191 673 m 1
 -176.755 726.095 -123.341 764 -69 764 c 0
 -43 764 -13.283 756.491 -4 724 c 1
 -42 692 l 1
 -50.6667 712.667 -69 723 -97 723 c 0
 -129.723 723 -156.037 702.541 -160.5 681.5 c 128
 -165.536 657.758 -166.18 642.44 -165 633 c 1
 -102 539 l 1
 -134 522 l 1
 -233 662 l 1
 -237.667 664.667 -243.333 666 -250 666 c 0
 -273.6 666 -297.69 650.824 -309 637 c 1
 -347 714 l 1
 -331.888 731.859 -307.476 739 -286 739 c 0
 -254 739 -230.333 728.667 -215 708 c 2
 -191 673 l 1
EndSplineSet
AnchorPoint: "a" -220 518 mark 0
EndChar

StartChar: u0AB0_u0AC7_u0A82
Encoding: 65614 -1 220
Width: 11
Flags: HW
LayerCount: 2
Fore
SplineSet
-191 673 m 1
 -176.755 726.095 -123.341 764 -69 764 c 0
 -43 764 -13.283 756.491 -4 724 c 1
 -42 692 l 1
 -50.6667 712.667 -69 723 -97 723 c 0
 -129.723 723 -156.037 702.541 -160.5 681.5 c 128
 -165.536 657.758 -166.18 642.44 -165 633 c 1
 -102 539 l 1
 -134 522 l 1
 -233 662 l 1
 -237.667 664.667 -243.333 666 -250 666 c 0
 -273.6 666 -297.69 650.824 -309 637 c 1
 -347 714 l 1
 -331.888 731.859 -307.476 739 -286 739 c 0
 -254 739 -230.333 728.667 -215 708 c 2
 -191 673 l 1
-92 686 m 1
 -65 651 l 1
 -107 616 l 1
 -133 651 l 1
 -92 686 l 1
EndSplineSet
AnchorPoint: "a" -224 520 mark 0
EndChar

StartChar: u0AB0_u0AC8
Encoding: 65615 -1 221
Width: 11
Flags: HW
LayerCount: 2
Fore
SplineSet
-456 640 m 1
 -441.342 665.651 -409.077 684 -369 684 c 0
 -349.667 684 -333.333 679.333 -320 670 c 2
 -157 545 l 1
 -187 520 l 1
 -326 621 l 1
 -352.771 626.636 -386.914 602.067 -396 580 c 1
 -456 640 l 1
-124 718 m 1
 -96.1364 750.263 -50.9426 769 -20 769 c 0
 6.66667 769 25 759.667 35 741 c 1
 2 704 l 1
 -8 718 -23.6667 725 -45 725 c 0
 -73.4 725 -111.44 709.962 -116 675 c 1
 -90 529 l 1
 -124 524 l 1
 -160 699 l 1
 -166.667 708.333 -177.667 713 -193 713 c 0
 -209 713 -226.473 704.662 -233 700 c 1
 -239 791 l 1
 -228.333 797.667 -216.333 801 -203 801 c 0
 -168.001 801 -132.491 774.692 -127 739 c 2
 -124 718 l 1
EndSplineSet
AnchorPoint: "a" -276 519 mark 0
EndChar

StartChar: u0AB0_u0ACD
Encoding: 65616 -1 222
Width: 11
Flags: HW
LayerCount: 2
Fore
SplineSet
-198 654 m 0
 -198 728.4 -132.169 778 -62 778 c 0
 -21.3333 778 4 763 14 733 c 1
 -28 697 l 1
 -40.6994 727.841 -74.0205 732 -89 732 c 0
 -117.395 732 -165 719.38 -165 645 c 0
 -165 585.281 -119.6 560.878 -64 550 c 1
 -145 550 l 1
 -172.233 562.379 -198 610.613 -198 654 c 0
EndSplineSet
AnchorPoint: "a" -225 548 mark 0
Ligature2: "'rphf' Reph Form in Gujarati lookup 1 subtable" u0AB0 u0ACD
LCarets2: 1 0 


EndChar

StartChar: u0AB2.half
Encoding: 65617 -1 224
Width: 363
Flags: HW
LayerCount: 2
Fore
SplineSet
451 330 m 1
 453 269 l 1
 182 202 l 1
 178 265 l 1
 451 330 l 1
192 1 m 0
 96.2968 1 46 71.7184 46 176 c 0
 46 252.054 79.0574 360.281 114 416 c 0
 146.667 468 190.667 499.333 246 510 c 1
 336 510 l 1
 354 446 l 1
 334.667 451.333 317 454 301 454 c 0
 149.924 454 82 264.486 82 170 c 0
 82 87.6 131.875 67 178 67 c 0
 226 67 276.995 88.6628 298 105 c 1
 308 31 l 1
 276.927 14.9622 238.4 1 192 1 c 0
EndSplineSet
Ligature2: "'half' Half Forms in Gujarati lookup 4 subtable" u0AB2 u0ACD

EndChar

StartChar: u0AB3
Encoding: 2739 2739 225
Width: 608
Flags: HW
LayerCount: 2
Fore
SplineSet
424 510 m 0
 467.172 510 500 478.864 500 426 c 0
 500 406.521 500 402 497 399 c 1
 423 51 l 2
 421 43.6667 423 40 429 40 c 0
 445.664 40 466.27 65.5395 474 81 c 1
 512 26 l 1
 494.599 7.01736 460.819 1 444 1 c 0
 398.835 1 373 19.5124 373 59 c 0
 373 68.3333 373.667 75.6667 375 81 c 2
 450 435 l 2
 455.788 458.153 438.292 474 417 474 c 0
 404.2 474 370.075 462.247 353 422 c 0
 349 412.667 344.333 395 339 369 c 2
 294 155 l 2
 286.826 121.52 237.581 69 171 69 c 0
 127.2 69 104.24 85.2558 98 89 c 1
 65.3333 119 49 157.667 49 205 c 0
 49 223.378 54.1116 307.148 112 396 c 0
 136.667 434 170.333 472 213 510 c 1
 248 454 l 1
 187.021 401.289 85 266.394 85 173 c 0
 85 114.997 128.327 102 147 102 c 0
 189.291 102 235.748 140.241 242 169 c 2
 295 420 l 2
 303.737 459.941 364.735 510 424 510 c 0
EndSplineSet
EndChar

StartChar: u0AB3.half
Encoding: 65618 -1 226
Width: 404
Flags: HW
LayerCount: 2
Fore
SplineSet
84 172 m 0
 84 128.473 109.131 104 150 104 c 0
 195.339 104 233.358 133.196 242 169 c 2
 280 347 l 2
 290.238 394.351 348.436 437 408 437 c 0
 421.178 437 432.044 433.257 441 430 c 1
 431 384 l 1
 425.667 384.667 421 385 417 385 c 0
 378.356 385 339.046 369.231 330 324 c 2
 294 155 l 2
 286.4 119.533 236.824 67 174 67 c 0
 149.333 67 124 74.3333 98 89 c 0
 62.8871 108.846 50 161 50 209 c 0
 50 237.161 60.6314 317.531 113 398 c 0
 136.333 434 169.667 471.333 213 510 c 1
 248 454 l 1
 183.662 398.323 84 259.255 84 172 c 0
EndSplineSet
Ligature2: "'half' Half Forms in Gujarati lookup 4 subtable" u0AB3 u0ACD

EndChar

StartChar: u0AB5.half
Encoding: 65619 -1 228
Width: 275
Flags: HW
LayerCount: 2
Fore
SplineSet
94 257 m 0
 94 185.534 137.935 155 211 155 c 0
 261.336 155 318.07 201.652 333 234 c 1
 312 139 l 1
 237.979 111.585 224 110 202 110 c 0
 144.45 110 62 153.691 62 263 c 0
 62 320.505 92.4111 467.266 215 502 c 1
 243.751 505.594 265.444 510 287 510 c 1
 295 456 l 1
 226.214 456 188.868 451.377 143 393 c 0
 109.646 349.034 94 297.996 94 257 c 0
EndSplineSet
Ligature2: "'half' Half Forms in Gujarati lookup 4 subtable" u0AB5 u0ACD

EndChar

StartChar: u0AB6.althalf
Encoding: 65621 -1 231
Width: 309
Flags: HW
LayerCount: 2
Fore
SplineSet
272 458 m 0
 246.363 458 188 401.85 188 357 c 0
 188 339.667 197.333 331 216 331 c 0
 267.6 331 295 381.281 295 422 c 0
 295 438.7 290.4 458 272 458 c 0
325 422 m 256
 325 370.569 301.06 316.158 255 285 c 1
 347 118 l 1
 339 81 l 1
 230 271 l 1
 73 185 l 1
 51 238 l 1
 200 318 l 1
 186 337.333 179 362.333 179 393 c 0
 179 436.677 195.4 511 261 511 c 0
 312.2 511 325 459.2 325 422 c 256
EndSplineSet
EndChar

StartChar: u0AB6.half
Encoding: 65622 -1 232
Width: 389
Flags: HW
LayerCount: 2
Fore
SplineSet
275 508 m 0
 320.15 508 361 473.6 361 422 c 0
 361 296.92 280.767 219.922 165 199 c 1
 165 163 l 2
 165 114.015 172.082 85.4176 199 68 c 1
 202.333 67.3333 207 67 213 67 c 0
 243.695 67 272.35 82.4859 289 92 c 1
 292 17 l 1
 275.216 9.80702 244.333 1 221 1 c 0
 148.736 1 133 65.4442 133 138 c 2
 133 167.5 l 130
 133 177.167 133.333 187 134 197 c 1
 69.1117 213.222 67 245.8 67 258 c 0
 67 271.75 78.5484 320 119 320 c 0
 136.6 320 163 311.953 163 260 c 1
 187.129 254.92 221.524 273.513 256 293 c 1
 217.207 305.931 179 356.529 179 408 c 0
 179 463.475 225.214 508 275 508 c 0
277 453 m 0
 233.8 453 223 407.325 223 378 c 0
 223 352.717 258.307 317.477 282 308 c 1
 306.156 324.909 330 363.625 330 398 c 0
 330 442 295.45 453 277 453 c 0
EndSplineSet
Ligature2: "'half' Half Forms in Gujarati lookup 4 subtable" u0AB6 u0ACD

EndChar

StartChar: u0AB7.half
Encoding: 65625 -1 236
Width: 305
Flags: HW
LayerCount: 2
Fore
SplineSet
245 390 m 1
 197 165 l 1
 201 144.333 212.333 134 231 134 c 256
 262.409 134 314.957 164.357 343 222 c 1
 345 230 l 1
 245 390 l 1
105 480 m 1
 127.146 499.541 155.584 510 177 510 c 0
 210.6 510 224.892 496.529 233 489 c 0
 237 485 261 447.333 305 376 c 2
 370 269 l 1
 341 133 l 1
 318.771 112.792 282.8 92 244 92 c 0
 189.558 92 152 131.833 152 191 c 2
 152 205 l 130
 152 209 153.333 216 156 226 c 2
 205 457 l 1
 201 460.333 196 462 190 462 c 0
 171.384 462 154.475 442.715 137 426 c 1
 105 480 l 1
EndSplineSet
Ligature2: "'half' Half Forms in Gujarati lookup 4 subtable" u0AB7 u0ACD

EndChar

StartChar: u0AB7_u0A9F.pres
Encoding: 65626 -1 237
Width: 305
Flags: HW
LayerCount: 2
Fore
SplineSet
211 295 m 1
 217.227 256.081 245.2 240 268 240 c 0
 296.4 240 326.745 268.449 339 327 c 1
 345 360 l 1
 241 436 l 1
 211 295 l 1
89 98 m 0
 89 149.6 129.476 208.824 204 227 c 1
 179.105 242.214 172 249.719 172 278 c 0
 172 293.302 178.166 329.894 183 356 c 2
 205 459 l 1
 193 467.667 183 472 175 472 c 0
 165 472 154.667 466.667 144 456 c 1
 105 480 l 1
 127.146 499.541 155.584 510 177 510 c 0
 210.6 510 224.892 496.529 233 489 c 0
 236.333 485.667 263 468 313 436 c 2
 387 389 l 1
 364 277 l 1
 352.263 244.723 329.217 221.152 297 210 c 2
 204 179 l 1
 136.226 150.956 136 112.593 136 93 c 0
 136 48.2 170.4 37 198 37 c 0
 243.862 37 282.712 61.4587 308 83 c 1
 314.384 68.9562 322 50.3434 322 47 c 1
 248.666 2.99975 231.775 2 197 2 c 0
 140.6 2 89 40.4 89 98 c 0
EndSplineSet
Ligature2: "'pres' Pre Base Substitutions in Gujarati lookup 5 subtable" u0AB7.half u0A9F

EndChar

StartChar: u0AB7_u0A9F.psts
Encoding: 65627 -1 238
Width: 674
Flags: HW
LayerCount: 2
Fore
SplineSet
245 390 m 1
 197 165 l 1
 201 144.333 212.333 134 231 134 c 256
 262.409 134 314.957 164.357 343 222 c 1
 345 230 l 1
 245 390 l 1
105 481 m 1
 127.146 500.541 155.584 511 177 511 c 0
 210.6 511 224.892 497.529 233 490 c 0
 237 486 261 448.333 305 377 c 2
 370 270 l 1
 367 254 l 1
 419.785 308.434 587.706 343.739 607.5 380.5 c 128
 614.5 393.5 618 406.333 618 419 c 0
 618 435 612.333 447.333 601 456 c 1
 463 456 l 1
 441 510 l 1
 588 510 l 1
 624.776 500.806 649 467.071 649 419 c 0
 649 316.552 595.879 299.775 465 255 c 0
 376.472 225.159 362 194.168 362 143 c 0
 362 75.8 412.7 59 450 59 c 0
 483.6 59 550.667 74.767 618 132 c 1
 639 75 l 1
 580.976 39.2184 537.323 4 444 4 c 0
 372.438 4 331 52.8255 331 126 c 1
 303 104 274 93 244 93 c 0
 189.558 93 152 132.833 152 192 c 2
 152 206 l 130
 152 210 153.333 217 156 227 c 2
 205 458 l 1
 201 461.333 196 463 190 463 c 0
 171.384 463 154.475 443.715 137 427 c 1
 105 481 l 1
EndSplineSet
Ligature2: "'psts' Post Base Substitutions in Gujarati lookup 7 subtable" u0AB7.half u0A9F

EndChar

StartChar: u0AB7_u0AA0.pres
Encoding: 65628 -1 239
Width: 305
Flags: HW
LayerCount: 2
Fore
SplineSet
211 295 m 1
 217.227 256.081 245.2 240 268 240 c 0
 296.4 240 326.745 268.449 339 327 c 1
 345 360 l 1
 241 436 l 1
 211 295 l 1
174 29 m 0
 238.622 29 303 89.0258 303 145 c 0
 303 159.667 298.667 172.667 290 184 c 1
 272 200 l 1
 265.333 198.667 259.667 198 255 198 c 0
 238.528 198 233.016 200.889 220 210 c 1
 161.691 200.508 99 135 99 85 c 0
 99 56.3391 129.575 29 174 29 c 0
67 91 m 0
 67 171.056 130.497 225.961 187 239 c 1
 175.48 247.64 172 259.4 172 279 c 0
 172 294.302 178.166 330.894 183 357 c 2
 205 460 l 1
 193 468.667 183 473 175 473 c 0
 165 473 154.667 467.667 144 457 c 1
 105 481 l 1
 127.146 500.541 155.584 511 177 511 c 0
 210.6 511 224.892 497.529 233 490 c 0
 236.333 486.667 263 469 313 437 c 2
 387 390 l 1
 364 278 l 1
 355.665 251.606 333.5 225.544 304 214 c 1
 324.409 194.952 336 173.2 336 146 c 0
 336 52.5014 261.251 -1 176 -1 c 0
 112.416 -1 67 31.079 67 91 c 0
EndSplineSet
Ligature2: "'pres' Pre Base Substitutions in Gujarati lookup 5 subtable" u0AB7.half u0AA0

EndChar

StartChar: u0AB7_u0AA0.psts
Encoding: 65629 -1 240
Width: 661
Flags: HW
LayerCount: 2
Fore
SplineSet
349 111 m 0
 349 87.8 362.55 53 424 53 c 0
 507.777 53 604 115.25 604 183 c 0
 604 223.6 568.8 268 516 268 c 0
 438.185 268 349 177.235 349 111 c 0
343 222 m 1
 345 230 l 1
 245 390 l 1
 197 165 l 1
 199.667 144.333 211 134 231 134 c 0
 267.961 134 312.007 174.908 329 197 c 1
 330.324 202.295 338.413 215.884 343 222 c 1
105 479 m 1
 127.146 498.541 155.584 509 177 509 c 0
 210.6 509 224.892 495.529 233 488 c 0
 237 484 261 446.333 305 375 c 2
 370 268 l 1
 366 249 l 1
 402 286.333 440.333 305 481 305 c 1
 447.598 333.631 433 381.049 433 418 c 256
 433 491.6 491.714 506.111 509 510 c 1
 633 510 l 1
 640 456 l 1
 507 456 l 1
 487.667 436 478 416.667 478 398 c 0
 478 376.667 505.833 344.667 561.5 302 c 128
 617.167 259.333 645 217.333 645 176 c 0
 645 90.5504 568.97 1 446 1 c 0
 369.621 1 309 37.52 309 109 c 1
 287.667 96.3333 266.333 90 245 90 c 0
 192.709 90 152 126.358 152 190 c 2
 152 204 l 130
 152 208 153.333 215 156 225 c 2
 205 456 l 1
 201 459.333 196 461 190 461 c 0
 171.384 461 154.475 441.715 137 425 c 1
 105 479 l 1
EndSplineSet
Ligature2: "'psts' Post Base Substitutions in Gujarati lookup 7 subtable" u0AB7.half u0AA0

EndChar

StartChar: u0AB8.half
Encoding: 65630 -1 242
Width: 370
Flags: HW
LayerCount: 2
Fore
SplineSet
407 230 m 0
 352.4 230 324.458 269.734 316 286 c 1
 280.29 246.323 231.019 219.386 161 214 c 1
 161 151.538 160.524 92.2258 199 68 c 0
 201.667 67.3333 206.333 67 213 67 c 0
 243.695 67 272.35 82.4859 289 92 c 1
 294 17 l 1
 278.907 10.0339 243.588 1 222 1 c 0
 169.8 1 135 30.6535 135 144 c 2
 135 178 l 130
 135 189.333 135.333 200.667 136 212 c 1
 101.814 214.532 62 248.304 62 283 c 0
 62 308.922 90.3476 336 116 336 c 0
 159.235 336 148.03 301.425 157 279 c 1
 236.802 279 329 331.4 329 410 c 0
 329 424.667 325.667 439.667 319 455 c 1
 177 455 l 1
 159 509 l 1
 305 509 l 1
 339.126 493.833 362 455.039 362 405 c 0
 362 369.667 351.667 336.667 331 306 c 1
 349.646 285.282 367 284 376 284 c 0
 390.6 284 416.638 290.402 449 326 c 1
 429 232 l 1
 424.333 230.667 417 230 407 230 c 0
EndSplineSet
Ligature2: "'half' Half Forms in Gujarati lookup 4 subtable" u0AB8 u0ACD

EndChar

StartChar: u0AB9.old
Encoding: 65632 -1 244
Width: 430
Flags: HW
LayerCount: 2
Fore
SplineSet
237 451 m 1
 237 477.361 247.059 498.635 266 510 c 1
 411 510 l 1
 413.667 499.333 416.333 485.333 419 468 c 0
 419 465.333 419.333 461.333 420 456 c 1
 302 456 l 1
 292.667 452 288 445 288 435 c 0
 288 427 290.667 418.333 296 409 c 1
 349.226 342.827 389 297.587 389 240 c 0
 389 169.55 345 118 279 118 c 0
 205.751 118 172 175.809 172 257 c 0
 172 277.667 174 298 178 318 c 1
 119.442 292.126 83 213.401 83 137 c 0
 83 61.9339 110.876 41.413 148.5 19.5 c 128
 178.833 1.83333 206.333 -7 231 -7 c 0
 254.333 -7 268 1.66667 272 19 c 1
 272 51.1 293.6 77 326 77 c 0
 342.4 77 367 69 367 37 c 0
 367 -19.7078 303.212 -51 245 -51 c 0
 179.653 -51 39 -10.2 39 153 c 0
 39 167 40 181 42 195 c 0
 46.939 218.935 71.3993 329.574 196 418 c 1
 231 361 l 1
 214.333 335 206 303.333 206 266 c 0
 206 225.2 218.2 164 267 164 c 0
 281.183 164 343 179.704 343 236 c 0
 343 256.667 334 282.667 316 314 c 2
 237 451 l 1
EndSplineSet
EndChar

StartChar: u0AB9.halfalt
Encoding: 65634 -1 246
Width: 268
Flags: HW
LayerCount: 2
Fore
SplineSet
219 -10 m 0
 240.827 -10 245 3.00509 245 13 c 0
 245 26.3333 212.833 49.8333 148.5 83.5 c 128
 52.4838 133.747 19.8261 180.594 64.5 262 c 128
 79.5 289.333 99.6667 311.667 125 329 c 1
 152 289 l 1
 129.71 271.556 99 237.859 99 197 c 0
 99 186.333 101.667 174.667 107 162 c 1
 142.535 105.893 291 48.8645 291 4 c 0
 291 -3.71875 285.953 -46 231 -46 c 0
 193 -46 158.418 -28.9346 136 -11 c 1
 149 12 l 1
 182.574 -2.92198 205 -10 219 -10 c 0
320 306 m 2
 189.317 306 134 323.715 134 424 c 0
 134 468.25 156.778 510 198 510 c 2
 302 510 l 1
 315 456 l 1
 194 456 l 1
 175.727 451.783 169 427.044 169 404 c 0
 169 354.724 243.824 348 304 348 c 0
 333.6 348 363.2 350 378 350 c 1
 376 306 l 1
 320 306 l 2
EndSplineSet
EndChar

StartChar: u0AB9
Encoding: 2745 2745 247
Width: 378
Flags: HW
LayerCount: 2
Fore
SplineSet
132 431 m 0
 132 475.617 155.743 510 198 510 c 2
 302 510 l 1
 315 456 l 1
 194 456 l 1
 178.667 453.333 171 440.333 171 417 c 0
 171 392.2 181.941 367.035 202 355 c 1
 314.6 355 337 299.8 337 263 c 0
 337 216.72 310.837 158.705 235 125 c 1
 219 179 l 1
 264.255 184.324 298 225.256 298 266 c 0
 298 297.479 276.783 320 239 320 c 0
 174.93 320 98 267.994 98 201 c 0
 98 188.333 101 175.333 107 162 c 1
 142.535 105.893 291 48.8645 291 4 c 0
 291 -3.71875 285.953 -46 231 -46 c 0
 193 -46 158.418 -28.9346 136 -11 c 1
 149 12 l 1
 182.574 -2.92198 205 -10 219 -10 c 0
 240.827 -10 245 3.00509 245 13 c 0
 245 26.3333 211.833 49.6667 145.5 83 c 128
 79.1667 116.333 46 148 46 178 c 2
 46 194 l 2
 46 263.73 99.3434 325.343 162 345 c 1
 142 372.333 132 401 132 431 c 0
EndSplineSet
EndChar

StartChar: u0AB9.half
Encoding: 65635 -1 248
Width: 378
Flags: HW
LayerCount: 2
Fore
SplineSet
219 -10 m 0
 240.827 -10 245 3.00509 245 13 c 0
 245 26.3333 212.833 49.8333 148.5 83.5 c 128
 52.4838 133.747 19.8261 180.594 64.5 262 c 128
 79.5 289.333 99.6667 311.667 125 329 c 1
 152 289 l 1
 129.71 271.556 99 237.859 99 197 c 0
 99 186.333 101.667 174.667 107 162 c 1
 142.535 105.893 291 48.8645 291 4 c 0
 291 -3.71875 285.953 -46 231 -46 c 0
 193 -46 158.418 -28.9346 136 -11 c 1
 149 12 l 1
 182.574 -2.92198 205 -10 219 -10 c 0
194 456 m 1
 175.727 451.783 169 427.044 169 404 c 0
 169 346.987 245.43 354.542 263 344 c 0
 273 338 278 328.667 278 316 c 0
 278 311.333 277.667 307.667 277 305 c 1
 238.532 305 228 294.967 228 265 c 0
 228 244.333 238 234 258 234 c 0
 269.2 234 286.22 236.22 314 264 c 1
 336 214 l 1
 317.119 200.514 301.8 194 279 194 c 0
 231.38 194 193 223.864 193 269 c 0
 193 283.796 198.472 301.768 206 314 c 1
 155.867 327.926 134 358.541 134 424 c 0
 134 468.25 156.778 510 198 510 c 2
 302 510 l 1
 315 456 l 1
 194 456 l 1
EndSplineSet
Ligature2: "'half' Half Forms in Gujarati lookup 4 subtable" u0AB9 u0ACD

EndChar

StartChar: u0AB9_u0AA8.psts
Encoding: 65636 -1 249
Width: 681
Flags: HW
LayerCount: 2
Fore
SplineSet
219 -10 m 0
 240.827 -10 245 3.00509 245 13 c 0
 245 26.3333 212.833 49.8333 148.5 83.5 c 128
 52.4838 133.747 19.8261 180.594 64.5 262 c 128
 79.5 289.333 99.6667 311.667 125 329 c 1
 152 289 l 1
 129.71 271.556 99 237.859 99 197 c 0
 99 186.333 101.667 174.667 107 162 c 1
 142.535 105.893 291 48.8645 291 4 c 0
 291 -3.71875 285.953 -46 231 -46 c 0
 193 -46 158.418 -28.9346 136 -11 c 1
 149 12 l 1
 182.574 -2.92198 205 -10 219 -10 c 0
566 1 m 0
 515.8 1 496 24.2 496 59 c 0
 496 68.3333 496.667 75.6667 498 81 c 2
 542 291 l 1
 379 291 l 1
 376.333 277.667 374 264.667 372 252 c 1
 366.667 235.333 355.333 224.667 338 220 c 1
 297.979 214.48 258.962 263.927 263 307 c 1
 187.062 307 134 330.4 134 424 c 0
 134 468.25 156.778 510 198 510 c 2
 302 510 l 1
 315 456 l 1
 194 456 l 1
 175.727 451.783 169 427.044 169 404 c 0
 169 359.2 229.8 348 293 348 c 1
 298.6 349.4 310.464 349.352 322 351 c 1
 554 351 l 1
 588 510 l 1
 630 452 l 1
 545 51 l 2
 543 43.6667 545 40 551 40 c 0
 567.664 40 588.27 65.5396 596 81 c 1
 635 26 l 1
 616.2 7.2 583.123 1 566 1 c 0
EndSplineSet
Ligature2: "'psts' Post Base Substitutions in Gujarati lookup 7 subtable" u0AB9.half u0AA8

EndChar

StartChar: u0AB9_u0AAE.psts
Encoding: 65637 -1 250
Width: 640
Flags: HW
LayerCount: 2
Fore
SplineSet
333 267 m 0
 333 247.8 329 241.4 329 235 c 1
 426 234 l 1
 484 510 l 1
 525 452 l 1
 441 51 l 2
 439 43.6667 441 40 447 40 c 0
 463.664 40 484.27 65.5395 492 81 c 1
 530 26 l 1
 515.892 11.8917 489.2 1 462 1 c 0
 416.835 1 391 19.5124 391 59 c 0
 391 68.3333 391.667 75.6667 393 81 c 2
 413 174 l 1
 325 174 l 1
 315.381 135.524 312.238 111.528 283 103 c 1
 245.129 98.7921 208 144.753 208 184 c 0
 208 207.911 218.642 235 264 235 c 0
 274 234.333 281.333 234 286 234 c 1
 289.333 248.667 291 262 291 274 c 256
 291 327.369 249.057 333 235 333 c 0
 175.154 333 90 271.75 90 198 c 0
 90 185.333 93 172.333 99 159 c 1
 106.333 147.667 153.333 114.333 240 59 c 0
 273.333 38.3333 290 19 290 1 c 0
 290 -8.2375 283.985 -46 230 -46 c 0
 194.287 -46 155.978 -28.6273 136 -11 c 1
 149 10 l 1
 160.077 2.61538 188.6 -11 215 -11 c 0
 228.333 -11 237.333 -6.66667 242 2 c 0
 248.667 16.6667 219 41 153 75 c 0
 81.6667 111.667 46 148 46 184 c 0
 46 266.306 92.9996 330.588 156 359 c 1
 140.927 377.552 131 401.051 131 431 c 0
 131 475.561 155.835 511 198 511 c 2
 302 511 l 1
 315 457 l 1
 194 457 l 2
 177.8 457 167 435.9 167 411 c 0
 167 389 173.333 374.667 186 368 c 1
 198.4 368 210.8 370 217 370 c 0
 287.903 370 333 333.891 333 267 c 0
EndSplineSet
Ligature2: "'psts' Post Base Substitutions in Gujarati lookup 7 subtable" u0AB9.half u0AAE

EndChar

StartChar: u0AB9_u0AAF.pstsalt
Encoding: 65638 -1 251
Width: 779
Flags: HW
LayerCount: 2
Fore
SplineSet
235 177 m 0
 235 209.815 248.583 257.722 294 288 c 1
 294 318.667 278 334 246 334 c 256
 180.78 334 92 264.919 92 194 c 0
 92 182 94.3333 170.333 99 159 c 1
 134.387 104.989 271 47.6673 271 6 c 0
 271 -3.89687 265.814 -43 211 -43 c 0
 175.287 -43 136.978 -25.6273 117 -8 c 1
 129 13 l 1
 140.215 5.52308 169.2 -8 196 -8 c 0
 209.333 -8 218.333 -3.66667 223 5 c 0
 229.667 19.6667 203 43.3333 143 76 c 0
 78.3333 111.333 46 147.333 46 184 c 0
 46 266.306 92.9996 330.588 156 359 c 1
 140.927 377.552 131 401.051 131 431 c 0
 131 475.561 155.835 511 198 511 c 2
 292 511 l 1
 305 457 l 1
 194 457 l 2
 177.8 457 167 435.9 167 411 c 0
 167 389 173.333 374.667 186 368 c 1
 198.4 368 210.8 370 217 370 c 0
 280.333 370 317.333 349.333 328 308 c 1
 428.082 344.029 514.889 367.453 488.5 438.5 c 128
 484.167 450.167 480 456.333 476 457 c 2
 377 457 l 1
 356 511 l 1
 484 511 l 1
 508.951 498.525 523 471.284 523 436 c 0
 523 386.8 497.117 330.193 457 313 c 0
 407.179 291.02 268 221.8 268 161 c 0
 268 137.4 293.825 102 351 102 c 0
 434.628 102 536.128 164.7 576 227 c 1
 636 511 l 1
 678 453 l 1
 593 52 l 2
 591 44.6667 593 41 599 41 c 0
 615.664 41 636.27 66.5396 644 82 c 1
 683 27 l 1
 664.2 8.2 631.123 2 614 2 c 0
 568.835 2 543 20.5124 543 60 c 0
 543 69.3333 543.667 76.6667 545 82 c 2
 555 127 l 1
 519.855 94.9559 442.2 50 367 50 c 0
 288.338 50 235 107.277 235 177 c 0
EndSplineSet
EndChar

StartChar: u0AB9_u0AAF.psts
Encoding: 65639 -1 252
Width: 693
Flags: HW
LayerCount: 2
Fore
SplineSet
514 1 m 0
 481.175 1 443 12.8 443 60 c 0
 443 64 443.667 70 445 78 c 1
 417.667 50.6667 386 37 350 37 c 256
 289.095 37 220 81.3273 220 201 c 1
 232.667 197.667 246 196 260 196 c 0
 315.6 196 338 232.9 338 264 c 0
 338 293.6 316.24 338 249 338 c 0
 163.521 338 94 259.489 94 175 c 2
 94 163 l 1
 95.3333 157.667 96 153.667 96 151 c 0
 104.606 90.7551 264 12.9249 264 -32 c 0
 264 -70.4 234 -80 214 -80 c 0
 166.129 -80 140.975 -67.984 110 -48 c 1
 123 -25 l 1
 139.84 -33.9815 170.154 -48 194 -48 c 0
 213.709 -48 244.663 -31.8505 185 7 c 0
 122.032 47.7438 46 93.2762 46 183 c 0
 46 250.837 89.1333 327.241 156 358 c 1
 139.333 381.333 131 406.333 131 433 c 0
 131 450.376 135.672 499.315 198 510 c 1
 302 510 l 1
 316 456 l 1
 195 456 l 1
 171.623 449.321 166 426.374 166 410 c 0
 166 388.667 172.667 374 186 366 c 1
 206.667 369.333 220 371 226 371 c 130
 241 371 l 2
 326.034 371 385 334.2 385 279 c 0
 385 231.009 337.992 168 246 168 c 1
 260.221 89.7856 311.431 83 334 83 c 0
 385.6 83 436.497 118.09 463 161 c 1
 536 510 l 1
 578 452 l 1
 494 51 l 2
 492 43.6667 494 40 500 40 c 0
 515.586 40 536.48 65.9606 544 81 c 1
 583 26 l 1
 564.2 7.2 531.123 1 514 1 c 0
EndSplineSet
Ligature2: "'psts' Post Base Substitutions in Gujarati lookup 7 subtable" u0AB9.half u0AAF

EndChar

StartChar: u0ABC
Encoding: 2748 2748 253
Width: 11
Flags: HW
LayerCount: 2
Fore
SplineSet
-55 -113 m 1
 -132 -177 l 1
 -183 -112 l 1
 -107 -48 l 1
 -55 -113 l 1
EndSplineSet
EndChar

StartChar: u0ABD
Encoding: 2749 2749 254
Width: 425
Flags: HW
LayerCount: 2
Fore
SplineSet
232 113 m 0
 283.419 113 346 166.35 346 225 c 0
 346 267.4 315.847 304.715 295 331 c 1
 203.469 438.111 188.031 462.612 241.5 503.5 c 128
 258.5 516.5 276.333 523 295 523 c 2
 451 523 l 1
 469 468 l 1
 306 468 l 2
 284.083 468 277.27 458.284 273 438 c 1
 261.399 397.396 401 310.607 401 208 c 0
 401 134.683 321.514 57 241 57 c 0
 156.4 57 108.163 154.472 100 181 c 1
 130 199 l 1
 159.327 140.346 180.014 113 232 113 c 0
EndSplineSet
EndChar

StartChar: u0ABE
Encoding: 2750 2750 255
Width: 201
Flags: HW
LayerCount: 2
Back
SplineSet
87 1 m 4
 41.8354 1 16 19.5124 16 59 c 4
 16 68.3333 16.6667 75.6667 18 81 c 6
 109 510 l 5
 151 452 l 5
 66 51 l 6
 64 43.6667 66 40 72 40 c 4
 88.664 40 109.27 65.5395 117 81 c 5
 156 26 l 5
 137.2 7.2 104.123 1 87 1 c 4
87 1 m 0
 41.8354 1 16 19.5124 16 59 c 0
 16 68.3333 16.6667 75.6667 18 81 c 2
 109 510 l 1
 151 452 l 1
 66 51 l 2
 64 43.6667 66 40 72 40 c 0
 88.664 40 109.27 65.5395 117 81 c 1
 156 26 l 1
 137.2 7.2 104.123 1 87 1 c 0
EndSplineSet
Fore
SplineSet
87 1 m 4
 41.8354 1 16 19.5124 16 59 c 4
 16 68.3333 16.6667 75.6667 18 81 c 6
 109 510 l 5
 151 452 l 5
 66 51 l 6
 64 43.6667 66 40 72 40 c 4
 88.664 40 109.27 65.5395 117 81 c 5
 156 26 l 5
 137.2 7.2 104.123 1 87 1 c 4
EndSplineSet
EndChar

StartChar: u0ABF
Encoding: 2751 2751 256
Width: 146
Flags: HW
LayerCount: 2
Fore
SplineSet
495 543 m 1
 455.818 603.733 369 697 285 697 c 0
 202.557 697 179.855 588.009 163 509 c 2
 66 51 l 2
 64 43.6667 66 40 72 40 c 0
 88.664 40 109.27 65.5395 117 81 c 1
 156 26 l 1
 137.2 7.2 104.123 1 87 1 c 0
 41.8354 1 16 19.5124 16 59 c 0
 16 68.3333 16.6667 75.6667 18 81 c 2
 133 619 l 2
 142.383 663.234 189.822 743 285 743 c 0
 375.8 743 452.264 659.315 512 561 c 1
 495 543 l 1
EndSplineSet
EndChar

StartChar: u0ABF.wide
Encoding: 65640 -1 257
Width: 146
Flags: HW
LayerCount: 2
Fore
SplineSet
634 543 m 1
 583.953 623.076 390.808 697 290 697 c 0
 213.8 697 189.054 631.128 163 509 c 2
 66 51 l 2
 64 43.6667 66 40 72 40 c 0
 88.664 40 109.27 65.5395 117 81 c 1
 156 26 l 1
 137.2 7.2 104.123 1 87 1 c 0
 41.8354 1 16 19.5124 16 59 c 0
 16 68.3333 16.6667 75.6667 18 81 c 2
 133 619 l 2
 141.854 660.739 183.787 727.878 254.5 740 c 128
 266.167 742 280.333 743 297 743 c 0
 436.385 743 602.293 641.016 652 561 c 1
 634 543 l 1
EndSplineSet
EndChar

StartChar: u0ABF_u0A82
Encoding: 65641 -1 258
Width: 146
Flags: HW
LayerCount: 2
Fore
SplineSet
495 543 m 1
 455.818 603.733 369 697 285 697 c 0
 202.557 697 179.855 588.009 163 509 c 2
 66 51 l 2
 64 43.6667 66 40 72 40 c 0
 88.664 40 109.27 65.5395 117 81 c 1
 156 26 l 1
 137.2 7.2 104.123 1 87 1 c 0
 41.8354 1 16 19.5124 16 59 c 0
 16 68.3333 16.6667 75.6667 18 81 c 2
 133 619 l 2
 142.383 663.234 189.822 743 285 743 c 0
 375.8 743 452.264 659.315 512 561 c 1
 495 543 l 1
522 705 m 1
 549 670 l 1
 508 635 l 1
 481 670 l 1
 522 705 l 1
EndSplineSet
EndChar

StartChar: u0ABF_u0A82.wide
Encoding: 65642 -1 259
Width: 146
Flags: HW
LayerCount: 2
Fore
SplineSet
653 706 m 1
 680 671 l 1
 638 636 l 1
 611 671 l 1
 653 706 l 1
634 543 m 1
 583.953 623.076 390.808 697 290 697 c 0
 213.8 697 189.054 631.128 163 509 c 2
 66 51 l 2
 64 43.6667 66 40 72 40 c 0
 88.664 40 109.27 65.5395 117 81 c 1
 156 26 l 1
 137.2 7.2 104.123 1 87 1 c 0
 41.8354 1 16 19.5124 16 59 c 0
 16 68.3333 16.6667 75.6667 18 81 c 2
 133 619 l 2
 141.854 660.739 183.787 727.878 254.5 740 c 128
 266.167 742 280.333 743 297 743 c 0
 436.385 743 602.293 641.016 652 561 c 1
 634 543 l 1
EndSplineSet
EndChar

StartChar: u0AC0
Encoding: 2752 2752 260
Width: 255
Flags: HW
LayerCount: 2
Fore
SplineSet
61 755 m 0
 144.058 755 203 726.055 203 647 c 0
 203 632.333 201.333 618 198 604 c 0
 195.333 596.667 193 589.333 191 582 c 2
 79 51 l 2
 77 43.6667 79 40 85 40 c 256
 94 40 117.543 54.5295 130 81 c 1
 169 26 l 1
 150.2 7.2 117.123 1 100 1 c 0
 54.8354 1 29 19.5124 29 59 c 0
 29 68.3333 29.6667 75.6667 31 81 c 2
 147 629 l 2
 147.667 631.667 148 635.667 148 641 c 0
 148 663.4 130 697 51 697 c 0
 -21.1516 697 -40.5715 688.628 -54 647 c 1
 -74 550 l 1
 -118 597 l 1
 -100 682 l 1
 -88.6618 741.931 18.6344 755 61 755 c 0
EndSplineSet
EndChar

StartChar: u0AC0_u0A82
Encoding: 65643 -1 261
Width: 255
Flags: HW
LayerCount: 2
Fore
SplineSet
61 755 m 0
 144.058 755 203 726.055 203 647 c 0
 203 632.333 201.333 618 198 604 c 0
 195.333 596.667 193 589.333 191 582 c 2
 79 51 l 2
 77 43.6667 79 40 85 40 c 256
 94 40 117.543 54.5295 130 81 c 1
 169 26 l 1
 150.2 7.2 117.123 1 100 1 c 0
 54.8354 1 29 19.5124 29 59 c 0
 29 68.3333 29.6667 75.6667 31 81 c 2
 147 629 l 2
 147.667 631.667 148 635.667 148 641 c 0
 148 663.4 130 697 51 697 c 0
 -21.1516 697 -40.5715 688.628 -54 647 c 1
 -74 550 l 1
 -118 597 l 1
 -100 682 l 1
 -88.6618 741.931 18.6344 755 61 755 c 0
258 776 m 1
 285 741 l 1
 243 706 l 1
 216 741 l 1
 258 776 l 1
EndSplineSet
EndChar

StartChar: u0AC1
Encoding: 2753 2753 262
Width: 11
Flags: HW
LayerCount: 2
Fore
SplineSet
-198 -19 m 0
 -174.4 -19 -139 -34.7664 -139 -87 c 0
 -139 -148.414 -186.126 -197 -257 -197 c 0
 -326.295 -197 -373.598 -139.807 -394 -81 c 1
 -376 -70 l 1
 -358.942 -109.803 -306.378 -155 -240 -155 c 1
 -260 -137 -270 -116.667 -270 -94 c 0
 -270 -56.2 -235.238 -19 -198 -19 c 0
-242 -104 m 0
 -242 -130.8 -197.896 -158 -186 -158 c 0
 -170.667 -158 -163 -135.333 -163 -90 c 0
 -163 -70 -172.333 -60 -191 -60 c 0
 -211.4 -60 -242 -77.6 -242 -104 c 0
EndSplineSet
AnchorPoint: "b" -195 0 basechar 0
EndChar

StartChar: u0AC1.alt
Encoding: 65644 -1 263
Width: 11
Flags: HW
LayerCount: 2
Fore
SplineSet
-228 -159 m 0
 -204.4 -159 -169 -174.275 -169 -228 c 0
 -169 -300.375 -223.728 -338 -286 -338 c 0
 -368.2 -338 -408.5 -266.312 -423 -221 c 1
 -406 -210 l 1
 -388.998 -249.672 -335.349 -296 -269 -296 c 1
 -289.667 -277.333 -300 -256.667 -300 -234 c 0
 -300 -201.21 -267.377 -159 -228 -159 c 0
-272 -245 m 0
 -272 -270.953 -228.591 -299 -216 -299 c 0
 -200 -299 -192 -276 -192 -230 c 0
 -192 -210 -201.333 -200 -220 -200 c 0
 -240.8 -200 -272 -218 -272 -245 c 0
EndSplineSet
AnchorPoint: "b" -194 -145 mark 0
EndChar

StartChar: u0AC2
Encoding: 2754 2754 264
Width: 11
Flags: HW
LayerCount: 2
Fore
SplineSet
-150 -12 m 0
 -94.2 -12 -57 -85.1152 -57 -164 c 0
 -57 -196.526 -60.8389 -217.517 -69 -242 c 1
 -73 -244.667 -76.3333 -246 -79 -246 c 0
 -83.6667 -246 -87 -245 -89 -243 c 1
 -85.2123 -234.162 -84 -214.987 -84 -208 c 0
 -84 -157.6 -109.419 -95.5242 -127 -82 c 1
 -140.545 -115.342 -172.32 -159 -216 -159 c 0
 -259.8 -159 -268 -132.6 -268 -115 c 0
 -268 -58.082 -201.125 -12 -150 -12 c 0
-196 -122 m 0
 -155.094 -122 -138 -50.1033 -138 -35 c 0
 -138 -26.3333 -141.667 -22 -149 -22 c 0
 -159.652 -22 -230 -52.8184 -230 -89 c 0
 -230 -106.146 -215.329 -122 -196 -122 c 0
EndSplineSet
AnchorPoint: "b" -146.5 0 basechar 0
EndChar

StartChar: u0AC2.alt
Encoding: 65645 -1 265
Width: 11
Flags: HW
LayerCount: 2
Fore
SplineSet
-179 -151 m 0
 -113.804 -151 -86 -245.282 -86 -304 c 0
 -86 -330.721 -91.7456 -361.446 -99 -382 c 1
 -103 -384.667 -106.333 -386 -109 -386 c 0
 -113.667 -386 -117 -385 -119 -383 c 1
 -115.212 -374.162 -114 -354.987 -114 -348 c 0
 -114 -291.751 -138.425 -233.888 -156 -221 c 1
 -175.63 -268.674 -210 -299 -246 -299 c 0
 -285.35 -299 -298 -277.2 -298 -254 c 0
 -298 -194.996 -227.869 -151 -179 -151 c 0
-226 -262 m 0
 -184.733 -262 -166 -188.017 -166 -176 c 0
 -166 -166.667 -170 -162 -178 -162 c 0
 -190.1 -162 -210.318 -173.338 -238.5 -193 c 128
 -252.833 -203 -260 -215 -260 -229 c 0
 -260 -246.146 -245.329 -262 -226 -262 c 0
EndSplineSet
AnchorPoint: "b" -150 -137 mark 0
EndChar

StartChar: u0AC3
Encoding: 2755 2755 266
Width: 11
Flags: HW
LayerCount: 2
Fore
SplineSet
-270 -123 m 0
 -270 -84.5899 -240.867 -38 -194 -38 c 2
 -128 -38 l 1
 -138 -88 l 1
 -155.385 -88 -165.228 -87 -177 -87 c 0
 -221.65 -87 -235 -95 -235 -127 c 0
 -235 -147 -225 -157 -205 -157 c 0
 -193.8 -157 -176.78 -154.78 -149 -127 c 1
 -127 -177 l 1
 -145.667 -190.333 -164.667 -197 -184 -197 c 0
 -230.975 -197 -270 -167.4 -270 -123 c 0
EndSplineSet
AnchorPoint: "b" -158 -24.5 basechar 0
EndChar

StartChar: u0AC3.alt
Encoding: 65646 -1 267
Width: 11
Flags: HW
LayerCount: 2
Fore
SplineSet
-300 -233 m 0
 -300 -194.59 -270.867 -148 -224 -148 c 2
 -158 -148 l 1
 -169 -198 l 1
 -186.385 -198 -196.228 -197 -208 -197 c 0
 -250.748 -197 -265 -204.122 -265 -237 c 0
 -265 -257.667 -255 -268 -235 -268 c 0
 -223.8 -268 -206.78 -265.78 -179 -238 c 1
 -157 -288 l 1
 -175.881 -301.486 -191.2 -308 -214 -308 c 0
 -261.62 -308 -300 -278.136 -300 -233 c 0
EndSplineSet
AnchorPoint: "b" -179 -135 mark 0
EndChar

StartChar: u0AC4
Encoding: 2756 2756 268
Width: 11
Flags: HW
LayerCount: 2
Fore
SplineSet
-15 -213 m 1
 -33.3334 -223.695 -56.4999 -229 -88 -229 c 0
 -117.899 -229 -167.782 -200.622 -161 -164 c 0
 -156.93 -141.613 -141.353 -124.083 -107 -116 c 1
 -157.095 -108.844 -191.188 -57.6641 -154.5 -13 c 128
 -146.833 -3.66667 -138.333 1 -129 1 c 2
 -62 1 l 1
 -33 -36 l 1
 -113 -36 l 2
 -132.83 -36 -139.122 -43.9004 -143 -62 c 0
 -148.692 -84.7665 -113.686 -87 -87 -87 c 2
 -34 -87 l 1
 -20 -122 l 1
 -66 -122 l 2
 -86.6808 -122 -118.998 -136.487 -125 -171 c 1
 -127.831 -193.646 -106.774 -205 -83 -205 c 0
 -62.2 -205 -32.464 -181.952 -31 -180 c 1
 -15 -213 l 1
EndSplineSet
AnchorPoint: "b" -98 3 basechar 0
EndChar

StartChar: u0AC7
Encoding: 2759 2759 269
Width: 11
Flags: HW
LayerCount: 2
Fore
SplineSet
-347 714 m 1
 -331.888 731.859 -307.476 739 -286 739 c 0
 -254 739 -230.333 728.667 -215 708 c 1
 -102 539 l 1
 -134 522 l 1
 -233 662 l 1
 -237.667 664.667 -243.333 666 -250 666 c 0
 -273.6 666 -297.69 650.824 -309 637 c 1
 -347 714 l 1
EndSplineSet
AnchorPoint: "a" -225 511 mark 0
EndChar

StartChar: u0AC7_u0A82
Encoding: 65647 -1 270
Width: 11
Flags: HW
LayerCount: 2
Fore
SplineSet
-347 714 m 1
 -331.888 731.859 -307.476 739 -286 739 c 0
 -254 739 -230.333 728.667 -215 708 c 1
 -102 539 l 1
 -134 522 l 1
 -233 662 l 1
 -237.667 664.667 -243.333 666 -250 666 c 0
 -273.6 666 -297.69 650.824 -309 637 c 1
 -347 714 l 1
-98 696 m 1
 -71 661 l 1
 -113 626 l 1
 -139 661 l 1
 -98 696 l 1
EndSplineSet
AnchorPoint: "a" -222.5 518 mark 0
EndChar

StartChar: u0AC8
Encoding: 65648 -1 271
Width: 11
Flags: HW
LayerCount: 2
Fore
SplineSet
-193 713 m 0
 -209 713 -226.473 704.662 -233 700 c 1
 -239 791 l 1
 -228.333 797.667 -216.333 801 -203 801 c 0
 -168.001 801 -132.491 774.692 -127 739 c 2
 -90 529 l 1
 -124 524 l 1
 -160 699 l 1
 -166.667 708.333 -177.667 713 -193 713 c 0
-455 640 m 1
 -440.342 665.651 -408.077 684 -368 684 c 0
 -348.667 684 -332.333 679.333 -319 670 c 2
 -156 545 l 1
 -186 520 l 1
 -325 621 l 1
 -351.771 626.636 -385.914 602.067 -395 580 c 1
 -455 640 l 1
EndSplineSet
AnchorPoint: "a" -263 518 mark 0
EndChar

StartChar: u0AC8_u0A82
Encoding: 65649 -1 272
Width: 11
Flags: HW
LayerCount: 2
Fore
SplineSet
-193 713 m 0
 -209 713 -226.473 704.662 -233 700 c 1
 -239 791 l 1
 -228.333 797.667 -216.333 801 -203 801 c 0
 -168.001 801 -132.491 774.692 -127 739 c 2
 -90 529 l 1
 -124 524 l 1
 -160 699 l 1
 -166.667 708.333 -177.667 713 -193 713 c 0
-455 640 m 1
 -440.342 665.651 -408.077 684 -368 684 c 0
 -348.667 684 -332.333 679.333 -319 670 c 2
 -156 545 l 1
 -186 520 l 1
 -325 621 l 1
 -351.771 626.636 -385.914 602.067 -395 580 c 1
 -455 640 l 1
-55 706 m 1
 -28 671 l 1
 -70 636 l 1
 -97 671 l 1
 -55 706 l 1
EndSplineSet
AnchorPoint: "a" -263 518 mark 0
EndChar

StartChar: u0AC9.top
Encoding: 2760 2760 273
Width: 11
Flags: HW
LayerCount: 2
Fore
SplineSet
-118 537 m 0
 -205.438 537 -226 586.8 -226 620 c 0
 -226 644.271 -214.094 690.175 -159 716 c 1
 -115 668 l 1
 -142.771 660.426 -173 626.591 -173 599 c 0
 -173 585.019 -165.174 576 -150 576 c 0
 -144.667 575.333 -140.667 575 -138 575 c 0
 -79.5594 575 -26.2031 634.04 -3 690 c 1
 24 613 l 1
 -36.3988 545.28 -82.0382 537 -118 537 c 0
EndSplineSet
AnchorPoint: "a" -231 511 mark 0
EndChar

StartChar: u0ACD
Encoding: 2765 2765 277
Width: 11
Flags: HW
LayerCount: 2
Fore
SplineSet
-242 -80 m 0
 -262.8 -80 -285.781 -95.7258 -294 -106 c 1
 -327 -41 l 1
 -312.333 -25.6667 -293.667 -18 -271 -18 c 0
 -242.333 -18 -221 -27.3333 -207 -46 c 1
 -114 -186 l 1
 -142 -199 l 1
 -226 -83 l 1
 -229.333 -81 -234.667 -80 -242 -80 c 0
EndSplineSet
EndChar

StartChar: u0ACD_u0AB0
Encoding: 65650 -1 278
Width: 11
Flags: HW
LayerCount: 2
Fore
SplineSet
-196 -32 m 1
 -69 -179 l 1
 -92 -202 l 1
 -189 -101 l 1
 -314 -198 l 1
 -349 -152 l 1
 -196 -32 l 1
EndSplineSet
AnchorPoint: "b" -189 -24 basechar 0
Ligature2: "'blwf' Below Base Forms in Gujarati lookup 2 subtable" u0AB0 u0ACD
LCarets2: 1 0 


EndChar

StartChar: u0ACD_u0AB0.rkrf
Encoding: 65651 -1 279
Width: 11
Flags: HW
LayerCount: 2
Fore
SplineSet
-176 130 m 1
 -389 -3 l 1
 -412 39 l 1
 -197 178 l 1
 -176 130 l 1
EndSplineSet
AnchorPoint: "r" -218 158 basemark 0
EndChar

StartChar: u0AE0
Encoding: 2784 2784 280
Width: 741
Flags: HW
LayerCount: 2
Fore
SplineSet
492 124 m 0
 492 81.6 517.45 71 549 71 c 0
 569 71 595 77 627 89 c 1
 598.5 28 l 130
 591.5 12.6667 586.667 3.66667 584 1 c 1
 503.126 1 454 14.1693 454 92 c 0
 454 142.229 478.364 231.434 533 270 c 1
 547 278 l 1
 540 341 l 1
 367 240 l 1
 327 51 l 2
 325 43.6667 327 40 333 40 c 0
 349.664 40 370.27 65.5395 378 81 c 1
 417 26 l 1
 398.2 7.2 365.123 1 348 1 c 0
 302.835 1 277 19.5124 277 59 c 0
 277 68.3333 277.667 75.6667 279 81 c 2
 303 194 l 1
 296 194 l 1
 89 72 l 1
 68 124 l 1
 286 254 l 1
 231 396 l 1
 222.756 407.908 200.642 419 137 419 c 2
 122 419 l 130
 118 419 114.667 418.667 112 418 c 1
 103 474 l 1
 220 474 l 2
 258.8 474 306.69 295.347 317 260 c 1
 370 510 l 1
 412 452 l 1
 382 313 l 1
 552 415 l 1
 556.731 456.4 582.111 493 617 493 c 256
 656.2 493 666 469.625 666 452 c 0
 666 415.6 625.756 381.19 579 361 c 1
 575.906 348.624 591.23 304.516 596 291 c 1
 601.333 290.333 606 290 610 290 c 1
 619 228 l 1
 611 229.333 604.333 230 599 230 c 0
 537.238 230 492 185.988 492 124 c 0
EndSplineSet
AnchorPoint: "a" 290 518 basechar 0
EndChar

StartChar: u0AE6
Encoding: 2790 2790 281
Width: 385
Flags: HW
LayerCount: 2
Fore
SplineSet
82 200 m 0
 82 165.287 104.47 137 144 137 c 0
 215.508 137 315 220.246 315 286 c 0
 315 309.6 296.775 345 246 345 c 0
 171.049 345 82 267.545 82 200 c 0
47 217 m 130
 47 257.639 101.7 394 232 394 c 0
 306.752 394 350 344.339 350 274 c 0
 350 183.296 272.892 81 165 81 c 0
 92.675 81 47 132.75 47 203 c 2
 47 217 l 130
EndSplineSet
EndChar

StartChar: u0AE7
Encoding: 2791 2791 282
Width: 372
Flags: HW
LayerCount: 2
Fore
SplineSet
87 380 m 0
 87 439.764 138.777 510 212 510 c 0
 261.3 510 281 460.39 281 431 c 0
 281 424.333 279.833 415.167 277.5 403.5 c 130
 202 46 l 1
 210.689 28.6227 240.723 66.6241 263 79 c 1
 288 29 l 1
 272.676 9.49716 248.4 2 222 2 c 0
 177.586 2 149.734 54.9379 156 80 c 2
 211 338 l 1
 192.333 322.667 172.333 315 151 315 c 0
 127.025 315 87 328 87 380 c 0
121 372 m 0
 121 360.263 130.269 351 142 351 c 0
 176.177 351 233 413.585 233 449 c 0
 233 460.825 227 469 215 469 c 0
 180.892 469 121 407.508 121 372 c 0
EndSplineSet
EndChar

StartChar: u0AE8
Encoding: 2792 2792 283
Width: 470
Flags: HW
LayerCount: 2
Fore
SplineSet
157 279 m 1
 236.802 279 329 331.4 329 410 c 0
 329 424.667 325.667 439.667 319 455 c 1
 177 455 l 1
 159 510 l 1
 305 510 l 1
 339.6 494.622 361 457.06 361 406 c 0
 361 314.917 290.981 224.72 161 214 c 1
 161 151.538 160.524 92.2258 199 68 c 0
 201.667 67.3333 206.333 67 213 67 c 0
 243.695 67 272.35 82.4859 289 92 c 1
 294 17 l 1
 278.907 10.0339 243.588 1 222 1 c 0
 169.8 1 135 30.6535 135 144 c 2
 135 178 l 130
 135 189.333 135.333 200.667 136 212 c 1
 101.814 214.532 62 248.304 62 283 c 0
 62 308.922 90.3476 336 116 336 c 0
 159.235 336 148.03 301.425 157 279 c 1
EndSplineSet
EndChar

StartChar: u0AE9
Encoding: 2793 2793 284
Width: 409
Flags: HW
LayerCount: 2
Fore
SplineSet
298 302 m 1
 335.477 316.215 362 367.436 362 415 c 0
 362 436.333 356 450 344 456 c 1
 217 456 l 1
 208 510 l 1
 344 510 l 1
 360.388 497.026 391 466.4 391 401 c 0
 391 338.131 360.339 280.437 324 255 c 1
 338 221.667 345 189 345 157 c 0
 345 58.3939 276.151 1 196 1 c 0
 107.117 1 50.214 81.9111 41 178 c 1
 61 186 l 1
 66.4798 128.462 132.537 51 173 51 c 0
 213.69 51 225.338 51.3366 256 74 c 128
 283.364 94.2255 313 140.265 313 189 c 0
 313 210.333 308 228.667 298 244 c 1
 266.87 230.381 244.4 227 231 227 c 0
 184.443 227 179 261.905 179 276 c 0
 179 304.6 216.9 332 241 332 c 0
 258.333 332 277.333 322 298 302 c 1
EndSplineSet
EndChar

StartChar: u0AEA
Encoding: 2794 2794 285
Width: 519
Flags: HW
LayerCount: 2
Fore
SplineSet
151 92 m 0
 151 70.0637 158.4 45 188 45 c 0
 221.237 45 306 106.68 306 231 c 0
 306 245 305 256 303 264 c 1
 155 118 l 1
 152.333 112.667 151 104 151 92 c 0
197 0 m 0
 146.6 0 113 40.45 113 88 c 0
 113 117.2 124.639 145.334 139 161 c 2
 290 315 l 1
 258.083 414.742 237.2 447 202 447 c 0
 189.333 447 174.333 443.333 157 436 c 2
 122 419 l 1
 104 484 l 1
 126.136 494.541 134.282 498.071 182 510 c 1
 245.007 510 267.262 464.919 288 411 c 1
 312 337 l 1
 482 508 l 1
 509 473 l 1
 325 289 l 1
 327.672 275.64 329 236.282 329 228 c 0
 329 35.7 249.8 -1.56125e-18 197 0 c 0
EndSplineSet
EndChar

StartChar: u0AEB
Encoding: 2795 2795 286
Width: 555
Flags: HW
LayerCount: 2
Fore
SplineSet
105 480 m 1
 120.213 498.256 154.37 509 163 509 c 0
 169.667 509.667 174.333 510 177 510 c 0
 207.697 510 251 495.6 251 438 c 0
 251 424 249 409 245 393 c 2
 199 174 l 1
 196.333 147.333 206.333 134 229 134 c 0
 268.624 134 326.889 180.84 345 230 c 1
 404 510 l 1
 445 452 l 1
 360 51 l 2
 358 43.6667 360.333 40 367 40 c 0
 376.2 40 398.938 54.4379 413 81 c 1
 452 26 l 1
 433 6.99999 402.717 1 382 1 c 0
 331 1 311 24.2 311 59 c 0
 311 68.3333 311.667 75.6667 313 81 c 2
 321 117 l 1
 297.245 98.8341 272.262 92 246 92 c 0
 193.712 92 152 127.262 152 190 c 2
 152 211 l 1
 154 218.333 155.333 223.333 156 226 c 2
 205 457 l 1
 201 460.333 196 462 190 462 c 0
 171.384 462 154.475 442.715 137 426 c 1
 105 480 l 1
EndSplineSet
EndChar

StartChar: u0AEC
Encoding: 2796 2796 287
Width: 356
Flags: HW
LayerCount: 2
Fore
SplineSet
275 71 m 0
 275 50.3961 258.995 0 205 0 c 0
 158.003 0 111.91 34.6562 88 64 c 1
 108 84 l 1
 116.197 69.9482 161.633 40 194 40 c 0
 224.4 40 232 61.1 232 72 c 0
 232 113.182 76 181.527 76 256 c 0
 76 288.662 95.0851 314.933 129 343 c 1
 103 371 90 399.667 90 429 c 0
 90 443.018 92.9441 494.444 161 510 c 1
 322 510 l 1
 344 456 l 1
 161 456 l 1
 140.333 448.667 130 431.333 130 404 c 0
 130 382.667 138.667 366.333 156 355 c 1
 289 355 l 1
 307 302 l 1
 172 302 l 1
 140.007 288.289 121 272.6 121 253 c 256
 121 244.333 156 210 226 150 c 0
 258.667 122 275 95.6667 275 71 c 0
EndSplineSet
EndChar

StartChar: u0AED
Encoding: 2797 2797 288
Width: 457
Flags: HW
LayerCount: 2
Fore
SplineSet
237 362 m 0
 237 442.68 281 509 347 509 c 0
 418.008 509 424 409.135 424 324 c 0
 424 180.049 391.509 88.7563 304 30 c 1
 271.413 10.1644 238.063 1 210 1 c 0
 191.333 1 174.333 5.33333 159 14 c 1
 91.4146 59.4902 76 129.951 76 243 c 2
 76 275.5 l 130
 76 286.5 76.3333 297.667 77 309 c 2
 83.5 373.5 l 130
 85.8333 395.833 89 416.667 93 436 c 1
 114 436 l 1
 106.444 395.699 98 330.506 98 283 c 0
 98 167.808 126.474 64 226 64 c 0
 286.323 64 320.607 95.0213 347 136 c 0
 369.667 171.333 381 207 381 243 c 0
 381 253 380.333 260 379 264 c 1
 362.513 253.401 338.19 243 313 243 c 0
 252.584 243 237 308.634 237 362 c 0
334 451 m 0
 323.282 451 292 446.561 292 406 c 0
 292 362.06 328.465 307 358 307 c 0
 384.4 307 391 347.35 391 366 c 0
 391 406.308 369.366 451 334 451 c 0
EndSplineSet
EndChar

StartChar: u0AEE
Encoding: 2798 2798 289
Width: 447
Flags: HW
LayerCount: 2
Fore
SplineSet
152 3 m 0
 103.277 3 33 28 33 128 c 0
 33 167.567 48.1715 230.008 72 269 c 0
 90.6667 300.333 117 326 151 346 c 2
 430 511 l 1
 453 461 l 1
 117 254 l 1
 96.1903 228.461 71 197.897 71 150 c 0
 71 107.2 103 72 151 72 c 0
 178.071 72 197.686 82.738 212 92 c 1
 227 23 l 1
 206.333 9.66667 181.333 3 152 3 c 0
EndSplineSet
EndChar

StartChar: u0AEF
Encoding: 2799 2799 290
Width: 463
Flags: HW
LayerCount: 2
Fore
SplineSet
413 322 m 1
 415 261 l 1
 182 202 l 1
 178 265 l 1
 413 322 l 1
192 1 m 0
 96.2968 1 46 71.7184 46 176 c 0
 46 252.054 79.0574 360.281 114 416 c 0
 146.667 468 190.667 499.333 246 510 c 1
 336 510 l 1
 354 446 l 1
 334.667 451.333 317 454 301 454 c 0
 149.924 454 82 264.486 82 170 c 0
 82 87.6 131.875 67 178 67 c 0
 226 67 276.995 88.6628 298 105 c 1
 308 31 l 1
 276.927 14.9622 238.4 1 192 1 c 0
EndSplineSet
EndChar

StartChar: u25CC
Encoding: 9676 9676 291
Width: 651
Flags: HW
LayerCount: 2
Fore
SplineSet
610 353 m 1
 614.965 327.183 594.316 306 564 306 c 0
 552 306 544 309 540 315 c 1
 535.894 333.476 562.54 365 589 365 c 0
 599.667 365 606.667 361 610 353 c 1
536 435 m 0
 552 435 556 419.2 556 412 c 0
 556 385.589 514.062 361.979 499 367 c 1
 496.333 370.333 495 376 495 384 c 0
 495 424.722 522.815 435 536 435 c 0
446 456 m 0
 491.86 456 465.878 386 431 386 c 0
 406.118 386 404.498 456 446 456 c 0
545 242 m 1
 550.746 257.801 576.803 270 591 270 c 0
 639.422 270 612.627 213 579 213 c 0
 568.3 213 545 224.6 545 242 c 1
572 152 m 0
 572 140.744 559.4 120 534 120 c 0
 514.741 120 507 142.745 507 157 c 0
 507 165.4 513.8 178 541 178 c 0
 568.4 178 572 161.31 572 152 c 0
346 431 m 0
 382.424 431 375.581 383.129 353 367 c 1
 335.977 360.81 319.302 374.496 313 385 c 1
 309.026 398.248 320.464 431 346 431 c 0
457 50 m 0
 447.16 50 430 53.9445 430 77 c 0
 430 95.7959 434.646 106.169 446 115 c 1
 462.631 121.048 483.163 105.841 489 93 c 1
 494.279 73.6429 480.947 50 457 50 c 0
294 328 m 0
 294 307.275 273.529 303 261 303 c 0
 245.9 303 230 308.4 230 330 c 0
 230 341.15 236.6 362 263 362 c 0
 276.045 362 294 356.612 294 328 c 0
221 270 m 0
 252.654 270 270.142 241.885 237 222 c 128
 227 216 217.333 213 208 213 c 0
 171.4 213 177.431 270 221 270 c 0
368 92 m 0
 387.664 92 405.742 56.7746 378 32.5 c 128
 370 25.5 361.667 22 353 22 c 0
 333.647 22 322.763 51.0369 347.5 79 c 128
 355.167 87.6667 362 92 368 92 c 0
258 168 m 1
 262.126 156.997 243.767 132.739 227 125 c 1
 222.333 121.667 217.333 120 212 120 c 0
 200.667 120 192 125 186 135 c 1
 183.333 151 191.667 164 211 174 c 0
 217 178 224.333 180 233 180 c 0
 244.333 180 252.667 176 258 168 c 1
306 99 m 0
 306 83.475 296.8 53 260 53 c 0
 255.672 53 242 52.2934 242 71 c 0
 242 103.697 280.679 125.16 299 116 c 0
 303.667 114 306 108.333 306 99 c 0
EndSplineSet
EndChar

StartChar: Kappa
Encoding: 65652 -1 297
Width: 327
Flags: HW
LayerCount: 2
Fore
SplineSet
253 449 m 0
 237.916 449 203 442.947 203 391 c 0
 203 374.944 207.236 353.293 221 338 c 1
 247.474 345.564 282 365.2 282 406 c 0
 282 446.483 268.977 449 253 449 c 0
251 302 m 1
 267.052 288.623 282.8 284 304 284 c 0
 341.473 284 381.651 305.353 409 324 c 1
 391 241 l 1
 317.375 241 254.924 243.042 233 291 c 1
 126.588 246.915 57 220.266 57 142 c 0
 57 95.75 88.1 58 140 58 c 0
 155.652 58 200 64.6047 200 97 c 0
 199.333 105.667 199 112.667 199 118 c 0
 199 133.919 208.825 178 262 178 c 0
 285.333 178 297 162.333 297 131 c 0
 297 89.8 273.436 46.3741 238 28 c 1
 247.502 11.3715 256 -9.8 256 -35 c 0
 256 -83.6 224.534 -106.342 202 -116 c 1
 172 -74 l 1
 178.411 -61.1786 222 -49.4022 222 -15 c 0
 222 -7.66667 221 -1 219 5 c 130
 215 17 l 1
 192.333 5.66667 168.667 4.33681e-19 144 0 c 0
 71.854 0 33 48.3279 33 124 c 0
 33 198.309 54.0934 245.589 106 285 c 0
 134.667 307 166 322.333 200 331 c 1
 180.487 352.953 165 383.848 165 423 c 0
 165 497.052 232.252 510 248 510 c 0
 285.8 510 311 468.075 311 417 c 0
 311 368.958 288.897 323.475 251 302 c 1
EndSplineSet
EndChar

StartChar: Mu
Encoding: 65653 -1 298
Width: 395
Flags: HW
LayerCount: 2
Fore
SplineSet
174 509 m 0
 203.177 509 247 496.102 247 437 c 2
 247 421 l 1
 244.333 408.333 242.667 398.667 242 392 c 2
 185 121 l 2
 180.798 101.392 194.383 93 213 93 c 0
 243.4 93 273.6 108.415 289 125 c 1
 359 455 l 1
 399 397 l 1
 377 290 l 1
 379 284 386.333 281 399 281 c 0
 420.534 281 452.312 291.437 471 313 c 1
 454 235 l 1
 444.667 233.667 437.667 233 433 233 c 0
 406.333 233 386 244 372 266 c 1
 345 139 l 2
 334.67 87.3484 285.509 51 231 51 c 256
 173.922 51 139 87.4794 139 142 c 2
 139 155.5 l 130
 139 159.167 140.333 166.333 143 177 c 2
 202 456 l 1
 198 459.333 193 461 187 461 c 0
 176.4 461 159.295 450.295 134 425 c 1
 102 479 l 1
 124.667 499 148.667 509 174 509 c 0
467 115 m 1
 321 -14 l 1
 290 19 l 1
 431 150 l 1
 467 115 l 1
EndSplineSet
EndChar

StartChar: Omicron
Encoding: 65654 -1 299
Width: 380
Flags: HW
LayerCount: 2
Fore
SplineSet
333 342 m 0
 333 387.2 315.6 455 246 455 c 2
 160 455 l 1
 142 509 l 1
 268 509 l 1
 331.861 500.292 360 423.485 360 344 c 0
 360 211.814 292.319 79 181 79 c 0
 100.265 79 50 145.98 50 234 c 1
 70 239 l 1
 75.491 179.971 122.725 142 176 142 c 0
 268.962 142 333 239.342 333 342 c 0
451 115 m 1
 305 -14 l 1
 274 19 l 1
 415 150 l 1
 451 115 l 1
EndSplineSet
EndChar

StartChar: Theta
Encoding: 65655 -1 300
Width: 291
Flags: HW
LayerCount: 2
Fore
SplineSet
255 286 m 1
 143.646 259.321 64 212.499 64 157 c 256
 64 133 78.6667 111.667 108 93 c 0
 116 87.6667 128 85 144 85 c 0
 212.444 85 308.158 141.17 339 199 c 1
 318 99 l 1
 166 -34 l 1
 135 -1 l 1
 176 37 l 1
 172.667 36.3333 167.667 36 161 36 c 0
 102.944 36 34 70.0504 34 153 c 0
 34 215 71.9593 277.49 129 308 c 1
 101.082 351.871 98 374.4 98 391 c 0
 98 405.667 102.5 423.667 111.5 445 c 128
 119.9 464.911 147.704 503 252 503 c 0
 257.63 503 286.154 503.369 308 499 c 1
 318 444 l 1
 302 448.667 284 451 264 451 c 0
 197.4 451 140 419.8 140 373 c 0
 140 357.667 146.333 341.333 159 324 c 1
 175.554 336.734 226.935 355 249 355 c 1
 255 286 l 1
EndSplineSet
EndChar

StartChar: Tau
Encoding: 65656 -1 301
Width: 357
Flags: HW
LayerCount: 2
Fore
SplineSet
160 221 m 1
 160 176.134 197.948 133 249 133 c 0
 300.733 133 383.301 178.24 417 233 c 1
 395 133 l 1
 237 -5 l 1
 206 28 l 1
 252 71 l 1
 226 74 l 1
 147.912 92.1601 126.96 195.753 123 221 c 1
 92.4669 229.22 64 252.555 64 288 c 0
 64 318.288 84.6 352 120 352 c 0
 144.876 352 148.975 339.592 153 324.5 c 128
 157 309.5 159 294 159 278 c 1
 235.909 278 324 327.374 324 414 c 0
 324 426 322 439.667 318 455 c 1
 176 455 l 1
 158 509 l 1
 304 509 l 1
 353.935 485.031 356 420.384 356 404 c 0
 356 314.259 296.615 221 160 221 c 1
EndSplineSet
EndChar

StartChar: underscore
Encoding: 65657 -1 302
Width: 380
Flags: HW
LayerCount: 2
Fore
SplineSet
268 509 m 1
 358.016 497.259 360 362.18 360 337 c 1
 456 337 l 1
 443 279 l 1
 354 279 l 1
 336.323 180.007 279.808 79 181 79 c 0
 100.265 79 50 145.98 50 234 c 1
 70 239 l 1
 75.491 179.971 122.725 142 176 142 c 0
 268.962 142 333 239.342 333 342 c 0
 333 387.2 315.6 455 246 455 c 2
 160 455 l 1
 142 509 l 1
 268 509 l 1
EndSplineSet
EndChar

StartChar: mu
Encoding: 65658 -1 303
Width: 320
Flags: HW
LayerCount: 2
Fore
SplineSet
378 193 m 1
 364 193 l 1
 87 71 l 1
 66 123 l 1
 355 252 l 1
 229 395 l 1
 220.756 406.908 198.642 418 135 418 c 2
 120 418 l 130
 116 418 112.667 417.667 110 417 c 1
 101 473 l 1
 218 473 l 2
 252.8 473 341.533 336.311 392 259 c 1
 378 193 l 1
EndSplineSet
EndChar

StartChar: nu
Encoding: 65659 -1 304
Width: 386
Flags: HW
LayerCount: 2
Fore
SplineSet
253 5 m 1
 214.703 64.1863 163 134.6 163 221 c 0
 163 242.856 167.519 280.865 174.5 292.5 c 130
 184 308 l 1
 104 308 l 1
 77 362 l 1
 468 362 l 1
 456 308 l 1
 256 308 l 1
 241.084 297.199 201 266.8 201 205 c 0
 201 148.642 229.173 99.8912 272 21 c 1
 253 5 l 1
EndSplineSet
EndChar

StartChar: pi
Encoding: 65660 -1 305
Width: 306
Flags: HW
LayerCount: 2
Fore
SplineSet
180 360 m 0
 180 332.601 205.698 305 235 305 c 0
 275.932 305 307 355.196 307 404 c 0
 307 426.499 300.083 457 272 457 c 0
 234.2 457 180 407.778 180 360 c 0
68 168 m 0
 68 128.148 104.164 99 154 99 c 0
 228.622 99 319.939 152.378 358 218 c 1
 338 120 l 1
 172 -24 l 1
 141 9 l 1
 182 48 l 1
 164.481 48 109.685 43.9551 67 94 c 128
 47.6667 116.667 38 143.667 38 175 c 0
 38 260.798 107.022 285.84 167 313 c 1
 149 331.667 140 353.667 140 379 c 0
 140 444.595 204.869 501 264 501 c 0
 307.705 501 343 464.352 343 416 c 0
 343 323.97 237.734 287.945 171 258 c 0
 102.333 227.333 68 197.333 68 168 c 0
EndSplineSet
EndChar

StartChar: zeta
Encoding: 65661 -1 306
Width: 291
Flags: HW
LayerCount: 2
Fore
SplineSet
63 152 m 0
 63 118.171 99.149 81 140 81 c 0
 206.518 81 312.426 147.425 341 192 c 1
 322 102 l 1
 315.333 96 276.333 71.3333 205 28 c 2
 103 -34 l 1
 80 8 l 1
 129 40 l 1
 116 43 l 1
 51.92 64.36 34 110.407 34 153 c 0
 34 215 71.9593 277.49 129 308 c 1
 115.568 315.462 85 339.6 85 387 c 0
 85 394.383 78.7227 500.356 254 541 c 1
 285 494 l 1
 212.517 465.973 140 436.714 140 373 c 0
 140 353.8 147.279 340.266 160 325 c 1
 174.597 335.616 231.2 355 249 355 c 1
 254 287 l 1
 194.488 272.635 63 227.852 63 152 c 0
EndSplineSet
EndChar

StartChar: bar
Encoding: 65662 -1 307
Width: 300
Flags: HW
LayerCount: 2
Fore
SplineSet
73 306 m 0
 73 323.862 80.1 357 134 357 c 2
 139.5 357 l 130
 141.167 357 142.667 356.667 144 356 c 2
 381 356 l 1
 368 296 l 1
 189 296 l 1
 179.91 251.559 180.013 234.604 148 225 c 1
 112.34 220.885 73 264.33 73 306 c 0
379 209 m 1
 166 76 l 1
 143 118 l 1
 358 257 l 1
 379 209 l 1
EndSplineSet
EndChar

StartChar: braceright
Encoding: 65663 -1 308
Width: 300
Flags: HW
LayerCount: 2
Fore
SplineSet
92 321 m 0
 92 361.719 112.916 384 139 384 c 0
 145.667 384 154.333 382.333 165 379 c 0
 166.333 379 168.667 378.333 172 377 c 2
 388 315 l 1
 361 257 l 1
 198 304 l 1
 183.468 273.321 176.886 242 140 242 c 1
 112.45 246.133 92 284.704 92 321 c 0
137 51 m 0
 99.1156 51 55 85.4 55 122 c 0
 55 149 73.8326 159.944 95 167 c 1
 358 234 l 1
 361 176 l 1
 179 130 l 1
 181 117.333 182 107 182 99 c 0
 182 69.9539 163.25 51 137 51 c 0
EndSplineSet
EndChar

StartChar: Upsilon1
Encoding: 65664 -1 309
Width: 292
Flags: HW
LayerCount: 2
Fore
SplineSet
176 509 m 0
 206.697 509 250 494.6 250 437 c 0
 250 423 248 408 244 392 c 2
 198 173 l 1
 195.333 146.333 205.333 133 228 133 c 0
 267.624 133 325.889 179.84 344 229 c 1
 320 116 l 1
 106 -16 l 1
 83 26 l 1
 199 101 l 1
 171.879 115.206 151 145.474 151 189 c 2
 151 210 l 1
 153 217.333 154.333 222.333 155 225 c 2
 204 456 l 1
 200 459.333 195 461 189 461 c 0
 170.384 461 153.475 441.715 136 425 c 1
 104 479 l 1
 119.213 497.256 153.37 508 162 508 c 0
 168.667 508.667 173.333 509 176 509 c 0
EndSplineSet
EndChar

StartChar: florin
Encoding: 65665 -1 310
Width: 369
Flags: HW
LayerCount: 2
Fore
SplineSet
248 302 m 0
 248 343.843 283.533 371 315 371 c 0
 339 371 351 356.333 351 327 c 0
 351 312.333 347 295 339 275 c 1
 345.667 267.667 353.667 264 363 264 c 0
 395.4 264 433.428 306.549 444 322 c 1
 429 250 l 1
 385.827 232.731 377 233 364 233 c 0
 352.667 233 342.667 235.333 334 240 c 1
 316 154 l 2
 306.467 109.912 263.727 63 201 63 c 0
 106.793 63 59 148.736 59 246 c 0
 59 314.858 84.8063 413.585 149.5 462.5 c 128
 190.5 493.5 250 509 328 509 c 1
 336 455 l 1
 234.367 455 195.377 437.288 140 374 c 0
 112.042 341.382 91 293.004 91 238 c 0
 91 164.95 125.8 109 178 109 c 0
 211.6 109 256.633 137.822 262 166 c 2
 280 251 l 1
 258.667 258.333 248 275.333 248 302 c 0
424 79 m 1
 211 -54 l 1
 187 -12 l 1
 402 127 l 1
 424 79 l 1
EndSplineSet
EndChar

StartChar: diamond
Encoding: 65666 -1 311
Width: 387
Flags: HW
LayerCount: 2
Fore
SplineSet
270 509 m 0
 342.649 509 379 450.881 379 404 c 0
 379 398 378.667 393.667 378 391 c 2
 352 269 l 1
 450 269 l 1
 437 206 l 1
 339 206 l 1
 327.505 161.937 323.92 145.852 297 138 c 1
 246.582 131.125 224 206.748 224 222 c 0
 224 268.752 260.776 268 287 268 c 0
 293 268 296.667 268.333 298 269 c 1
 330 421 l 1
 322.721 436.366 307.6 457 274 457 c 0
 222.6 457 164.422 408.477 145.5 373.5 c 128
 130.6 345.958 112 298.8 112 249 c 0
 112 157.4 160.183 85.8169 226 20 c 1
 213 4 l 1
 133.017 51.2629 62 146.751 62 264 c 0
 62 398.494 160.738 509 270 509 c 0
462 139 m 1
 282 25 l 1
 259 67 l 1
 440 187 l 1
 462 139 l 1
EndSplineSet
EndChar

StartChar: spade
Encoding: 65667 -1 312
Width: 281
Flags: HW
LayerCount: 2
Fore
SplineSet
188 466 m 0
 170.001 466 153.902 447.902 135 429 c 1
 102 479 l 1
 122 499 145.667 509 173 509 c 0
 195 509 214 502 230 488 c 1
 245.2 472.8 246 434.626 246 428 c 0
 246 420 245.667 413.5 245 408.5 c 128
 237.724 359.609 225.283 315.884 216 269 c 1
 353 269 l 1
 340 206 l 1
 203 206 l 1
 191.505 161.937 187.92 145.852 161 138 c 1
 122.5 132.296 87 180.241 87 220 c 0
 87 269.7 126.688 268 151 268 c 0
 157 268 160.667 268.333 162 269 c 1
 203 461 l 1
 199 464.333 194 466 188 466 c 0
352 129 m 1
 139 -4 l 1
 116 38 l 1
 331 177 l 1
 352 129 l 1
EndSplineSet
EndChar

StartChar: proportional
Encoding: 65668 -1 313
Width: 274
Flags: HW
LayerCount: 2
Fore
SplineSet
93 256 m 0
 93 184.534 136.935 154 210 154 c 0
 260.336 154 317.07 200.652 332 233 c 1
 311 138 l 1
 96 7 l 1
 73 49 l 1
 174 112 l 1
 158 117 l 1
 78.5607 146.182 61 211.052 61 262 c 0
 61 319.505 91.4111 466.266 214 501 c 1
 242.751 504.594 264.444 509 286 509 c 1
 294 455 l 1
 225.214 455 187.868 450.377 142 392 c 0
 108.646 348.034 93 296.996 93 256 c 0
EndSplineSet
EndChar

StartChar: divide
Encoding: 65669 -1 314
Width: 302
Flags: HW
LayerCount: 2
Fore
SplineSet
271 457 m 0
 245.363 457 187 400.85 187 356 c 0
 187 338.667 196.333 330 215 330 c 0
 266.6 330 294 380.281 294 421 c 0
 294 437.7 289.4 457 271 457 c 0
324 421 m 256
 324 369.569 300.06 315.158 254 284 c 1
 311 196 l 1
 319.667 194.667 329.333 197.667 340 205 c 1
 350 214.333 356 219.667 358 221 c 1
 333 102 l 1
 314 129 l 1
 137 33 l 1
 115 86 l 1
 284 179 l 1
 229 270 l 1
 72 184 l 1
 50 237 l 1
 199 317 l 1
 185 336.333 178 361.333 178 392 c 0
 178 435.677 194.4 510 260 510 c 0
 311.2 510 324 458.2 324 421 c 256
EndSplineSet
EndChar

StartChar: notequal
Encoding: 65670 -1 315
Width: 288
Flags: HW
LayerCount: 2
Fore
SplineSet
271 457 m 0
 245.363 457 187 400.85 187 356 c 0
 187 338.667 196.333 330 215 330 c 0
 266.6 330 294 380.281 294 421 c 0
 294 437.7 289.4 457 271 457 c 0
283 30 m 0
 197.65 30 169 61.2 169 108 c 2
 169 122 l 130
 169 179 244.274 211.689 264 217 c 1
 229 270 l 1
 72 184 l 1
 50 237 l 1
 199 317 l 1
 185 336.333 178 361.333 178 392 c 0
 178 435.677 194.4 510 260 510 c 0
 311.2 510 324 458.2 324 421 c 256
 324 369.569 300.06 315.158 254 284 c 1
 295 220 l 1
 346 220 l 1
 335 170 l 1
 224.276 170 205 154.131 205 113 c 0
 205 78.6 229.95 70 262 70 c 0
 273.2 70 290.22 72.2201 318 100 c 1
 341 50 l 1
 321.667 36.6667 302.333 30 283 30 c 0
EndSplineSet
EndChar

StartChar: carriagereturn
Encoding: 65671 -1 316
Width: 377
Flags: HW
LayerCount: 2
Fore
SplineSet
290 2 m 0
 290 -12 280.5 -48 230 -48 c 0
 192 -48 157.418 -30.9346 135 -13 c 1
 148 10 l 1
 181.574 -4.92198 204 -12 218 -12 c 0
 239.827 -12 244 1.00509 244 11 c 0
 244 25 211.833 48.8333 147.5 82.5 c 128
 44.5728 136.363 19.2589 184.261 67.5 268 c 128
 85.1667 298.667 108 320.333 136 333 c 1
 162 295 l 1
 127.939 278.557 99 242.031 99 196 c 0
 99 182.667 101.333 171 106 161 c 1
 141.681 104.662 290 48.2776 290 2 c 0
132 428 m 0
 132 457.15 145 509 197 509 c 2
 301 509 l 1
 314 455 l 1
 193 455 l 1
 174.626 451.659 169.124 418.882 171 402 c 0
 174.333 376 197.333 360.833 240 356.5 c 128
 304.611 349.938 335 310.5 335 287 c 0
 335 262.2 315.744 231.09 306 225 c 1
 264 239 l 1
 278 255 285 269.333 285 282 c 0
 285 290.667 281.333 299.333 274 308 c 1
 194 214 l 1
 168 233 l 1
 247 326 l 1
 188.549 331.48 144.591 324.07 133 411 c 0
 132.333 415 132 420.667 132 428 c 0
EndSplineSet
EndChar
